<?xml version="1.0" encoding="UTF-8"?>
<!DOCTYPE svg PUBLIC "-//W3C//DTD SVG 1.1//EN" "http://www.w3.org/Graphics/SVG/1.1/DTD/svg11.dtd">
<!-- Creator: CorelDRAW 2018 (64 Bit Versão de avaliação) -->
<svg xmlns="http://www.w3.org/2000/svg" xml:space="preserve" width="43mm" height="43mm" version="1.1" style="shape-rendering:geometricPrecision; text-rendering:geometricPrecision; image-rendering:optimizeQuality; fill-rule:evenodd; clip-rule:evenodd"
viewBox="0 0 4300 4300"
 xmlns:xlink="http://www.w3.org/1999/xlink">
 <defs>
  <style type="text/css">
   <![CDATA[
    .fil0 {fill:none;fill-rule:nonzero}
    .fil1 {fill:white}
   ]]>
  </style>
 </defs>
 <g id="Camada_x0020_1">
  <metadata id="CorelCorpID_0Corel-Layer"/>
  <path class="fil0" d="M2150 0c593.69,0 1131.19,240.66 1520.26,629.74 389.08,389.07 629.74,926.57 629.74,1520.26 0,593.69 -240.66,1131.19 -629.74,1520.26 -389.07,389.08 -926.57,629.74 -1520.26,629.74 -593.69,0 -1131.19,-240.66 -1520.26,-629.74 -389.08,-389.07 -629.74,-926.57 -629.74,-1520.26 0,-593.69 240.66,-1131.19 629.74,-1520.26 389.07,-389.08 926.57,-629.74 1520.26,-629.74zm1308.16 841.84c-334.76,-334.77 -797.28,-541.84 -1308.16,-541.84 -510.88,0 -973.4,207.07 -1308.16,541.84 -334.77,334.76 -541.84,797.28 -541.84,1308.16 0,510.88 207.07,973.4 541.84,1308.16 334.76,334.77 797.28,541.84 1308.16,541.84 510.88,0 973.4,-207.07 1308.16,-541.84 334.77,-334.76 541.84,-797.28 541.84,-1308.16 0,-510.88 -207.07,-973.4 -541.84,-1308.16z"/>
  <g id="_3064555228128">
   <path class="fil1" d="M740.42 1897.64l0 529.75c29.48,45.31 30.42,77.52 95.5,90.74 38.35,7.79 132.35,2.86 176.58,2.86 216.08,0 164.63,-27.89 288.74,76.57l497.4 411.42c25.09,20.46 70.36,64.67 103.63,75.96 57.91,19.66 111.33,-10.33 135.76,-43.66 29.24,-39.91 22.75,-96.96 22.75,-154.88l0 -1452.9c0.01,-61.94 7.16,-114.83 -27.8,-155.27 -26.07,-30.15 -76.28,-57.7 -134.28,-36.34 -33.19,12.21 -165.62,127.5 -201.7,157.84 -132.91,111.78 -268.02,218.83 -398.86,330.42 -40.86,34.86 -74.72,72.76 -111.12,74.04 -67.61,2.37 -313.06,-6.56 -355.59,3.76 -62.75,15.22 -61.58,45.15 -91.01,89.69z"/>
   <path class="fil1" d="M3056.14 2162.75l333.66 -333.67c38.6,-38.61 38.6,-101.17 0,-139.78 -38.6,-38.59 -101.17,-38.59 -139.77,0l-333.66 333.68 -333.66 -333.68c-38.6,-38.59 -101.18,-38.59 -139.77,0 -38.6,38.61 -38.6,101.17 0,139.78l333.67 333.67 -333.66 333.66c-38.6,38.62 -38.6,101.18 0,139.79 19.29,19.29 44.6,28.95 69.88,28.95 25.29,0 50.58,-9.66 69.89,-28.95l333.66 -333.68 333.66 333.68c19.29,19.29 44.6,28.95 69.88,28.95 25.29,0 50.59,-9.66 69.89,-28.95 38.6,-38.61 38.6,-101.18 0,-139.79l-333.67 -333.66z"/>
  </g>
 </g>
</svg>
