<?xml version="1.0" encoding="UTF-8"?>
<!DOCTYPE svg PUBLIC "-//W3C//DTD SVG 1.1//EN" "http://www.w3.org/Graphics/SVG/1.1/DTD/svg11.dtd">
<!-- Creator: CorelDRAW 2018 (64 Bit Versão de avaliação) -->
<svg xmlns="http://www.w3.org/2000/svg" xml:space="preserve" width="43mm" height="43mm" version="1.1" style="shape-rendering:geometricPrecision; text-rendering:geometricPrecision; image-rendering:optimizeQuality; fill-rule:evenodd; clip-rule:evenodd"
viewBox="0 0 4300 4300"
 xmlns:xlink="http://www.w3.org/1999/xlink">
 <defs>
  <style type="text/css">
   <![CDATA[
    .fil1 {fill:none;fill-rule:nonzero}
    .fil0 {fill:white}
   ]]>
  </style>
 </defs>
 <g id="Camada_x0020_1">
  <metadata id="CorelCorpID_0Corel-Layer"/>
  <g id="_3064556521824">
   <g>
    <path class="fil0" d="M760.42 1897.64l0 529.75c29.48,45.31 30.42,77.52 95.5,90.74 38.35,7.79 132.35,2.86 176.58,2.86 216.08,0 164.63,-27.89 288.74,76.57l497.4 411.42c25.09,20.46 70.36,64.67 103.63,75.96 57.91,19.66 111.33,-10.33 135.76,-43.66 29.24,-39.91 22.75,-96.96 22.75,-154.88l0 -1452.9c0.01,-61.94 7.16,-114.83 -27.8,-155.27 -26.07,-30.15 -76.28,-57.7 -134.28,-36.34 -33.19,12.21 -165.62,127.5 -201.7,157.84 -132.91,111.78 -268.02,218.83 -398.86,330.42 -40.86,34.86 -74.72,72.76 -111.12,74.04 -67.61,2.37 -313.06,-6.56 -355.59,3.76 -62.75,15.22 -61.58,45.15 -91.01,89.69z"/>
    <path class="fil0" d="M3399.58 2259.11l0 -174.05c-6.27,-17.27 -14.06,-130.95 -19.43,-164.1 -8.67,-53.56 -19.06,-101.27 -32.39,-153.67 -24.2,-95.1 -60.25,-185.32 -99.42,-269.61 -40.25,-86.6 -88.26,-161.65 -137.56,-232.43 -26.09,-37.45 -54.67,-73.52 -81.61,-103.39 -26.36,-29.22 -54.74,-64.97 -119.02,-59.89 -95.25,7.52 -165.44,126.78 -89.31,219.25 57.13,69.38 101,125.32 151.27,213.21 257.57,450.37 208.07,1002.56 -102.95,1409.27 -24.26,31.73 -63.11,68.08 -58.39,127.78 4.18,52.91 43.53,89.67 72.82,107.72 109.78,67.61 183.74,-59.76 222.47,-112.95 289.72,-397.96 273.44,-759.57 293.52,-807.14z"/>
    <path class="fil0" d="M2477.63 1517.5c-68.63,19.39 -144.81,109.5 -70.97,212.44 91.8,127.99 152.21,250.24 150.59,438.18 -3.06,355.1 -213.9,402.33 -147.77,533.11 20.7,40.94 75.45,96.06 150.26,79.96 83.12,-17.89 165.31,-194.1 193.48,-268.93 118.09,-313.62 76.71,-653.88 -122.38,-919.57 -31.71,-42.33 -71.15,-98.37 -153.21,-75.19z"/>
   </g>
  </g>
  <path class="fil1" d="M2150 0c593.69,0 1131.19,240.66 1520.26,629.74 389.08,389.07 629.74,926.57 629.74,1520.26 0,593.69 -240.66,1131.19 -629.74,1520.26 -389.07,389.08 -926.57,629.74 -1520.26,629.74 -593.69,0 -1131.19,-240.66 -1520.26,-629.74 -389.08,-389.07 -629.74,-926.57 -629.74,-1520.26 0,-593.69 240.66,-1131.19 629.74,-1520.26 389.07,-389.08 926.57,-629.74 1520.26,-629.74zm1308.16 841.84c-334.76,-334.77 -797.28,-541.84 -1308.16,-541.84 -510.88,0 -973.4,207.07 -1308.16,541.84 -334.77,334.76 -541.84,797.28 -541.84,1308.16 0,510.88 207.07,973.4 541.84,1308.16 334.76,334.77 797.28,541.84 1308.16,541.84 510.88,0 973.4,-207.07 1308.16,-541.84 334.77,-334.76 541.84,-797.28 541.84,-1308.16 0,-510.88 -207.07,-973.4 -541.84,-1308.16z"/>
 </g>
</svg>
