<?xml version="1.0" encoding="UTF-8"?>
<!DOCTYPE svg PUBLIC "-//W3C//DTD SVG 1.1//EN" "http://www.w3.org/Graphics/SVG/1.1/DTD/svg11.dtd">
<!-- Creator: CorelDRAW 2018 (64 Bit Versão de avaliação) -->
<svg xmlns="http://www.w3.org/2000/svg" xml:space="preserve" width="12mm" height="12mm" version="1.1" shape-rendering="geometricPrecision" text-rendering="geometricPrecision" image-rendering="optimizeQuality" fill-rule="evenodd" clip-rule="evenodd"
viewBox="0 0 1200 1200"
 xmlns:xlink="http://www.w3.org/1999/xlink">
 <g id="Camada_x0020_1">
  <metadata id="CorelCorpID_0Corel-Layer"/>
  <polygon fill="#FF9830" points="74.3,0 1125.7,0 1125.7,74.3 1200,74.3 1200,1125.7 1125.7,1125.7 1125.7,1200 74.3,1200 74.3,1125.7 -0,1125.7 -0,74.3 74.3,74.3 "/>
  <path fill="black" d="M962.43 814.71c-10.82,4.49 -28.88,19.85 -60.79,31.86 -22.55,8.48 -47.67,14.58 -73.83,16.51 -55.29,4.09 -109.23,-9.72 -149.54,-33.01 -82.45,-47.65 -127.25,-126.95 -133.79,-208.88l-22.35 -19.19 22.63 -26.36c7.51,-80.68 52.29,-158.71 134.95,-206.39 73.53,-42.42 177.71,-44.54 254.37,-0.89 9.18,5.22 20.86,14.03 28.37,16.99 -9.88,-24.76 -55.53,-68.42 -75.86,-86.93 -24.5,-22.3 -63.06,-45.8 -100.83,-61.93 -86.04,-36.73 -184.64,-41.47 -276.96,-11.37 -37.99,12.38 -74.92,31.26 -108.69,55.86l-4.77 34.33 -31.64 -4.39c-69.87,64.61 -119.74,156.6 -125.57,267.18l23.19 19.91 -23.02 26.82c6.45,108.21 54.65,200.02 125.84,265.1l35.1 -3.2 3.1 34c107.23,76.1 251.47,99 385,42.23 31.58,-13.42 76.13,-39.68 100.44,-62.29 20.18,-18.77 64,-60.43 74.65,-85.96z"/>
 </g>
</svg>
