<?xml version="1.0" encoding="UTF-8"?>
<!DOCTYPE svg PUBLIC "-//W3C//DTD SVG 1.1//EN" "http://www.w3.org/Graphics/SVG/1.1/DTD/svg11.dtd">
<!-- Creator: CorelDRAW 2018 (64 Bit Versão de avaliação) -->
<svg xmlns="http://www.w3.org/2000/svg" xml:space="preserve" width="13.5344mm" height="13.5344mm" version="1.1" shape-rendering="geometricPrecision" text-rendering="geometricPrecision" image-rendering="optimizeQuality" fill-rule="evenodd" clip-rule="evenodd"
viewBox="0 0 2617.98 2617.98"
 xmlns:xlink="http://www.w3.org/1999/xlink">
 <g id="Camada_x0020_1">
  <metadata id="CorelCorpID_0Corel-Layer"/>
  <g id="_2972642639264">
   <polygon fill="white" points="162.1,0 2455.88,0 2455.88,162.1 2617.98,162.1 2617.98,2455.88 2455.88,2455.88 2455.88,2617.98 162.1,2617.98 162.1,2455.88 -0,2455.88 -0,162.1 162.1,162.1 "/>
   <g>
    <path fill="black" d="M795.6 1501.72l-126.37 0.54 -1.16 127.99 -126.64 1.08 -1.93 126.16 -129.02 -0.95 0.56 -896.88 128.05 -0.46 -0.02 -123.49c149.87,-11.84 1440.46,-7.33 1540.18,-2.03l-0.41 125.58 125.6 0.06 2.8 897.39 -126.83 1.26 -2.82 -124.22 -127.74 -3.97 -0.08 -126.7 -126.72 -1.61 -2.21 -123.89 -126.79 -4.62 0.89 126.79 127.65 -0.06 1.3 127.34 126.89 2.03 1.06 127.16 127.55 -0.12 0.08 130.95 -1540.99 -0.1 0.37 -131.05 125.11 0.35 3.97 -126.58 123.74 -1.88 4.29 -128.05 125.27 0.04 3.19 -126.37 -124.65 1.18 -4.16 127.12zm-510.16 512.25l2049.85 0.54 -0.04 -1410.33 -2052.58 -0.72 2.77 1410.5z"/>
    <polygon fill="black" points="1437.66,1500.93 1180.47,1500.97 1181.29,1628.42 1436.75,1627.38 "/>
    <polygon fill="black" points="667.26,988.22 667.94,860.58 539.34,860.54 540,987.8 "/>
    <polygon fill="black" points="923.87,1244.6 923.96,1117.14 795.66,1116.85 796.96,1244.15 "/>
    <polygon fill="black" points="923.87,1244.6 924.58,1371.35 1052.21,1372.32 1052.29,1358.99 1051.49,1244.77 "/>
    <polygon fill="black" points="667.26,988.22 667.96,1114.18 795.82,1115.83 794.89,988.22 "/>
    <polygon fill="black" points="1180.47,1500.97 1180.53,1373.81 1052.48,1373.31 1053.68,1500.35 "/>
    <polygon fill="black" points="1950.83,988.24 2076.62,987.25 2079.06,860.54 2065.94,860.67 1950.89,860.63 "/>
    <polygon fill="black" points="1694.27,1244.62 1568.11,1245.58 1565.4,1372.2 1693.32,1371.82 "/>
    <polygon fill="black" points="1694.27,1244.62 1819.49,1243.55 1822.51,1116.97 1808.91,1117.05 1694.13,1117.05 "/>
    <polygon fill="black" points="1950.83,988.24 1825.47,989.34 1821.8,1115.73 1950.2,1115 "/>
    <polygon fill="black" points="1437.66,1500.93 1562.19,1499.81 1566.02,1373.42 1437.47,1373.67 "/>
   </g>
  </g>
 </g>
</svg>
