<?xml version="1.0" encoding="UTF-8"?>
<!DOCTYPE svg PUBLIC "-//W3C//DTD SVG 1.1//EN" "http://www.w3.org/Graphics/SVG/1.1/DTD/svg11.dtd">
<!-- Creator: CorelDRAW 2018 (64 Bit Versão de avaliação) -->
<svg xmlns="http://www.w3.org/2000/svg" xml:space="preserve" width="12mm" height="12mm" version="1.1" style="shape-rendering:geometricPrecision; text-rendering:geometricPrecision; image-rendering:optimizeQuality; fill-rule:evenodd; clip-rule:evenodd"
viewBox="0 0 1200 1200"
 xmlns:xlink="http://www.w3.org/1999/xlink">
 <defs>
  <style type="text/css">
   <![CDATA[
    .fil0 {fill:#8511F2}
    .fil1 {fill:white}
   ]]>
  </style>
 </defs>
 <g id="Camada_x0020_1">
  <metadata id="CorelCorpID_0Corel-Layer"/>
  <polygon class="fil0" points="74.3,0 1125.7,0 1125.7,74.3 1200,74.3 1200,1125.7 1125.7,1125.7 1125.7,1200 74.3,1200 74.3,1125.7 -0,1125.7 -0,74.3 74.3,74.3 "/>
  <path class="fil1" d="M508.29 1171.6l2.14 0 0 -181.86 -179.14 0c0,-55.99 9.89,-46.09 -46.07,-46.09l0 -43.55 -46.06 0 0 -46.1 -43.52 0 0 -43.55 87.02 0c0,56 -9.89,46.11 46.06,46.11l0 43.54c55.96,0 46.07,-9.9 46.07,46.1l89.58 0 0 -46.1 46.06 0 0 -43.54 43.51 0 0 -46.11 -179.15 0 0 -46.09 -43.5 0c0,-56 9.89,-46.11 -46.07,-46.11l0 -43.55 -46.06 0 0 -268.93 46.06 0 0 -43.55c55.62,0 46.07,9.18 46.07,-40.97 0,-12.02 -15.73,-7.68 -46.07,-7.68l0 -114.97 14.36 -11.97 0 -6.25 118.72 0 0 46.09 46.07 0 0 43.55 46.06 0 0 -43.55 222.65 0 0 43.55 46.07 0 0 -43.55 46.06 0 0 -46.09 133.09 0 0 133.19c-55.62,0 -46.07,-9.18 -46.07,40.98 0,12.03 15.73,7.67 46.07,7.67l0 43.55 46.06 0 0 268.93 -46.06 0 0 43.55c-55.96,0 -46.07,-9.89 -46.07,46.11l-43.5 0 0 46.09 -179.15 0 0 46.11 43.5 0 0 43.54 46.07 0 0 33.35 -2.46 0.02 0 266.53 -268.4 0 0 -28.4z"/>
 </g>
</svg>
