<?xml version="1.0" encoding="UTF-8"?>
<!DOCTYPE svg PUBLIC "-//W3C//DTD SVG 1.1//EN" "http://www.w3.org/Graphics/SVG/1.1/DTD/svg11.dtd">
<!-- Creator: CorelDRAW 2018 (64 Bit Versão de avaliação) -->
<svg xmlns="http://www.w3.org/2000/svg" xml:space="preserve" width="12mm" height="12mm" version="1.1" style="shape-rendering:geometricPrecision; text-rendering:geometricPrecision; image-rendering:optimizeQuality; fill-rule:evenodd; clip-rule:evenodd"
viewBox="0 0 1200 1200"
 xmlns:xlink="http://www.w3.org/1999/xlink">
 <defs>
  <style type="text/css">
   <![CDATA[
    .fil0 {fill:#FA3296}
    .fil1 {fill:white}
   ]]>
  </style>
 </defs>
 <g id="Camada_x0020_1">
  <metadata id="CorelCorpID_0Corel-Layer"/>
  <polygon class="fil0" points="74.3,0 1125.7,0 1125.7,74.3 1200,74.3 1200,1125.7 1125.7,1125.7 1125.7,1200 74.3,1200 74.3,1125.7 -0,1125.7 -0,74.3 74.3,74.3 "/>
  <g id="_1714330048640">
   <g>
    <path class="fil1" d="M189.55 335.08c42.8,0 37.31,3.33 37.31,-55.97 49.09,0 44.78,4.31 44.78,-44.78 61.48,0 55.97,6.38 55.97,-44.78l541.05 0c0,51.16 -5.52,44.78 55.97,44.78 0,49.09 -4.31,44.78 44.77,44.78 0,60.48 -5.92,55.97 41.05,55.97l0 529.84c-46.97,0 -41.05,-4.51 -41.05,55.97 -49.08,0 -44.77,-4.31 -44.77,44.78 -61.49,0 -55.97,-6.38 -55.97,44.78l-541.05 0c0,-51.16 5.51,-44.78 -55.97,-44.78 0,-49.09 4.31,-44.78 -44.78,-44.78 0,-59.3 5.49,-55.97 -37.31,-55.97l0 -529.84zm126.86 -220.15l0 29.85c-86.97,0 -78.36,-8.62 -78.36,44.77 -63.69,0 -55.96,-7.72 -55.96,55.97 -53.06,0 -44.78,-8.13 -44.78,74.63 -16.51,0 -37.31,-3.77 -37.31,14.93l0 533.58c0,18.69 20.8,14.92 37.31,14.92 0,78.55 -7.93,70.9 44.78,70.9 0,63.69 -7.73,55.97 55.96,55.97 0,53.39 -8.61,44.77 78.36,44.77 0,21.39 -4.58,44.78 14.93,44.78l537.32 0c19.51,0 14.92,-23.39 14.92,-44.78 82.76,0 74.63,8.29 74.63,-44.77 63.7,0 55.97,7.72 55.97,-55.97 52.7,0 44.78,7.65 44.78,-70.9 18.96,0 41.04,4.19 41.04,-14.92l0 -533.58c0,-19.12 -22.08,-14.93 -41.04,-14.93 0,-82.76 8.28,-74.63 -44.78,-74.63 0,-63.69 7.73,-55.97 -55.97,-55.97 0,-53.06 8.13,-44.77 -74.63,-44.77 0,-21.39 4.59,-44.78 -14.92,-44.78l-537.32 0c-8.74,0 -14.93,6.19 -14.93,14.93z"/>
    <path class="fil1" d="M432.09 491.79c68.08,0 59.7,8.39 59.7,-55.97l212.69 0c0,64.36 -8.39,55.97 59.7,55.97l0 212.69c-68.37,0 -59.7,-8.67 -59.7,59.7l-212.69 0c0,-68.37 8.67,-59.7 -59.7,-59.7l0 -212.69zm44.77 -130.59l0 41.04c-87.23,0 -74.62,-12.6 -74.62,74.63 -30.67,0 -59.71,-5.96 -59.71,14.92l0 216.42c0,20.88 29.04,14.92 59.71,14.92 0,83.75 -13.01,70.9 74.62,70.9 0,30.66 -5.95,59.7 14.93,59.7l216.42 0c20.88,0 14.93,-29.04 14.93,-59.7 82.36,0 70.89,11.46 70.89,-70.9 30.66,0 59.7,5.96 59.7,-14.92l0 -216.42c0,-20.88 -29.04,-14.92 -59.7,-14.92 0,-87.63 12.85,-74.63 -70.89,-74.63 0,-28.43 5.63,-55.97 -14.93,-55.97l-216.42 0c-8.73,0 -14.93,6.19 -14.93,14.93z"/>
    <path class="fil1" d="M820.15 305.23c0,87.22 -12.6,74.62 74.63,74.62 22.09,0 14.92,-35.66 14.92,-74.62 0,-22.1 -35.66,-14.93 -74.63,-14.93 -8.73,0 -14.92,6.19 -14.92,14.93z"/>
   </g>
  </g>
 </g>
</svg>
