<?xml version="1.0" encoding="UTF-8"?>
<!DOCTYPE svg PUBLIC "-//W3C//DTD SVG 1.1//EN" "http://www.w3.org/Graphics/SVG/1.1/DTD/svg11.dtd">
<!-- Creator: CorelDRAW 2018 (64 Bit Versão de avaliação) -->
<svg xmlns="http://www.w3.org/2000/svg" xml:space="preserve" width="12mm" height="12mm" version="1.1" style="shape-rendering:geometricPrecision; text-rendering:geometricPrecision; image-rendering:optimizeQuality; fill-rule:evenodd; clip-rule:evenodd"
viewBox="0 0 1200 1200"
 xmlns:xlink="http://www.w3.org/1999/xlink">
 <defs>
  <style type="text/css">
   <![CDATA[
    .fil0 {fill:#0077B7}
    .fil1 {fill:white}
   ]]>
  </style>
 </defs>
 <g id="Camada_x0020_1">
  <metadata id="CorelCorpID_0Corel-Layer"/>
  <polygon class="fil0" points="74.3,0 1125.7,0 1125.7,74.3 1200,74.3 1200,1125.7 1125.7,1125.7 1125.7,1200 74.3,1200 74.3,1125.7 -0,1125.7 -0,74.3 74.3,74.3 "/>
  <g id="_1714320717024">
   <polygon class="fil1" points="489.49,1023.61 673.67,1023.61 673.67,655.25 710.51,655.25 710.51,618.42 857.85,618.42 857.85,655.25 894.69,655.25 894.69,1023.61 1078.86,1023.61 1078.86,507.91 1042.03,507.91 1042.03,471.08 1005.19,471.08 1005.19,434.24 747.34,434.24 747.34,471.08 710.51,471.08 710.51,507.91 673.67,507.91 673.67,434.24 489.49,434.24 "/>
   <polygon class="fil1" points="121.14,1023.61 342.15,1023.61 342.15,434.24 121.14,434.24 "/>
   <polygon class="fil1" points="157.97,213.23 121.14,213.23 121.14,360.57 157.97,360.57 157.97,397.4 305.31,397.4 305.31,360.57 342.15,360.57 342.15,213.23 305.31,213.23 305.31,176.39 157.97,176.39 "/>
  </g>
 </g>
</svg>
