<?xml version="1.0" encoding="UTF-8"?>
<!DOCTYPE svg PUBLIC "-//W3C//DTD SVG 1.1//EN" "http://www.w3.org/Graphics/SVG/1.1/DTD/svg11.dtd">
<!-- Creator: CorelDRAW 2018 (64 Bit Versão de avaliação) -->
<svg xmlns="http://www.w3.org/2000/svg" xml:space="preserve" width="23.1179mm" height="26.7424mm" version="1.1" style="shape-rendering:geometricPrecision; text-rendering:geometricPrecision; image-rendering:optimizeQuality; fill-rule:evenodd; clip-rule:evenodd"
viewBox="0 0 1385.05 1602.21"
 xmlns:xlink="http://www.w3.org/1999/xlink">
 <defs>
  <style type="text/css">
   <![CDATA[
    .fil0 {fill:#FF9830}
   ]]>
  </style>
 </defs>
 <g id="Camada_x0020_1">
  <metadata id="CorelCorpID_0Corel-Layer"/>
  <path class="fil0" d="M596.63 139.29c-0.1,1.68 -181.88,167.26 -149.87,198.14 76.04,-30.71 327.6,-198.57 143.64,0.07 -1166.33,1259.43 71.75,4 -1.92,298.27 -37.12,148.28 -362.56,368.77 -420.16,558.39 -37.63,123.88 -142.17,257.25 -168.33,408.06 218.42,-185.09 425.1,-379.93 606.68,-583.73 77.87,-87.4 133.93,-258.28 142.39,-213.94 94.85,497.35 78.43,725.02 283.84,-134.15 37.7,-157.67 60.13,26.72 129.45,233.98 19.21,57.44 40.35,-48.79 54.19,-99.31 41.05,-149.94 9.33,-282.67 139.08,-156.22 101.22,98.65 -88.98,-379.62 -116.88,-455.46 -78.08,-212.2 -260.34,-221.65 -448.15,-161 -62.53,20.19 -120.75,58.06 -193.97,106.91z"/>
 </g>
</svg>
