<?xml version="1.0" encoding="UTF-8"?>
<!DOCTYPE svg PUBLIC "-//W3C//DTD SVG 1.1//EN" "http://www.w3.org/Graphics/SVG/1.1/DTD/svg11.dtd">
<!-- Creator: CorelDRAW 2018 (64 Bit Versão de avaliação) -->
<svg xmlns="http://www.w3.org/2000/svg" xml:space="preserve" width="57.6815mm" height="78.9985mm" version="1.1" style="shape-rendering:geometricPrecision; text-rendering:geometricPrecision; image-rendering:optimizeQuality; fill-rule:evenodd; clip-rule:evenodd"
viewBox="0 0 11727.56 16061.64"
 xmlns:xlink="http://www.w3.org/1999/xlink">
 <defs>
  <style type="text/css">
   <![CDATA[
    .fil9 {fill:#01D3EC;fill-rule:nonzero}
    .fil13 {fill:#1293C8;fill-rule:nonzero}
    .fil11 {fill:#1589C2;fill-rule:nonzero}
    .fil16 {fill:#3571C6;fill-rule:nonzero}
    .fil3 {fill:#390075;fill-rule:nonzero}
    .fil21 {fill:#3E5ACB;fill-rule:nonzero}
    .fil7 {fill:#418BF9;fill-rule:nonzero}
    .fil12 {fill:#4792C6;fill-rule:nonzero}
    .fil14 {fill:#489CCC;fill-rule:nonzero}
    .fil10 {fill:#4EE0F2;fill-rule:nonzero}
    .fil19 {fill:#7953A2;fill-rule:nonzero}
    .fil22 {fill:#8888CE;fill-rule:nonzero}
    .fil18 {fill:#8D6CB0;fill-rule:nonzero}
    .fil15 {fill:#9C80BA;fill-rule:nonzero}
    .fil17 {fill:#A294C4;fill-rule:nonzero}
    .fil4 {fill:#AE1240;fill-rule:nonzero}
    .fil8 {fill:#B3D1FD;fill-rule:nonzero}
    .fil20 {fill:#B45C88;fill-rule:nonzero}
    .fil23 {fill:#B6143C;fill-rule:nonzero}
    .fil6 {fill:#BAA6CF;fill-rule:nonzero}
    .fil24 {fill:#F68E92;fill-rule:nonzero}
    .fil2 {fill:#F7A4A7;fill-rule:nonzero}
    .fil1 {fill:#FF4141;fill-rule:nonzero}
    .fil0 {fill:#FFCA29;fill-rule:nonzero}
    .fil5 {fill:white;fill-rule:nonzero}
   ]]>
  </style>
 </defs>
 <g id="Camada_x0020_1">
  <metadata id="CorelCorpID_0Corel-Layer"/>
  <g id="_1470037381712">
   <path class="fil0" d="M3359.79 12581l832.78 1459.14c123.8,-353.79 227.04,-707.05 307.86,-1057.85 0,0 196.3,-1062.91 -980.21,-567.84 -8.03,8.64 -16.51,17.4 -24.48,25.9 -44.2,46.9 -89.66,93.79 -135.96,140.65z"/>
   <path class="fil1" d="M7488.57 10906.29c-46.99,-0.22 -98.3,21.78 -141.24,65.73l-1745.18 1782.18c-95.66,97.86 -103.73,254.98 -18.95,326.28 527.83,444.02 724.13,1380.66 792.71,2150.9 16.33,180.3 25.46,351.74 30.19,505.22 6.28,202.97 242.25,218.56 337.61,22.95 1454.4,-2987.28 1091.07,-4335.75 869.5,-4775.28 -26.04,-52.07 -73.05,-78.17 -124.63,-77.99z"/>
   <path class="fil2" d="M6535.26 15732.31c4.33,26.88 23.6,32.31 35.42,33.22 13.09,0.96 37.49,-2.48 53.9,-36.13 934.97,-1913.65 1096.01,-3120.29 1066.55,-3795.48 -5.43,-122.68 -17.08,-232.59 -32.82,-330.63 -18.32,-114.06 -42.15,-212.08 -67.85,-295.01 159.3,1891.69 -787.83,3760.81 -885.66,3938.69 -63.94,116.17 -132.48,119.16 -190.08,84.07 10.19,139.98 16.29,271.87 19.7,391.5 0.1,3.5 0.35,6.73 0.83,9.76z"/>
   <path class="fil3" d="M6441.61 14692.39c-110.93,-690.64 -343.58,-1415.46 -822.39,-1778.83l1850.89 -1890.31c77.02,134.09 199.57,420.62 221.02,910.67 29.46,675.19 -131.59,1881.83 -1066.55,3795.48 -16.41,33.65 -40.81,37.08 -53.9,36.13 -13.07,-1.04 -35.42,-7.62 -36.25,-42.98 -8.34,-291.19 -32.67,-655.67 -92.81,-1030.16zm-1261.72 -1683.54l151.41 83.77c769.47,426.11 923.93,1873.51 947.51,2698.31 4.51,151.63 94.95,260.24 225.4,270 130.45,9.64 266,-82 337.32,-228.08 1892.75,-3874.2 805.03,-5088.61 757.8,-5138.44l-75.43 -79.54 -2344.01 2393.98z"/>
   <path class="fil1" d="M3790.62 8657.17c-231.41,6.69 -657.99,86.37 -1241.77,479.48 -623.96,420.66 -1427.66,1199.44 -2364.18,2629.89 -118.74,181.38 9.17,387.5 183.57,294.18 475.78,-254.04 1171.57,-567.33 1813.5,-636.99 296.52,-32.12 581.34,-12 827.68,89.93 101.43,41.84 230.07,-41.8 266.08,-175.93l654.98 -2445.83c33.73,-126.46 -31.37,-237.9 -139.86,-234.73z"/>
   <path class="fil4" d="M2202.32 11277.5c228.95,-24.24 452.3,-19.01 658.52,28.63 21.59,-99.77 45.28,-201.61 70.96,-305.48 69.49,-279.82 154.13,-574.47 251.34,-875.8 87.87,-272.63 187.9,-556.33 297.43,-843.54 59.14,-154.85 121.24,-311.46 185.65,-468.22 -167.67,19.03 -409.36,77.89 -714.63,235.56 -23.46,12.14 -47.51,24.95 -72.18,38.49 -274.13,536.65 -561.27,1438.17 -677.08,2190.36z"/>
   <path class="fil3" d="M3132.71 11399.9c-832.03,-395.67 -2104.81,156.59 -2815.17,537.95 -30.17,16.2 -46.74,-0.49 -53.86,-11.85 -7.24,-11.43 -16.16,-35.15 4.15,-66.36 1160,-1776.78 2099.72,-2509.36 2683.75,-2810.98 423.79,-218.93 725.19,-247.44 875.82,-242.94l-694.69 2594.19zm-3128.16 615.23c6.67,41.48 20.68,80.51 42.21,114.63 71.61,113.35 207.26,142.57 337.42,72.64 707.44,-379.81 2003.76,-943.87 2737.48,-454.9l144.33 96.23 879.85 -3285.34 -103.85 -29.54c-65.02,-18.54 -1618.68,-412.37 -3966.91,3184.82 -61.89,94.72 -86.02,204.98 -70.53,301.46z"/>
   <path class="fil5" d="M3215.32 14028.63c-323.27,-207.59 -477.77,-660.45 -480.56,-1291.5 -0.06,-65.61 1.26,-133.38 4.17,-203.05 5.31,-123.55 15.82,-253.19 31.62,-388.33 37.23,-324.9 103.94,-681.51 197.89,-1063.2 68.01,-275.33 150.49,-563.77 247.05,-863.56 86.61,-269.43 184.55,-548.22 293.16,-833.86 100.7,-264.37 210.21,-534.9 329.41,-810.56 378.86,-879.28 848.82,-1808.84 1399.26,-2746.51 899.35,-1531.84 1987.82,-2782.48 2996,-3711.47 1498.7,-1381.53 2820.44,-2053.1 3082.65,-1884.92 270.53,174.26 296.21,1675.2 -189.47,3660.33 -5.75,23.6 -11.51,47.23 -17.49,70.94 -308.82,1239.27 -815.93,2661.22 -1584.87,4063.59 -74.41,135.59 -151.02,271.2 -230.44,406.1 -520.02,885.87 -1066.88,1701.69 -1613.25,2422.67 -31.96,41.98 -63.86,83.66 -95.86,125.1 -20.74,27.39 -41.5,54.14 -62.11,80.59 -160.56,206.41 -320.71,404.19 -480.03,593.09 -194.45,230.72 -387.91,448.03 -578.64,650.94 -211.94,225.66 -420.68,432.76 -624.55,621.09 -189.21,174.4 -374.41,331.93 -554.16,471.35 -85.94,66.69 -170.48,129.51 -253.94,187.7 -171.92,121.12 -338.4,223.71 -497.39,307.33 -539.19,282.97 -995.33,343.99 -1318.46,136.14z"/>
   <path class="fil6" d="M2953.49 12842.01l1404.1 958.94c73.17,-30.66 148.93,-66.59 227.19,-107.47 123.27,-64.59 251.26,-141.22 383.66,-229.52 -182.46,-323.39 -486.03,-644.17 -877.1,-896.7 -64.88,-41.86 -130.35,-80.72 -196.06,-116.44 -121.46,-66.04 -201.04,-190.97 -225.27,-341.86 -13.64,-84.93 -9.76,-178.04 14.13,-273.5 255.18,-1020.12 567.25,-1967.79 917.89,-2845.08l-643.66 -252.86c-86.53,205.69 -169.22,411.71 -246.74,614.79 -107.07,280.68 -204.8,558 -290.7,824.14 -94.46,293.04 -176.6,579.25 -244.06,850.53 -153.95,621.98 -231.23,1164.1 -229.77,1611.6 0.22,70.57 2.32,138.44 6.4,203.44zm1085.54 -4293.54l640.12 251.52c443.05,-1078.73 943.67,-2048.75 1466.86,-2914.25 57.82,-95.5 168.81,-81.14 183.41,9.7 1.52,9.52 1.95,20.05 1.16,31.35 -11.1,153.81 -4.94,304.47 18.14,448.13 64.51,401.69 261.06,747.96 579.82,953.27 175.42,113.06 370.75,172.33 572.9,182.56 -127.09,-28.46 -247.96,-78.64 -359.4,-150.43 -297.98,-192.09 -494.87,-516.52 -559.55,-919.21 -4.03,-25.03 -7.58,-50.52 -10.63,-76.24 -50.99,-437.74 55.48,-907.6 299.79,-1323.02l0 0c244.39,-415.44 597.38,-726.41 994.01,-875.82 396.69,-149.68 789.41,-119.75 1106.08,84.15 36.27,23.2 70.96,48.69 103.98,75.96 -72.99,-84.19 -157,-157.77 -252.25,-219.01 -352.94,-227.12 -786,-236.78 -1193.87,-68.35 -61.97,25.58 -108.43,-13.58 -117.46,-69.9 -5.63,-35.03 3.31,-76.61 32,-113.29 431.33,-552.55 857.3,-1039.66 1259.66,-1463.37 50.85,-53.7 101.17,-106.11 151.14,-157.55 -145.51,-68.01 -296.72,-131.69 -442.31,-181.72 -39.59,35.48 -79.5,71.89 -119.37,108.57 -803.3,738.97 -1969.48,1974.58 -2964.04,3664.81 -534.54,908.64 -1002.27,1824.39 -1390.19,2722.15z"/>
   <path class="fil1" d="M11298.36 146.39c-7.1,0.1 -14.39,0.3 -21.94,0.61 -14.31,0.79 -29.03,2.05 -45.05,4.39 -8.42,0.94 -16.75,2.38 -25.35,3.68 -59.84,9.94 -129.76,28.77 -208.52,56.48 -11.39,3.82 -22.71,7.89 -34.24,12.3 -81.37,29.91 -171.37,68.33 -269.27,115.52 -13.85,6.75 -28.16,13.7 -42.41,20.9 -32.69,15.92 -66.18,33 -100.72,51.07 -14.9,7.75 -30.19,16.18 -45.75,24.48 -94.26,50.16 -193.96,107.47 -298.79,171.01 -15.39,9.29 -30.74,18.85 -46.56,28.59 -96.7,59.25 -197.34,124.45 -301.35,194.59 -18.6,12.28 -37.37,24.89 -56.07,38.02 -103.24,70.35 -209.78,146.12 -319.19,226.86 -20.13,14.82 -40.28,29.62 -60.55,45.05 -242.82,181.17 -498.67,386.44 -762.47,615.19 -22.14,19.15 -44,38.45 -66.1,57.84 -44.22,38.55 -88.56,77.95 -133.27,118.05 -22.24,19.99 -44.44,40.24 -66.87,60.59 -6.42,5.71 -13.01,12.02 -19.66,17.81l0.22 -0.1c189.57,54.16 395.23,138.32 590.08,230.03 178.15,83.68 347.51,173.53 487.39,251.99 553.87,167.74 1038.86,502.35 1409.71,978.09l105.83 136.16 232.39 297.94c476,-1900.45 484.93,-3371.85 256.56,-3685.97 -8.25,-11.69 -17.16,-21.51 -26.11,-29.97 -6.36,-6.1 -13.07,-11.24 -19.92,-15.8 -26.47,-16.98 -64.27,-25.33 -112.01,-25.41z"/>
   <path class="fil5" d="M10966.26 3673l125.38 160.4c4.29,-17.36 8.56,-34.99 12.65,-52.25l-126.04 -161.47c-3.96,18.03 -7.95,35.8 -12,53.33z"/>
   <path class="fil2" d="M10978.26 3619.67l126.04 161.47c375.1,-1541.36 418.51,-2679.21 336.67,-3188.78 -1.65,-10.25 -3.54,-20.41 -5.37,-30.33 -31.7,416.84 -95.03,1101.46 -204.21,1756.57 -84.99,511.73 -179.55,969.78 -253.13,1301.08z"/>
   <path class="fil4" d="M8512.63 2052.94c148.93,51.01 303.39,116.76 451.89,186.42 528.84,-524.64 1613.78,-1567.18 2246.64,-1942.56 -361.01,56.48 -1387.94,574.81 -2698.53,1756.14z"/>
   <path class="fil3" d="M11440.97 592.36c83.73,521.34 36.27,1701.06 -363.47,3297.7 -269.92,1079.26 -800.86,2721.52 -1798.15,4416.57 -534.86,909.23 -1105.92,1759.01 -1697.44,2525.85 -175.95,228.47 -356.78,452.7 -537.49,666.79 -190.77,225.68 -383.31,441.93 -572.33,642.72 -207.67,220.39 -414.85,426.05 -615.92,611.11 -461.14,423.79 -888.94,740.21 -1271.39,940.38 -519,271.71 -925.51,317.07 -1208.55,134.86 -282.93,-182.25 -427.27,-582.48 -429.14,-1189.76 -1.46,-447.5 75.82,-989.62 229.77,-1611.6 67.46,-271.28 149.6,-557.49 244.06,-850.53 85.9,-266.14 183.63,-543.46 290.7,-824.14 101.09,-264.82 211.04,-534.76 326.71,-802.22 388.11,-898.33 856.1,-1814.47 1390.9,-2723.76 994.56,-1690.23 2160.74,-2925.84 2964.04,-3664.81 1581.82,-1455.25 2777.17,-1961.18 2939.11,-1856.64 44.2,28.36 82.73,126.56 108.59,287.49zm-8712.43 12605.72c68.94,429.3 233.41,729.6 491.43,895.87 348.69,224.5 829.39,179.24 1428.68,-134.53 406.63,-212.83 857.67,-545.6 1340.34,-989.15 207.38,-190.93 420.68,-402.63 634.35,-629.36 193.54,-205.55 390.57,-426.86 585.61,-657.73 184.41,-218.42 368.84,-447.17 548.16,-679.81 601.41,-779.74 1181.65,-1643.12 1724.79,-2566.37 1021.13,-1735.52 1564.33,-3415.77 1840.54,-4519.81 465.61,-1860.14 541.88,-3636.08 166.25,-3878.05 -369.1,-237.82 -1847.47,634.89 -3228.43,1905.31 -821.62,755.95 -2014.96,2020.35 -3033.45,3751.66 -543.08,922.99 -1018.53,1853.83 -1413.11,2767.15 -117.88,272.63 -230.03,547.94 -333.13,818.04 -109.53,287.2 -209.56,570.91 -297.43,843.54 -97.21,301.33 -181.85,595.98 -251.34,875.8 -161.15,650.98 -242.03,1222.21 -240.46,1697.95 0.53,182.29 13.01,348.85 37.21,499.49z"/>
   <path class="fil7" d="M6942.97 5087.98c-356.86,606.67 -381.2,1309.05 -109.69,1788.47 89.46,157.96 211.25,292.04 363.89,390.2 56.58,36.52 115.63,67.05 176.52,91.23 598.16,239.79 1366.08,-102.17 1797.11,-835.02 28.69,-48.37 54.9,-97.12 78.99,-146.71 311.5,-634.41 277.14,-1342.07 -62.28,-1782.08 -75.17,-97.71 -165.89,-182.6 -270.71,-250.16 -615.31,-396.3 -1499.01,-63.17 -1973.83,744.07z"/>
   <path class="fil3" d="M9420.29 5215.84c58.31,363.16 -3.56,774.88 -188.53,1151.64 -23.36,48.12 -49.57,96.78 -77.65,144.37 -415.88,706.85 -1176.73,1060.47 -1770.13,822.53 -60.02,-23.97 -118.53,-54.14 -173.75,-89.95 -146.94,-94.42 -267.52,-223.71 -358.38,-384.23 -276.53,-488.28 -234.16,-1179.68 108.02,-1761.59 226.13,-384.31 552.92,-672.24 919.96,-810.8 367.19,-138.36 730.92,-110.66 1024.08,77.93 101.6,65.75 191.28,148.66 266.49,246.62 129.84,168.39 213.4,376.22 249.9,603.46zm-2771.03 1193.87c27.85,173.45 82.83,336.83 165.52,482.92 93.73,165.58 218.02,298.77 369.36,396.1 56.99,36.82 117.19,68.03 179.22,92.67 611.59,245.16 1396.03,-119.31 1824.35,-847.68 29.05,-49.2 55.99,-99.34 80.09,-148.95 310.04,-631.3 284.6,-1358.17 -63.15,-1809.04 -77.42,-101.03 -169.95,-186.46 -274.78,-254.02 -302.21,-194.61 -676.86,-223.22 -1055.33,-80.55 -378.55,142.69 -715.33,439.47 -948.41,835.87 -250.38,425.78 -345.01,908.48 -276.88,1332.69z"/>
   <path class="fil7" d="M6942.97 5087.98c-356.86,606.67 -381.2,1309.05 -109.69,1788.47 89.46,157.96 211.25,292.04 363.89,390.2 56.58,36.52 115.63,67.05 176.52,91.23 598.16,239.79 1366.08,-102.17 1797.11,-835.02 28.69,-48.37 54.9,-97.12 78.99,-146.71 311.5,-634.41 277.14,-1342.07 -62.28,-1782.08 -75.17,-97.71 -165.89,-182.6 -270.71,-250.16 -615.31,-396.3 -1499.01,-63.17 -1973.83,744.07z"/>
   <path class="fil8" d="M8477.94 7123.47c244.93,-149.68 460.06,-372.21 621.58,-646.63 214.97,-365.32 308.65,-778.68 263.66,-1163.94 -2.66,-22.67 -5.73,-44.89 -9.27,-66.91 -51.38,-319.86 -197.52,-583.7 -418.32,-756.05 -19.48,-5.55 -38.89,-10.57 -58.68,-14.9 45.69,42.15 87.3,87.93 125.08,137.24 132.24,171.11 218.16,383.01 255.41,615.01 58.58,364.65 -2.81,779.49 -193.13,1167.09 -24.09,49.71 -50.3,98.34 -78.76,146.61 -139.8,237.41 -314.61,433.67 -507.56,582.48z"/>
   <path class="fil3" d="M9353.91 5245.99c3.54,22.02 6.61,44.24 9.27,66.91 44.99,385.26 -48.69,798.62 -263.66,1163.94 -214.93,365.4 -525.61,639.1 -874.32,770.61 -349.05,131.55 -694.57,105.13 -973.03,-74.35 -278.5,-179.32 -456.12,-489.91 -501.54,-875.48 -44.99,-385.2 48.65,-798.71 263.66,-1164.06 214.9,-365.32 525.43,-639.02 874.46,-770.38 348.93,-131.57 694.36,-105.09 972.83,74.31 262.3,168.69 435.44,454.37 492.33,808.51zm-2771.42 1195.11c64.67,402.69 261.57,727.12 559.55,919.21 316.64,203.84 709.41,233.87 1106.04,84.44 396.71,-149.56 749.63,-460.55 994.19,-876.11 244.16,-415.17 350.76,-885.22 299.57,-1322.91 -51.24,-437.9 -253.66,-791.53 -570.1,-995.56 -316.66,-203.91 -709.39,-233.83 -1106.08,-84.15 -396.63,149.42 -749.63,460.39 -994.01,875.82l0 0c-244.3,415.41 -350.78,885.28 -299.79,1323.02 3.05,25.72 6.61,51.22 10.63,76.24z"/>
   <path class="fil9" d="M7841.77 4820.31c-503.98,251.22 -816.33,895.75 -697.47,1439.68 58.9,269.54 212.63,463.8 413.77,560.85 205.31,98.53 459.86,96.05 713.88,-30.56 504.02,-251.05 816.52,-895.87 697.6,-1439.76 -84.52,-386.14 -363.57,-617.98 -698.84,-629.83 -136.89,-5.08 -283.04,26.72 -428.94,99.62z"/>
   <path class="fil3" d="M8959.66 5418.45c38.85,242.03 -4.23,507.15 -123.51,753.35 -128.66,265.69 -330.84,477.45 -569.02,596.12 -240.44,119.77 -488.2,130.35 -697.78,29.79 -205.1,-98.93 -348.69,-293.61 -404.33,-547.94 -115.22,-530.27 189.84,-1162.03 681.6,-1406.9l-4.84 -22.55 4.84 22.55c139.8,-69.76 280.88,-102.59 419.24,-97.59 340.96,12.32 602.51,247.96 682.84,615.56 4.29,19.03 7.87,38.35 10.98,57.62zm-1847.39 792.44c3.23,20.03 7.01,39.81 11.24,59.39 58.21,266.34 208.52,470.03 423.16,573.57 219.32,105.28 478.79,94.11 730.33,-31.21 249.29,-124.25 460.65,-345.76 595.39,-623.87 134.74,-278.14 176.68,-579.21 117.78,-848.46 -83.83,-384.82 -357.71,-631.74 -714.63,-644.43 -144.74,-5.18 -292.45,29.16 -438.59,102.15 -496.48,247.19 -811.78,870.52 -724.68,1412.86z"/>
   <path class="fil10" d="M7243.23 5725.7l92.1 -2.68c19.46,-66.69 44.75,-132.68 75.53,-195.96 54.98,-113.27 127.17,-218.69 210.68,-307.31l-126.4 3.78c-9.6,9.49 -19.09,19.19 -28.32,28.77 -105.18,140.47 -182.39,303.98 -223.59,473.4zm291.49 -8.68l1163.03 -35.05c8.25,-96.39 5.53,-192.62 -9.58,-286.72 -3.13,-19.52 -6.77,-39.1 -11.14,-58.62 -11.26,-51.89 -26.23,-100.84 -44.18,-147.16l-796 23.87c-14.94,18.2 -29.58,36.8 -43.96,55.55 -82.24,107.07 -151.96,220.25 -209.7,339.25 -17.2,35.76 -33.36,72.14 -48.47,108.88z"/>
   <path class="fil10" d="M7222.04 6163.97c2.83,17.53 6.1,35.11 9.94,52.44 11.16,50.87 26.15,99.54 44.67,145.09l84.54 -0.22c-29.68,-56.81 -49.71,-121.77 -60.89,-191.34 -6.26,-39.06 -9.74,-79.56 -10.49,-120.71l-79.46 -0.08c1.77,38.57 5.63,77.04 11.69,114.83zm163.22 197.38l1063.59 -1.18c67.18,-96.78 122.44,-202.28 164.24,-312.37l-1181.16 1.06c-21.55,99.42 -35.93,202.2 -46.66,312.5z"/>
   <path class="fil11" d="M7968.49 6781.9c93.36,-10.49 188.84,-39.36 282.87,-86.29 151.14,-75.31 286.51,-191.02 395.21,-335.67l-197.72 0.22c-121.99,176.09 -282.43,323.21 -469.13,416.25 -3.74,1.79 -7.48,3.7 -11.22,5.49zm399.82 -1942.64c114.02,82.08 206,200.65 264.53,350.21l174.44 -4.92c-93.57,-181.83 -248.37,-304.45 -438.98,-345.29zm244.77 1208.53l206.79 -0.12c47.86,-122.54 75.65,-248.21 82.97,-371.74l-205.1 6.04c-10.69,123.92 -39.79,247.48 -84.66,365.83z"/>
   <path class="fil12" d="M8697.75 5681.96l205.1 -6.04c4.7,-77.48 0.98,-154.01 -10.96,-228.34 -2.91,-18.01 -6.22,-35.58 -10.02,-53.21 -16.69,-76.57 -41.92,-146.79 -74.58,-209.82l-174.44 4.92c17.95,46.32 32.92,95.27 44.18,147.16 4.37,19.52 8.01,39.1 11.14,58.62 15.11,94.09 17.83,190.32 9.58,286.72z"/>
   <path class="fil12" d="M8448.85 6360.16l197.72 -0.22c49.59,-66.16 93.75,-138.54 131.06,-215.7 15.66,-31.94 29.58,-64.15 42.25,-96.57l-206.79 0.12c-41.8,110.1 -97.06,215.6 -164.24,312.37z"/>
   <path class="fil3" d="M8891.89 5447.58c35.93,223.75 -3.98,468.99 -114.26,696.66 -118.9,245.71 -305.99,441.64 -526.26,551.37 -222.31,110.79 -451.61,120.59 -645.53,27.63 -189.63,-91.45 -322.5,-271.53 -373.86,-506.85 -106.98,-490.17 175.58,-1074.81 630.36,-1301.38 129.41,-64.47 259.88,-94.89 387.89,-90.25 315.34,11.3 557.41,229.34 631.64,569.61 3.8,17.63 7.12,35.19 10.02,53.21zm-1847.33 792.16c3.46,21.53 7.42,42.84 12.04,63.84 62.36,285.44 223.34,503.74 453.48,614.7 235.18,112.9 513.05,100.95 782.68,-33.43 267.2,-133.13 493.85,-370.62 638.15,-668.58 144.5,-298.1 188.86,-620.78 126.34,-909.35 -90.19,-412.32 -383.53,-676.84 -765.83,-690.4 -155.33,-5.71 -313.66,31.07 -470.49,109.2 -531.83,265.06 -869.7,932.87 -776.36,1514.01z"/>
   <path class="fil13" d="M7289.81 6049.21l142.12 -0.37c4.9,-22.45 10.17,-44.51 15.72,-66.97 23.02,-90.96 52.09,-179.18 87.08,-264.86l-199.39 6c-25.8,88.69 -41.21,178.8 -44.91,266.28 -0.81,20.13 -1.04,40.03 -0.61,59.92zm71.38 312.05c6.47,12.46 13.36,24.5 20.7,36.05 1.06,-12.22 2.2,-24.21 3.38,-35.97l-24.07 -0.08zm260.35 -1141.52l215.31 -6.4c71.67,-87.02 151.86,-169.91 242.54,-255.99 -129.61,15.86 -262.52,85.84 -379.39,186.93 -27.08,23.69 -53.29,48.88 -78.46,75.47z"/>
   <path class="fil14" d="M7335.33 5723.01l199.39 -6c15.11,-36.74 31.27,-73.11 48.47,-108.88 57.74,-119 127.46,-232.19 209.7,-339.25 14.37,-18.75 29.01,-37.35 43.96,-55.55l-215.31 6.4c-83.5,88.63 -155.7,194.04 -210.68,307.31 -30.78,63.27 -56.07,129.27 -75.53,195.96z"/>
   <path class="fil14" d="M7300.3 6169.92c11.18,69.57 31.21,134.53 60.89,191.34l24.07 0.08c10.74,-110.3 25.11,-213.07 46.66,-312.5l-142.12 0.37c0.75,41.15 4.23,81.65 10.49,120.71z"/>
   <polygon class="fil15" points="2740.8,12736.8 2783.76,12766.2 2793.8,12753.35 2750.8,12724.05 "/>
   <polygon class="fil16" points="2627.29,12966.75 2695.99,12878.71 2695.99,12878.71 "/>
   <polygon class="fil3" points="2695.99,12878.71 2783.86,12766.26 2783.76,12766.2 2695.99,12878.71 "/>
   <path class="fil17" d="M4554.05 14008.62l0.12 0.14 0.91 -2.05c-0.08,0.04 -0.08,0.04 -0.16,0.06l-0.87 1.85z"/>
   <polygon class="fil18" points="2953.49,12842.01 4357.59,13800.95 4357.59,13800.95 2953.49,12842.01 "/>
   <path class="fil3" d="M2793.8 12753.35l0.02 0.1 10.43 -13.42 149.23 101.98 0 0 -149.23 -101.98 -10.45 13.32zm1563.78 1047.6l222.33 151.9 -24.99 53.92c0.08,-0.02 0.08,-0.02 0.16,-0.06l24.93 -53.84 -222.43 -151.92 0 0z"/>
   <polygon class="fil19" points="2783.76,12766.2 2783.86,12766.26 2793.82,12753.45 2793.8,12753.35 "/>
   <polygon class="fil20" points="2783.86,12766.26 4378.67,13855.48 4366.82,13880.77 4507.78,13977.09 4526.44,13936.87 2793.82,12753.45 "/>
   <path class="fil3" d="M4413.68 14025.5l-155.96 335.63c-33.24,71.38 -88.1,129.33 -146.81,155.07 -24.58,10.67 -71.69,24.64 -111.23,-2.32l-1440.23 -983.74c-39.63,-26.94 -46.95,-78.15 -47.78,-106.25 -2.07,-67.09 25.35,-143.97 73.32,-205.31l225.05 -288.3 1603.65 1095.22zm-2151.43 -466.2c16.43,102.27 63.72,183.86 136.63,233.67l1440.31 983.62c88.02,60.2 200.67,65.22 317.38,14.37 132.74,-58.07 249.88,-179.47 321.38,-333.38l268.32 -577.36 -1947.87 -1330.3 -387.19 496.01c-103.24,132.32 -159.77,295.15 -155.15,446.93 0.73,22.93 2.79,45.14 6.2,66.42z"/>
   <path class="fil3" d="M3845.31 8693.09l916.97 360.26c815.42,320.3 1552.5,797.4 2190.83,1417.96l625.52 608.4 124.08 -161.19 -625.5 -608.32c-650.49,-632.58 -1401.7,-1118.85 -2232.71,-1445.27l-916.99 -360.26 -82.2 188.41z"/>
   <path class="fil21" d="M6759.74 6363.28c42.41,264.05 148.99,489.95 308.88,657.89 -46.36,-108.16 -79.56,-224.87 -99.22,-347.24 -46.34,-288.57 -17.53,-608.91 90.84,-922.26 90.72,-427.78 372.68,-830.48 756.4,-1023.82 335.13,-234.26 716.65,-329.01 1060.27,-252.8 -37.98,-35.32 -78.93,-67.74 -122.13,-97.59 -257.52,-123.66 -560.72,-129.47 -866.02,-14.27 -349.03,131.36 -659.56,405.07 -874.46,770.38 -215.01,365.36 -308.65,778.86 -263.66,1164.06 2.56,22.18 5.61,43.88 9.11,65.65z"/>
   <path class="fil22" d="M8754.78 4377.45c43.2,29.85 84.15,62.28 122.13,97.59 19.78,4.33 39.2,9.35 58.68,14.9 -23.79,-18.66 -48.61,-36.09 -74.01,-52.46 -34.67,-22.3 -70.18,-42.35 -106.8,-60.04z"/>
   <path class="fil3" d="M6671.12 6401.64c27.65,172.21 82.04,333.15 162.16,474.8 75.63,98.26 166.31,183.29 271.93,251.24 7.4,4.86 14.96,9.45 22.53,13.95 -21.67,-38.75 -41.42,-78.93 -59.12,-120.46 -159.89,-167.94 -266.47,-393.84 -308.88,-657.89 -3.5,-21.78 -6.55,-43.47 -9.11,-65.65 -44.99,-385.2 48.65,-798.71 263.66,-1164.06 214.9,-365.32 525.43,-639.02 874.46,-770.38 305.3,-115.2 608.5,-109.38 866.02,14.27 36.62,17.69 72.14,37.74 106.8,60.04 25.39,16.37 50.22,33.79 74.01,52.46 88.97,25.15 174.97,62.28 256.63,111.99 -1.63,-2.5 -3.07,-5.37 -4.7,-7.87 -75.17,-97.71 -165.89,-182.6 -270.71,-250.16 -615.31,-396.3 -1499.01,-63.17 -1973.83,744.07 -251.5,427.59 -337.85,902.72 -271.85,1313.66z"/>
   <path class="fil3" d="M7060.24 5751.66c45.93,-132.66 106.21,-264.27 181.09,-391.44 155.74,-264.96 355.46,-478.46 575.3,-632.37 -383.72,193.33 -665.68,596.04 -756.4,1023.82z"/>
   <path class="fil23" d="M5829.94 13113.42c339.17,393.76 518.41,998.38 611.68,1578.97 22.75,141.71 40.44,281.98 54,417.37 47.19,-275.64 97.61,-722.89 29.72,-1145.64 -1.89,-11.69 -3.8,-23.12 -5.86,-34.71 -1.52,-8.48 -2.89,-16.9 -4.23,-25.33 -79.11,-492.55 61.54,-1047.58 366.54,-1506 189.17,-284.26 413.75,-654.19 667,-1129.09 -112.51,141.02 -226.19,279.58 -339.84,414.19 -195.04,230.87 -392.07,452.17 -585.61,657.73 -213.66,226.74 -426.96,438.43 -634.35,629.36 -53.35,49.04 -106.35,96.76 -159.05,143.15z"/>
   <path class="fil3" d="M5713.8 13214.1c173.71,214.19 556.13,761.5 684.18,1558.84 30.23,188.27 46.36,390.24 42.11,605.39 0,0 27.18,-103.61 55.53,-268.58 -13.56,-135.39 -31.25,-275.66 -54,-417.37 -93.26,-580.59 -272.5,-1185.21 -611.68,-1578.97 -38.91,34.3 -77.69,67.85 -116.13,100.68z"/>
   <path class="fil3" d="M5626.15 13113.24c0,0 33.81,34.44 87.65,100.86 38.45,-32.84 77.22,-66.38 116.13,-100.68 52.7,-46.4 105.7,-94.11 159.05,-143.15 207.38,-190.93 420.68,-402.63 634.35,-629.36 193.54,-205.55 390.57,-426.86 585.61,-657.73 113.65,-134.62 227.33,-273.18 339.84,-414.19 27.18,-50.93 54.71,-103.12 82.49,-156.47l-24.5 -69.33 -28.14 36.54 -38.96 -38c-233.37,315.91 -1318.48,1757.48 -1913.53,2071.52z"/>
   <path class="fil3" d="M7539.68 11041.71l38.96 38 28.14 -36.54 -22.18 -62.78c0,0 -15.9,21.94 -44.91,61.32z"/>
   <path class="fil3" d="M8299.74 2117.19c2229.6,568.02 2814.87,1856.17 2820.42,1869.31l155.8 -114.87c-23.81,-55.32 -611.86,-1362.34 -2909.1,-1947.58l-67.11 193.15z"/>
   <path class="fil1" d="M2530.81 13696.79l1337 913.13c161.62,110.36 418.2,-24.58 538.4,-283.22l173.69 -373.86 -1775.66 -1212.82 -250.73 321.24c-173.53,222.31 -184.33,525.12 -22.71,635.52z"/>
   <path class="fil24" d="M3780.39 14550.25l68.74 46.88 0.55 0.47 18.14 12.32c11.08,7.6 22.61,14.01 34.6,19.38 155.56,26.33 350.27,-103.33 450.32,-318.64l155.03 -333.58 -140.96 -96.31 -161.96 348.52c-94.58,203.58 -273.62,330.1 -424.46,320.95z"/>
  </g>
 </g>
</svg>
