<?xml version="1.0" encoding="UTF-8"?>
<!DOCTYPE svg PUBLIC "-//W3C//DTD SVG 1.1//EN" "http://www.w3.org/Graphics/SVG/1.1/DTD/svg11.dtd">
<!-- Creator: CorelDRAW 2018 (64 Bit Versão de avaliação) -->
<svg xmlns="http://www.w3.org/2000/svg" xml:space="preserve" width="38.0074mm" height="48.1056mm" version="1.1" style="shape-rendering:geometricPrecision; text-rendering:geometricPrecision; image-rendering:optimizeQuality; fill-rule:evenodd; clip-rule:evenodd"
viewBox="0 0 2339.62 2961.24"
 xmlns:xlink="http://www.w3.org/1999/xlink">
 <defs>
  <style type="text/css">
   <![CDATA[
    .fil0 {fill:#FF1C1C}
   ]]>
  </style>
 </defs>
 <g id="Camada_x0020_1">
  <metadata id="CorelCorpID_0Corel-Layer"/>
  <path class="fil0" d="M975.31 248.56c-0.12,3.14 -305.94,306.63 -250.23,365.26 129.12,-54.97 554.24,-360.58 245.72,4.57 -1956.12,2315.15 122.86,9.69 5.95,556.79 -58.91,275.67 -608.77,677.23 -701.43,1029.45 -60.54,230.1 -235.23,475.87 -275.31,756.6 367.91,-338.79 715.41,-696.15 1019.7,-1070.99 130.49,-160.76 221.11,-478.05 236.95,-395.01 177.65,931.44 156.6,1355.97 481.39,-241.66 59.61,-293.18 103.67,51.74 228.68,440.83 34.64,107.84 67.51,-89.84 89.61,-183.73 65.58,-278.66 7.21,-527.43 233.08,-287.34 176.2,187.3 -163.96,-711.48 -214.03,-853.93 -140.13,-398.58 -452.18,-421.86 -771.57,-314.44 -106.33,35.76 -204.76,104.67 -328.49,193.59z"/>
 </g>
</svg>
