<?xml version="1.0" encoding="UTF-8"?>
<!DOCTYPE svg PUBLIC "-//W3C//DTD SVG 1.1//EN" "http://www.w3.org/Graphics/SVG/1.1/DTD/svg11.dtd">
<!-- Creator: CorelDRAW 2018 (64 Bit Versão de avaliação) -->
<svg xmlns="http://www.w3.org/2000/svg" xml:space="preserve" width="419.942mm" height="246.944mm" version="1.1" style="shape-rendering:geometricPrecision; text-rendering:geometricPrecision; image-rendering:optimizeQuality; fill-rule:evenodd; clip-rule:evenodd"
viewBox="0 0 35706.75 20997.12"
 xmlns:xlink="http://www.w3.org/1999/xlink">
 <defs>
  <style type="text/css">
   <![CDATA[
    .fil0 {fill:#CCCCCC}
   ]]>
  </style>
 </defs>
 <g id="Conteúdo_x0020_do_x0020_PowerClip">
  <metadata id="CorelCorpID_0Corel-Layer"/>
  <ellipse class="fil0" cx="23156.58" cy="8993.53" rx="20.65" ry="29.44"/>
  <ellipse class="fil0" cx="22534.26" cy="8295.93" rx="20.65" ry="29.44"/>
  <ellipse class="fil0" cx="21566.63" cy="9052.4" rx="20.65" ry="29.44"/>
  <ellipse class="fil0" cx="21212.56" cy="7558.23" rx="20.65" ry="29.44"/>
  <ellipse class="fil0" cx="7310.35" cy="14072.96" rx="20.65" ry="29.44"/>
  <ellipse class="fil0" cx="7351.66" cy="13091.67" rx="20.65" ry="29.44"/>
  <ellipse class="fil0" cx="7382.64" cy="12095.66" rx="10.33" ry="14.72"/>
  <ellipse class="fil0" cx="5572.51" cy="6470.42" rx="10.33" ry="14.72"/>
  <ellipse class="fil0" cx="3762.38" cy="845.19" rx="10.33" ry="14.72"/>
  <ellipse class="fil0" cx="10.33" cy="4465.17" rx="10.33" ry="14.72"/>
  <ellipse class="fil0" cx="17193.87" cy="14578.5" rx="10.33" ry="14.72"/>
  <ellipse class="fil0" cx="33450.32" cy="20590.33" rx="10.33" ry="14.72"/>
  <ellipse class="fil0" cx="35696.42" cy="11385.59" rx="10.33" ry="14.72"/>
  <ellipse class="fil0" cx="33470.98" cy="815.75" rx="10.33" ry="14.72"/>
  <ellipse class="fil0" cx="17955.92" cy="14.72" rx="10.33" ry="14.72"/>
  <ellipse class="fil0" cx="12702.63" cy="6440.99" rx="10.33" ry="14.72"/>
  <ellipse class="fil0" cx="7449.34" cy="12867.26" rx="10.33" ry="14.72"/>
  <ellipse class="fil0" cx="2216.71" cy="10040.36" rx="10.33" ry="14.72"/>
  <ellipse class="fil0" cx="904.03" cy="7932.36" rx="5.06" ry="7.22"/>
  <ellipse class="fil0" cx="22555.12" cy="1834.43" rx="0.2" ry="0.29"/>
  <ellipse class="fil0" cx="26404.14" cy="11408.11" rx="5.47" ry="7.79"/>
  <ellipse class="fil0" cx="30253.17" cy="20981.82" rx="10.73" ry="15.3"/>
  <ellipse class="fil0" cx="18955.77" cy="17085.92" rx="16" ry="22.8"/>
  <ellipse class="fil0" cx="25758.54" cy="1285.25" rx="21.26" ry="30.3"/>
  <ellipse class="fil0" cx="8876.73" cy="13150.54" rx="20.65" ry="29.44"/>
 </g>
</svg>
