<?xml version="1.0" encoding="UTF-8"?>
<!DOCTYPE svg PUBLIC "-//W3C//DTD SVG 1.1//EN" "http://www.w3.org/Graphics/SVG/1.1/DTD/svg11.dtd">
<!-- Creator: CorelDRAW 2018 (64 Bit Versão de avaliação) -->
<svg xmlns="http://www.w3.org/2000/svg" xml:space="preserve" width="369.341mm" height="239.636mm" version="1.1" style="shape-rendering:geometricPrecision; text-rendering:geometricPrecision; image-rendering:optimizeQuality; fill-rule:evenodd; clip-rule:evenodd"
viewBox="0 0 30291.57 19653.78"
 xmlns:xlink="http://www.w3.org/1999/xlink">
 <defs>
  <style type="text/css">
   <![CDATA[
    .fil0 {fill:#F0F0F0}
   ]]>
  </style>
 </defs>
 <g id="Conteúdo_x0020_do_x0020_PowerClip">
  <metadata id="CorelCorpID_0Corel-Layer"/>
  <circle class="fil0" transform="matrix(0.0187534 -0.0230007 -0.0230007 -0.0187534 26972.8 2852.26)" r="1474.99"/>
  <circle class="fil0" transform="matrix(0.0278323 -0.0341358 -0.0109516 -0.00892931 28261.8 2301.93)" r="1474.99"/>
  <circle class="fil0" transform="matrix(0.0278323 -0.0341358 -0.0109516 -0.00892931 27153.4 2183.16)" r="1474.99"/>
  <circle class="fil0" transform="matrix(0.0422846 -0.0123248 -0.00395412 -0.013566 27601.6 3045.64)" r="1474.99"/>
  <circle class="fil0" transform="matrix(0.00995962 -0.00290296 -0.000931345 -0.0031953 27552.5 2528.53)" r="1474.99"/>
  <ellipse class="fil0" cx="2634.63" cy="9279.56" rx="64.96" ry="20.84"/>
  <ellipse class="fil0" cx="10466.05" cy="7600.18" rx="64.96" ry="20.84"/>
  <ellipse class="fil0" cx="22206.74" cy="14312.79" rx="64.96" ry="20.84"/>
  <ellipse class="fil0" cx="26261.7" cy="7165.67" rx="64.96" ry="20.84"/>
  <ellipse class="fil0" cx="3586.01" cy="18147.52" rx="64.96" ry="20.84"/>
  <ellipse class="fil0" cx="7962.8" cy="4233.29" rx="64.96" ry="20.84"/>
  <ellipse class="fil0" cx="5880.88" cy="11890.46" rx="64.96" ry="20.84"/>
  <ellipse class="fil0" cx="14319.1" cy="3442.59" rx="64.96" ry="20.84"/>
  <ellipse class="fil0" cx="4529.55" cy="12492.18" rx="64.96" ry="20.84"/>
  <ellipse class="fil0" cx="7354.48" cy="5167.34" rx="64.96" ry="20.84"/>
  <ellipse class="fil0" cx="5272.56" cy="12824.52" rx="64.96" ry="20.84"/>
  <ellipse class="fil0" cx="13710.78" cy="4376.65" rx="64.96" ry="20.84"/>
  <circle class="fil0" transform="matrix(0.00854356 -0.00588463 0.00188794 0.00274099 7339.01 4639.77)" r="1474.99"/>
  <circle class="fil0" transform="matrix(0.00854356 -0.00588463 0.00188794 0.00274099 5257.09 12297)" r="1474.99"/>
  <circle class="fil0" transform="matrix(0.00854356 -0.00588463 0.00188794 0.00274099 13695.3 3849.07)" r="1474.99"/>
  <circle class="fil0" transform="matrix(0.00854356 -0.00588463 0.00188794 0.00274099 3905.76 12898.7)" r="1474.99"/>
  <circle class="fil0" cx="19017.17" cy="6432.43" r="43.77"/>
  <ellipse class="fil0" cx="20258.22" cy="5781.18" rx="64.96" ry="20.84"/>
  <ellipse class="fil0" cx="15447.12" cy="10629.47" rx="64.96" ry="20.84"/>
  <ellipse class="fil0" cx="19649.9" cy="6715.24" rx="64.96" ry="20.84"/>
  <circle class="fil0" transform="matrix(0.0362726 -0.0249838 0.00801544 0.0116372 19264.7 5822.87)" r="1474.99"/>
  <circle class="fil0" transform="matrix(0.00854356 -0.00588463 0.00188794 0.00274099 19634.4 6187.67)" r="1474.99"/>
  <circle class="fil0" transform="matrix(-0.00854356 -0.00588463 -0.00188794 0.00274099 16070.9 11036)" r="1474.99"/>
  <circle class="fil0" transform="matrix(0.0187534 -0.0230007 -0.0230007 -0.0187534 27880.5 194.857)" r="1474.99"/>
  <circle class="fil0" transform="matrix(0.0187534 -0.0230007 -0.0230007 -0.0187534 23020.5 7664.98)" r="1474.99"/>
  <ellipse class="fil0" cx="5267.8" cy="8303.81" rx="64.96" ry="20.84"/>
  <ellipse class="fil0" cx="8784.26" cy="17443.89" rx="64.96" ry="20.84"/>
  <ellipse class="fil0" cx="9392.58" cy="18377.95" rx="64.96" ry="20.84"/>
  <circle class="fil0" transform="matrix(-0.0362726 -0.0249838 -0.00801544 0.0116372 9777.82 17485.6)" r="1474.99"/>
  <circle class="fil0" transform="matrix(-0.00854356 -0.00588463 -0.00188794 0.00274099 9408.05 17850.4)" r="1474.99"/>
  <circle class="fil0" transform="matrix(0.00854356 -0.00588463 0.00188794 0.00274099 19634.4 3133.2)" r="1474.99"/>
  <circle class="fil0" transform="matrix(0.0187534 -0.0230007 -0.0230007 -0.0187534 30247.8 2125.03)" r="1474.99"/>
  <circle class="fil0" transform="matrix(0.0187534 -0.0230007 -0.0230007 -0.0187534 22355.3 11459.5)" r="1474.99"/>
  <circle class="fil0" transform="matrix(-0.0187534 0.0230007 0.0230007 0.0187534 26113.1 10019)" r="1474.99"/>
  <ellipse class="fil0" cx="8784.26" cy="14389.42" rx="64.96" ry="20.84"/>
  <ellipse class="fil0" cx="26921.09" cy="19237.71" rx="64.96" ry="20.84"/>
  <ellipse class="fil0" cx="4659.48" cy="10424.21" rx="64.96" ry="20.84"/>
  <ellipse class="fil0" cx="9392.58" cy="15323.48" rx="64.96" ry="20.84"/>
  <circle class="fil0" transform="matrix(0.0278323 -0.0341358 -0.0109516 -0.00892931 22536 10790.4)" r="1474.99"/>
  <circle class="fil0" transform="matrix(-0.0278323 0.0341358 0.0109516 0.00892931 25932.5 10688.1)" r="1474.99"/>
  <circle class="fil0" transform="matrix(-0.0362726 -0.0249838 -0.00801544 0.0116372 9777.82 14431.1)" r="1474.99"/>
  <circle class="fil0" transform="matrix(0.0362726 -0.0249838 0.00801544 0.0116372 25927.5 19279.4)" r="1474.99"/>
  <circle class="fil0" transform="matrix(-0.00854356 -0.00588463 -0.00188794 0.00274099 9408.05 14795.9)" r="1474.99"/>
  <circle class="fil0" transform="matrix(0.00854356 -0.00588463 0.00188794 0.00274099 26297.3 19644.2)" r="1474.99"/>
  <circle class="fil0" transform="matrix(0.0187534 -0.0230007 0.0230007 0.0187534 26504 4211.62)" r="1474.99"/>
  <ellipse class="fil0" cx="20128.3" cy="12014.83" rx="64.96" ry="20.84"/>
  <ellipse class="fil0" cx="15577.05" cy="16863.12" rx="64.96" ry="20.84"/>
  <circle class="fil0" transform="matrix(0.0278323 -0.0341358 0.0109516 0.00892931 27123 3899.94)" r="1474.99"/>
  <circle class="fil0" cx="43.77" cy="9123.98" r="43.77"/>
  <ellipse class="fil0" cx="676.51" cy="9406.79" rx="64.96" ry="20.84"/>
  <circle class="fil0" transform="matrix(0.0362726 -0.0249838 0.00801544 0.0116372 291.262 8514.41)" r="1474.99"/>
  <circle class="fil0" transform="matrix(0.00854356 -0.00588463 0.00188794 0.00274099 661.039 8879.22)" r="1474.99"/>
  <circle class="fil0" cx="3435.04" cy="6408.89" r="16.53"/>
  <circle class="fil0" cx="1872.16" cy="8094.31" r="16.53"/>
  <ellipse class="fil0" cx="3674.01" cy="6515.7" rx="24.54" ry="7.87"/>
  <ellipse class="fil0" cx="1633.19" cy="7987.5" rx="24.54" ry="7.87"/>
  <circle class="fil0" transform="matrix(0.00322674 -0.00222251 0.000713039 0.00103522 3668.17 6316.44)" r="1474.99"/>
  <circle class="fil0" transform="matrix(-0.00322674 0.00222251 -0.000713039 -0.00103522 1639.03 8186.75)" r="1474.99"/>
  <ellipse class="fil0" cx="995.05" cy="5894.1" rx="24.54" ry="7.87"/>
  <circle class="fil0" cx="4429.54" cy="6777.41" r="16.53"/>
  <ellipse class="fil0" cx="4898.26" cy="6531.44" rx="24.54" ry="7.87"/>
  <ellipse class="fil0" cx="3952.83" cy="5259.83" rx="24.54" ry="7.87"/>
  <ellipse class="fil0" cx="1354.37" cy="9243.36" rx="24.54" ry="7.87"/>
  <ellipse class="fil0" cx="3007.4" cy="3988.22" rx="24.54" ry="7.87"/>
  <ellipse class="fil0" cx="1710.73" cy="7107.45" rx="24.54" ry="7.87"/>
  <ellipse class="fil0" cx="4668.51" cy="6884.22" rx="24.54" ry="7.87"/>
  <ellipse class="fil0" cx="3723.08" cy="5612.61" rx="24.54" ry="7.87"/>
  <ellipse class="fil0" cx="1584.12" cy="8890.59" rx="24.54" ry="7.87"/>
  <ellipse class="fil0" cx="2777.65" cy="4341" rx="24.54" ry="7.87"/>
  <ellipse class="fil0" cx="5178.31" cy="4042.36" rx="24.54" ry="7.87"/>
  <ellipse class="fil0" cx="1480.98" cy="7460.22" rx="24.54" ry="7.87"/>
  <circle class="fil0" transform="matrix(0.0136995 -0.00943592 0.00302728 0.00439514 4523.01 6547.19)" r="1474.99"/>
  <circle class="fil0" transform="matrix(0.00322674 -0.00222251 0.000713039 0.00103522 4662.67 6684.97)" r="1474.99"/>
  <circle class="fil0" transform="matrix(0.00322674 -0.00222251 0.000713039 0.00103522 3717.24 5413.35)" r="1474.99"/>
  <circle class="fil0" transform="matrix(-0.00322674 0.00222251 -0.000713039 -0.00103522 1589.96 9089.84)" r="1474.99"/>
  <circle class="fil0" transform="matrix(0.00322674 -0.00222251 0.000713039 0.00103522 2771.81 4141.74)" r="1474.99"/>
  <circle class="fil0" transform="matrix(0.00322674 -0.00222251 0.000713039 0.00103522 5172.46 3843.11)" r="1474.99"/>
  <circle class="fil0" transform="matrix(0.00322674 -0.00222251 0.000713039 0.00103522 1475.13 7260.97)" r="1474.99"/>
  <circle class="fil0" cx="1520.83" cy="5279.61" r="16.53"/>
  <circle class="fil0" cx="3786.37" cy="9223.58" r="16.53"/>
  <ellipse class="fil0" cx="1989.55" cy="5525.58" rx="24.54" ry="7.87"/>
  <ellipse class="fil0" cx="3317.65" cy="8977.62" rx="24.54" ry="7.87"/>
  <ellipse class="fil0" cx="1759.8" cy="5172.8" rx="24.54" ry="7.87"/>
  <circle class="fil0" transform="matrix(0.0136995 0.00943592 0.00302728 -0.00439514 1614.3 5509.84)" r="1474.99"/>
  <circle class="fil0" transform="matrix(-0.0136995 -0.00943592 -0.00302728 0.00439514 3692.9 8993.36)" r="1474.99"/>
  <circle class="fil0" transform="matrix(0.00322674 0.00222251 0.000713039 -0.00103522 1753.96 5372.06)" r="1474.99"/>
  <circle class="fil0" transform="matrix(-0.00322674 -0.00222251 -0.000713039 0.00103522 3553.24 9131.14)" r="1474.99"/>
  <circle class="fil0" cx="1520.83" cy="6433.23" r="16.53"/>
  <circle class="fil0" cx="3786.37" cy="8069.97" r="16.53"/>
  <ellipse class="fil0" cx="1989.55" cy="6679.19" rx="24.54" ry="7.87"/>
  <ellipse class="fil0" cx="3317.65" cy="7824" rx="24.54" ry="7.87"/>
  <ellipse class="fil0" cx="1759.8" cy="6326.42" rx="24.54" ry="7.87"/>
  <ellipse class="fil0" cx="3547.4" cy="8176.78" rx="24.54" ry="7.87"/>
  <circle class="fil0" transform="matrix(0.0136995 0.00943592 0.00302728 -0.00439514 1614.3 6663.45)" r="1474.99"/>
  <circle class="fil0" transform="matrix(-0.0136995 -0.00943592 -0.00302728 0.00439514 3692.9 7839.75)" r="1474.99"/>
  <circle class="fil0" transform="matrix(0.00322674 0.00222251 0.000713039 -0.00103522 1753.96 6525.67)" r="1474.99"/>
  <circle class="fil0" transform="matrix(-0.00322674 -0.00222251 -0.000713039 0.00103522 3553.24 7977.53)" r="1474.99"/>
  <circle class="fil0" cx="2925.25" cy="6221.68" r="16.53"/>
  <circle class="fil0" cx="2381.96" cy="8281.52" r="16.53"/>
  <ellipse class="fil0" cx="3393.97" cy="6467.65" rx="24.54" ry="7.87"/>
  <ellipse class="fil0" cx="1913.23" cy="8035.55" rx="24.54" ry="7.87"/>
  <circle class="fil0" transform="matrix(0.0136995 0.00943592 0.00302728 -0.00439514 3018.72 6451.9)" r="1474.99"/>
  <circle class="fil0" transform="matrix(-0.0136995 -0.00943592 -0.00302728 0.00439514 2288.49 8051.29)" r="1474.99"/>
  <circle class="fil0" transform="matrix(0.00322674 0.00222251 0.000713039 -0.00103522 3158.38 6314.12)" r="1474.99"/>
  <circle class="fil0" transform="matrix(-0.00322674 -0.00222251 -0.000713039 0.00103522 2148.83 8189.07)" r="1474.99"/>
  <circle class="fil0" cx="16.53" cy="5835.34" r="16.53"/>
  <circle class="fil0" cx="4890.26" cy="8367.55" r="16.53"/>
  <ellipse class="fil0" cx="255.5" cy="5942.15" rx="24.54" ry="7.87"/>
  <ellipse class="fil0" cx="5129.23" cy="8474.37" rx="24.54" ry="7.87"/>
  <circle class="fil0" transform="matrix(0.0136995 -0.00943592 0.00302728 0.00439514 110.004 5605.12)" r="1474.99"/>
  <circle class="fil0" transform="matrix(0.0136995 -0.00943592 0.00302728 0.00439514 4983.73 8137.33)" r="1474.99"/>
  <circle class="fil0" transform="matrix(0.00322674 -0.00222251 0.000713039 0.00103522 249.662 5742.9)" r="1474.99"/>
  <circle class="fil0" transform="matrix(0.00322674 -0.00222251 0.000713039 0.00103522 5123.39 8275.11)" r="1474.99"/>
  <circle class="fil0" cx="17343.11" cy="9305.48" r="16.53"/>
  <circle class="fil0" cx="15780.24" cy="10990.9" r="16.53"/>
  <ellipse class="fil0" cx="17582.08" cy="9412.29" rx="24.54" ry="7.87"/>
  <ellipse class="fil0" cx="15541.27" cy="10884.09" rx="24.54" ry="7.87"/>
  <circle class="fil0" transform="matrix(0.00322674 -0.00222251 0.000713039 0.00103522 17576.2 9213.04)" r="1474.99"/>
  <circle class="fil0" transform="matrix(-0.00322674 0.00222251 -0.000713039 -0.00103522 15547.1 11083.3)" r="1474.99"/>
  <ellipse class="fil0" cx="14903.12" cy="8790.69" rx="24.54" ry="7.87"/>
  <circle class="fil0" cx="18337.61" cy="9674" r="16.53"/>
  <ellipse class="fil0" cx="18806.34" cy="9428.04" rx="24.54" ry="7.87"/>
  <ellipse class="fil0" cx="17860.91" cy="8156.43" rx="24.54" ry="7.87"/>
  <ellipse class="fil0" cx="15262.44" cy="12139.96" rx="24.54" ry="7.87"/>
  <ellipse class="fil0" cx="16915.48" cy="6884.81" rx="24.54" ry="7.87"/>
  <ellipse class="fil0" cx="15618.8" cy="10004.04" rx="24.54" ry="7.87"/>
  <ellipse class="fil0" cx="18576.59" cy="9780.81" rx="24.54" ry="7.87"/>
  <ellipse class="fil0" cx="17631.16" cy="8509.2" rx="24.54" ry="7.87"/>
  <ellipse class="fil0" cx="15492.19" cy="11787.18" rx="24.54" ry="7.87"/>
  <ellipse class="fil0" cx="16685.73" cy="7237.59" rx="24.54" ry="7.87"/>
  <ellipse class="fil0" cx="19086.38" cy="6938.96" rx="24.54" ry="7.87"/>
  <ellipse class="fil0" cx="15389.05" cy="10356.82" rx="24.54" ry="7.87"/>
  <circle class="fil0" transform="matrix(0.0136995 -0.00943592 0.00302728 0.00439514 18431.1 9443.78)" r="1474.99"/>
  <circle class="fil0" transform="matrix(0.00322674 -0.00222251 0.000713039 0.00103522 18570.7 9581.56)" r="1474.99"/>
  <circle class="fil0" transform="matrix(0.00322674 -0.00222251 0.000713039 0.00103522 17625.3 8309.95)" r="1474.99"/>
  <circle class="fil0" transform="matrix(-0.00322674 0.00222251 -0.000713039 -0.00103522 15498 11986.4)" r="1474.99"/>
  <circle class="fil0" transform="matrix(0.00322674 -0.00222251 0.000713039 0.00103522 16679.9 7038.33)" r="1474.99"/>
  <circle class="fil0" transform="matrix(0.00322674 -0.00222251 0.000713039 0.00103522 19080.5 6739.7)" r="1474.99"/>
  <circle class="fil0" transform="matrix(0.00322674 -0.00222251 0.000713039 0.00103522 15383.2 10157.6)" r="1474.99"/>
  <circle class="fil0" cx="15428.9" cy="8176.21" r="16.53"/>
  <circle class="fil0" cx="17694.45" cy="12120.18" r="16.53"/>
  <ellipse class="fil0" cx="15897.63" cy="8422.17" rx="24.54" ry="7.87"/>
  <ellipse class="fil0" cx="17225.72" cy="11874.21" rx="24.54" ry="7.87"/>
  <ellipse class="fil0" cx="15667.87" cy="8069.4" rx="24.54" ry="7.87"/>
  <circle class="fil0" transform="matrix(0.0136995 0.00943592 0.00302728 -0.00439514 15522.4 8406.43)" r="1474.99"/>
  <circle class="fil0" transform="matrix(-0.0136995 -0.00943592 -0.00302728 0.00439514 17601 11890)" r="1474.99"/>
  <circle class="fil0" transform="matrix(0.00322674 0.00222251 0.000713039 -0.00103522 15662 8268.65)" r="1474.99"/>
  <circle class="fil0" transform="matrix(-0.00322674 -0.00222251 -0.000713039 0.00103522 17461.3 12027.7)" r="1474.99"/>
  <circle class="fil0" cx="15428.9" cy="9329.82" r="16.53"/>
  <circle class="fil0" cx="17694.45" cy="10966.56" r="16.53"/>
  <ellipse class="fil0" cx="15897.63" cy="9575.79" rx="24.54" ry="7.87"/>
  <ellipse class="fil0" cx="17225.72" cy="10720.6" rx="24.54" ry="7.87"/>
  <ellipse class="fil0" cx="15667.87" cy="9223.01" rx="24.54" ry="7.87"/>
  <ellipse class="fil0" cx="17455.48" cy="11073.37" rx="24.54" ry="7.87"/>
  <circle class="fil0" transform="matrix(0.0136995 0.00943592 0.00302728 -0.00439514 15522.4 9560.04)" r="1474.99"/>
  <circle class="fil0" transform="matrix(-0.0136995 -0.00943592 -0.00302728 0.00439514 17601 10736.3)" r="1474.99"/>
  <circle class="fil0" transform="matrix(0.00322674 0.00222251 0.000713039 -0.00103522 15662 9422.26)" r="1474.99"/>
  <circle class="fil0" transform="matrix(-0.00322674 -0.00222251 -0.000713039 0.00103522 17461.3 10874.1)" r="1474.99"/>
  <circle class="fil0" cx="16833.32" cy="9118.27" r="16.53"/>
  <circle class="fil0" cx="16290.03" cy="11178.11" r="16.53"/>
  <ellipse class="fil0" cx="17302.04" cy="9364.24" rx="24.54" ry="7.87"/>
  <ellipse class="fil0" cx="15821.31" cy="10932.14" rx="24.54" ry="7.87"/>
  <circle class="fil0" transform="matrix(0.0136995 0.00943592 0.00302728 -0.00439514 16926.8 9348.5)" r="1474.99"/>
  <circle class="fil0" transform="matrix(-0.0136995 -0.00943592 -0.00302728 0.00439514 16196.6 10947.9)" r="1474.99"/>
  <circle class="fil0" transform="matrix(0.00322674 0.00222251 0.000713039 -0.00103522 17066.4 9210.72)" r="1474.99"/>
  <circle class="fil0" transform="matrix(-0.00322674 -0.00222251 -0.000713039 0.00103522 16056.9 11085.7)" r="1474.99"/>
  <circle class="fil0" cx="13924.61" cy="8731.94" r="16.53"/>
  <circle class="fil0" cx="18798.34" cy="11264.15" r="16.53"/>
  <ellipse class="fil0" cx="14163.58" cy="8838.75" rx="24.54" ry="7.87"/>
  <ellipse class="fil0" cx="19037.31" cy="11370.96" rx="24.54" ry="7.87"/>
  <circle class="fil0" transform="matrix(0.0136995 -0.00943592 0.00302728 0.00439514 14018.1 8501.71)" r="1474.99"/>
  <circle class="fil0" transform="matrix(0.0136995 -0.00943592 0.00302728 0.00439514 18891.8 11033.9)" r="1474.99"/>
  <circle class="fil0" transform="matrix(0.00322674 -0.00222251 0.000713039 0.00103522 14157.7 8639.49)" r="1474.99"/>
  <circle class="fil0" transform="matrix(0.00322674 -0.00222251 0.000713039 0.00103522 19031.5 11171.7)" r="1474.99"/>
  <circle class="fil0" cx="18362.23" cy="14153.77" r="16.53"/>
  <circle class="fil0" cx="19925.11" cy="15839.19" r="16.53"/>
  <ellipse class="fil0" cx="18123.26" cy="14260.58" rx="24.54" ry="7.87"/>
  <ellipse class="fil0" cx="20164.08" cy="15732.38" rx="24.54" ry="7.87"/>
  <circle class="fil0" transform="matrix(-0.00322674 -0.00222251 -0.000713039 0.00103522 18129.1 14061.3)" r="1474.99"/>
  <circle class="fil0" transform="matrix(0.00322674 0.00222251 0.000713039 -0.00103522 20158.2 15931.6)" r="1474.99"/>
  <ellipse class="fil0" cx="20802.22" cy="13638.99" rx="24.54" ry="7.87"/>
  <circle class="fil0" cx="17367.73" cy="14522.29" r="16.53"/>
  <ellipse class="fil0" cx="16899.01" cy="14276.33" rx="24.54" ry="7.87"/>
  <ellipse class="fil0" cx="17844.44" cy="13004.72" rx="24.54" ry="7.87"/>
  <ellipse class="fil0" cx="20442.9" cy="16988.25" rx="24.54" ry="7.87"/>
  <ellipse class="fil0" cx="18789.87" cy="11733.1" rx="24.54" ry="7.87"/>
  <ellipse class="fil0" cx="20086.54" cy="14852.33" rx="24.54" ry="7.87"/>
  <ellipse class="fil0" cx="17128.76" cy="14629.11" rx="24.54" ry="7.87"/>
  <ellipse class="fil0" cx="18074.19" cy="13357.49" rx="24.54" ry="7.87"/>
  <ellipse class="fil0" cx="20213.15" cy="16635.47" rx="24.54" ry="7.87"/>
  <ellipse class="fil0" cx="19019.62" cy="12085.88" rx="24.54" ry="7.87"/>
  <ellipse class="fil0" cx="16618.97" cy="11787.25" rx="24.54" ry="7.87"/>
  <ellipse class="fil0" cx="20316.3" cy="15205.11" rx="24.54" ry="7.87"/>
  <circle class="fil0" transform="matrix(-0.0136995 -0.00943592 -0.00302728 0.00439514 17274.3 14292.1)" r="1474.99"/>
  <circle class="fil0" transform="matrix(-0.00322674 -0.00222251 -0.000713039 0.00103522 17134.6 14429.9)" r="1474.99"/>
  <circle class="fil0" transform="matrix(-0.00322674 -0.00222251 -0.000713039 0.00103522 18080 13158.2)" r="1474.99"/>
  <circle class="fil0" transform="matrix(0.00322674 0.00222251 0.000713039 -0.00103522 20207.3 16834.7)" r="1474.99"/>
  <circle class="fil0" transform="matrix(-0.00322674 -0.00222251 -0.000713039 0.00103522 19025.5 11886.6)" r="1474.99"/>
  <circle class="fil0" transform="matrix(-0.00322674 -0.00222251 -0.000713039 0.00103522 16624.8 11588)" r="1474.99"/>
  <circle class="fil0" transform="matrix(-0.00322674 -0.00222251 -0.000713039 0.00103522 20322.1 15005.9)" r="1474.99"/>
  <circle class="fil0" cx="20276.44" cy="13024.5" r="16.53"/>
  <circle class="fil0" cx="18010.9" cy="16968.47" r="16.53"/>
  <ellipse class="fil0" cx="19807.72" cy="13270.46" rx="24.54" ry="7.87"/>
  <ellipse class="fil0" cx="18479.62" cy="16722.5" rx="24.54" ry="7.87"/>
  <ellipse class="fil0" cx="20037.47" cy="12917.69" rx="24.54" ry="7.87"/>
  <circle class="fil0" transform="matrix(-0.0136995 0.00943592 -0.00302728 -0.00439514 20183 13254.7)" r="1474.99"/>
  <circle class="fil0" transform="matrix(0.0136995 -0.00943592 0.00302728 0.00439514 18104.4 16738.2)" r="1474.99"/>
  <circle class="fil0" transform="matrix(-0.00322674 0.00222251 -0.000713039 -0.00103522 20043.3 13116.9)" r="1474.99"/>
  <circle class="fil0" transform="matrix(0.00322674 -0.00222251 0.000713039 0.00103522 18244 16876)" r="1474.99"/>
  <circle class="fil0" cx="20276.44" cy="14178.11" r="16.53"/>
  <circle class="fil0" cx="18010.9" cy="15814.85" r="16.53"/>
  <ellipse class="fil0" cx="19807.72" cy="14424.08" rx="24.54" ry="7.87"/>
  <ellipse class="fil0" cx="18479.62" cy="15568.89" rx="24.54" ry="7.87"/>
  <ellipse class="fil0" cx="20037.47" cy="14071.3" rx="24.54" ry="7.87"/>
  <ellipse class="fil0" cx="18249.87" cy="15921.66" rx="24.54" ry="7.87"/>
  <circle class="fil0" transform="matrix(-0.0136995 0.00943592 -0.00302728 -0.00439514 20183 14408.3)" r="1474.99"/>
  <circle class="fil0" transform="matrix(0.0136995 -0.00943592 0.00302728 0.00439514 18104.4 15584.6)" r="1474.99"/>
  <circle class="fil0" transform="matrix(-0.00322674 0.00222251 -0.000713039 -0.00103522 20043.3 14270.6)" r="1474.99"/>
  <circle class="fil0" transform="matrix(0.00322674 -0.00222251 0.000713039 0.00103522 18244 15722.4)" r="1474.99"/>
  <circle class="fil0" cx="18872.03" cy="13966.56" r="16.53"/>
  <circle class="fil0" cx="19415.32" cy="16026.4" r="16.53"/>
  <ellipse class="fil0" cx="18403.3" cy="14212.53" rx="24.54" ry="7.87"/>
  <ellipse class="fil0" cx="19884.04" cy="15780.44" rx="24.54" ry="7.87"/>
  <circle class="fil0" transform="matrix(-0.0136995 0.00943592 -0.00302728 -0.00439514 18778.6 14196.8)" r="1474.99"/>
  <circle class="fil0" transform="matrix(0.0136995 -0.00943592 0.00302728 0.00439514 19508.8 15796.2)" r="1474.99"/>
  <circle class="fil0" transform="matrix(-0.00322674 0.00222251 -0.000713039 -0.00103522 18638.9 14059)" r="1474.99"/>
  <circle class="fil0" transform="matrix(0.00322674 -0.00222251 0.000713039 0.00103522 19648.4 15934)" r="1474.99"/>
  <circle class="fil0" cx="18748.19" cy="15444.55" r="16.53"/>
  <circle class="fil0" cx="29720.25" cy="6033.91" r="16.53"/>
  <circle class="fil0" cx="16907.01" cy="16112.44" r="16.53"/>
  <ellipse class="fil0" cx="21541.77" cy="13687.04" rx="24.54" ry="7.87"/>
  <ellipse class="fil0" cx="16668.04" cy="16219.25" rx="24.54" ry="7.87"/>
  <circle class="fil0" transform="matrix(-0.0136995 -0.00943592 -0.00302728 0.00439514 18654.7 15214.3)" r="1474.99"/>
  <circle class="fil0" transform="matrix(0.0136995 0.00943592 0.00302728 -0.00439514 29813.7 6264.13)" r="1474.99"/>
  <circle class="fil0" transform="matrix(-0.0136995 -0.00943592 -0.00302728 0.00439514 16813.5 15882.2)" r="1474.99"/>
  <circle class="fil0" transform="matrix(-0.00322674 -0.00222251 -0.000713039 0.00103522 21547.6 13487.8)" r="1474.99"/>
  <circle class="fil0" transform="matrix(-0.00322674 -0.00222251 -0.000713039 0.00103522 16673.9 16020)" r="1474.99"/>
  <circle class="fil0" cx="11878.01" cy="3075.17" r="16.53"/>
  <circle class="fil0" cx="9796.09" cy="10732.35" r="16.53"/>
  <circle class="fil0" cx="22876.71" cy="17444.96" r="16.53"/>
  <circle class="fil0" cx="25591.73" cy="4033.5" r="16.53"/>
  <circle class="fil0" cx="10315.14" cy="4760.59" r="16.53"/>
  <circle class="fil0" cx="8233.22" cy="12417.77" r="16.53"/>
  <circle class="fil0" cx="27472.13" cy="17266.06" r="16.53"/>
  <ellipse class="fil0" cx="12116.98" cy="3181.98" rx="24.54" ry="7.87"/>
  <ellipse class="fil0" cx="10035.06" cy="10839.16" rx="24.54" ry="7.87"/>
  <ellipse class="fil0" cx="22637.74" cy="17551.77" rx="24.54" ry="7.87"/>
  <ellipse class="fil0" cx="25830.71" cy="3926.69" rx="24.54" ry="7.87"/>
  <ellipse class="fil0" cx="10076.16" cy="4653.78" rx="24.54" ry="7.87"/>
  <ellipse class="fil0" cx="7994.24" cy="12310.96" rx="24.54" ry="7.87"/>
  <ellipse class="fil0" cx="27711.1" cy="17159.25" rx="24.54" ry="7.87"/>
  <circle class="fil0" transform="matrix(0.00322674 -0.00222251 0.000713039 0.00103522 12111.1 2982.73)" r="1474.99"/>
  <circle class="fil0" transform="matrix(0.00322674 -0.00222251 0.000713039 0.00103522 10029.2 10639.9)" r="1474.99"/>
  <circle class="fil0" transform="matrix(-0.00322674 -0.00222251 -0.000713039 0.00103522 22643.6 17352.5)" r="1474.99"/>
  <circle class="fil0" transform="matrix(0.00322674 0.00222251 0.000713039 -0.00103522 25824.9 4125.94)" r="1474.99"/>
  <circle class="fil0" transform="matrix(-0.00322674 0.00222251 -0.000713039 -0.00103522 10082 4853.03)" r="1474.99"/>
  <circle class="fil0" transform="matrix(-0.00322674 0.00222251 -0.000713039 -0.00103522 8000.09 12510.2)" r="1474.99"/>
  <circle class="fil0" transform="matrix(0.00322674 0.00222251 0.000713039 -0.00103522 27705.3 17358.5)" r="1474.99"/>
  <ellipse class="fil0" cx="9438.02" cy="2560.38" rx="24.54" ry="7.87"/>
  <ellipse class="fil0" cx="7356.1" cy="10217.56" rx="24.54" ry="7.87"/>
  <ellipse class="fil0" cx="25316.7" cy="16930.17" rx="24.54" ry="7.87"/>
  <ellipse class="fil0" cx="23151.75" cy="4548.28" rx="24.54" ry="7.87"/>
  <circle class="fil0" cx="12872.51" cy="3443.69" r="16.53"/>
  <ellipse class="fil0" cx="13341.24" cy="3197.73" rx="24.54" ry="7.87"/>
  <ellipse class="fil0" cx="12395.81" cy="1926.11" rx="24.54" ry="7.87"/>
  <ellipse class="fil0" cx="10313.89" cy="9583.29" rx="24.54" ry="7.87"/>
  <ellipse class="fil0" cx="22358.91" cy="16295.9" rx="24.54" ry="7.87"/>
  <ellipse class="fil0" cx="26109.53" cy="5182.55" rx="24.54" ry="7.87"/>
  <ellipse class="fil0" cx="9797.34" cy="5909.65" rx="24.54" ry="7.87"/>
  <ellipse class="fil0" cx="22875.46" cy="12622.26" rx="24.54" ry="7.87"/>
  <ellipse class="fil0" cx="25592.98" cy="8856.2" rx="24.54" ry="7.87"/>
  <ellipse class="fil0" cx="11450.38" cy="654.5" rx="24.54" ry="7.87"/>
  <ellipse class="fil0" cx="9368.45" cy="8311.68" rx="24.54" ry="7.87"/>
  <ellipse class="fil0" cx="23304.34" cy="15024.29" rx="24.54" ry="7.87"/>
  <ellipse class="fil0" cx="25164.1" cy="6454.17" rx="24.54" ry="7.87"/>
  <ellipse class="fil0" cx="10153.7" cy="3773.73" rx="24.54" ry="7.87"/>
  <ellipse class="fil0" cx="8071.78" cy="11430.91" rx="24.54" ry="7.87"/>
  <ellipse class="fil0" cx="24601.02" cy="18143.52" rx="24.54" ry="7.87"/>
  <ellipse class="fil0" cx="23867.42" cy="3334.94" rx="24.54" ry="7.87"/>
  <ellipse class="fil0" cx="13111.48" cy="3550.5" rx="24.54" ry="7.87"/>
  <ellipse class="fil0" cx="12166.05" cy="2278.89" rx="24.54" ry="7.87"/>
  <ellipse class="fil0" cx="10084.13" cy="9936.07" rx="24.54" ry="7.87"/>
  <ellipse class="fil0" cx="22588.66" cy="16648.68" rx="24.54" ry="7.87"/>
  <ellipse class="fil0" cx="25879.78" cy="4829.78" rx="24.54" ry="7.87"/>
  <ellipse class="fil0" cx="10027.09" cy="5556.87" rx="24.54" ry="7.87"/>
  <ellipse class="fil0" cx="22645.7" cy="12269.48" rx="24.54" ry="7.87"/>
  <ellipse class="fil0" cx="25822.74" cy="9208.98" rx="24.54" ry="7.87"/>
  <ellipse class="fil0" cx="11220.62" cy="1007.28" rx="24.54" ry="7.87"/>
  <ellipse class="fil0" cx="9138.7" cy="8664.45" rx="24.54" ry="7.87"/>
  <ellipse class="fil0" cx="23534.09" cy="15377.06" rx="24.54" ry="7.87"/>
  <ellipse class="fil0" cx="24934.35" cy="6101.39" rx="24.54" ry="7.87"/>
  <ellipse class="fil0" cx="13621.28" cy="708.65" rx="24.54" ry="7.87"/>
  <ellipse class="fil0" cx="9923.95" cy="4126.51" rx="24.54" ry="7.87"/>
  <ellipse class="fil0" cx="7842.03" cy="11783.68" rx="24.54" ry="7.87"/>
  <ellipse class="fil0" cx="24830.77" cy="18496.29" rx="24.54" ry="7.87"/>
  <ellipse class="fil0" cx="23637.67" cy="2982.16" rx="24.54" ry="7.87"/>
  <circle class="fil0" transform="matrix(0.0136995 -0.00943592 0.00302728 0.00439514 12966 3213.47)" r="1474.99"/>
  <circle class="fil0" transform="matrix(0.00322674 -0.00222251 0.000713039 0.00103522 13105.6 3351.25)" r="1474.99"/>
  <circle class="fil0" transform="matrix(0.00322674 -0.00222251 0.000713039 0.00103522 12160.2 2079.64)" r="1474.99"/>
  <circle class="fil0" transform="matrix(0.00322674 -0.00222251 0.000713039 0.00103522 10078.3 9736.81)" r="1474.99"/>
  <circle class="fil0" transform="matrix(-0.00322674 -0.00222251 -0.000713039 0.00103522 22594.5 16449.4)" r="1474.99"/>
  <circle class="fil0" transform="matrix(0.00322674 0.00222251 0.000713039 -0.00103522 25873.9 5029.03)" r="1474.99"/>
  <circle class="fil0" transform="matrix(-0.00322674 0.00222251 -0.000713039 -0.00103522 10032.9 5756.12)" r="1474.99"/>
  <circle class="fil0" transform="matrix(0.00322674 0.00222251 0.000713039 -0.00103522 22639.9 12468.7)" r="1474.99"/>
  <circle class="fil0" transform="matrix(-0.00322674 -0.00222251 -0.000713039 0.00103522 25828.6 9009.72)" r="1474.99"/>
  <circle class="fil0" transform="matrix(0.00322674 -0.00222251 0.000713039 0.00103522 11214.8 808.023)" r="1474.99"/>
  <circle class="fil0" transform="matrix(0.00322674 -0.00222251 0.000713039 0.00103522 9132.86 8465.2)" r="1474.99"/>
  <circle class="fil0" transform="matrix(-0.00322674 -0.00222251 -0.000713039 0.00103522 23539.9 15177.8)" r="1474.99"/>
  <circle class="fil0" transform="matrix(0.00322674 0.00222251 0.000713039 -0.00103522 24928.5 6300.64)" r="1474.99"/>
  <circle class="fil0" transform="matrix(0.00322674 -0.00222251 0.000713039 0.00103522 13615.4 509.391)" r="1474.99"/>
  <circle class="fil0" transform="matrix(0.00322674 -0.00222251 0.000713039 0.00103522 9918.11 3927.25)" r="1474.99"/>
  <circle class="fil0" transform="matrix(0.00322674 -0.00222251 0.000713039 0.00103522 7836.19 11584.4)" r="1474.99"/>
  <circle class="fil0" transform="matrix(-0.00322674 -0.00222251 -0.000713039 0.00103522 24836.6 18297)" r="1474.99"/>
  <circle class="fil0" transform="matrix(0.00322674 0.00222251 0.000713039 -0.00103522 23631.8 3181.42)" r="1474.99"/>
  <circle class="fil0" cx="9963.8" cy="1945.9" r="16.53"/>
  <circle class="fil0" cx="7881.88" cy="9603.07" r="16.53"/>
  <circle class="fil0" cx="24790.92" cy="16315.68" r="16.53"/>
  <circle class="fil0" cx="23677.52" cy="5162.77" r="16.53"/>
  <circle class="fil0" cx="12229.35" cy="5889.87" r="16.53"/>
  <circle class="fil0" cx="20443.45" cy="12602.47" r="16.53"/>
  <circle class="fil0" cx="28024.99" cy="8875.98" r="16.53"/>
  <ellipse class="fil0" cx="10432.52" cy="2191.86" rx="24.54" ry="7.87"/>
  <ellipse class="fil0" cx="8350.6" cy="9849.04" rx="24.54" ry="7.87"/>
  <ellipse class="fil0" cx="24322.19" cy="16561.65" rx="24.54" ry="7.87"/>
  <ellipse class="fil0" cx="24146.25" cy="4916.81" rx="24.54" ry="7.87"/>
  <ellipse class="fil0" cx="11760.62" cy="5643.9" rx="24.54" ry="7.87"/>
  <ellipse class="fil0" cx="20912.17" cy="12356.51" rx="24.54" ry="7.87"/>
  <ellipse class="fil0" cx="27556.27" cy="9121.95" rx="24.54" ry="7.87"/>
  <ellipse class="fil0" cx="10202.77" cy="1839.08" rx="24.54" ry="7.87"/>
  <ellipse class="fil0" cx="8120.85" cy="9496.26" rx="24.54" ry="7.87"/>
  <ellipse class="fil0" cx="24551.95" cy="16208.87" rx="24.54" ry="7.87"/>
  <ellipse class="fil0" cx="23916.49" cy="5269.58" rx="24.54" ry="7.87"/>
  <circle class="fil0" transform="matrix(0.0136995 0.00943592 0.00302728 -0.00439514 10057.3 2176.12)" r="1474.99"/>
  <circle class="fil0" transform="matrix(0.0136995 0.00943592 0.00302728 -0.00439514 7975.35 9833.29)" r="1474.99"/>
  <circle class="fil0" transform="matrix(-0.0136995 0.00943592 -0.00302728 -0.00439514 24697.4 16545.9)" r="1474.99"/>
  <circle class="fil0" transform="matrix(0.0136995 -0.00943592 0.00302728 0.00439514 23771 4932.55)" r="1474.99"/>
  <circle class="fil0" transform="matrix(-0.0136995 -0.00943592 -0.00302728 0.00439514 12135.9 5659.64)" r="1474.99"/>
  <circle class="fil0" transform="matrix(0.0136995 -0.00943592 0.00302728 0.00439514 20536.9 12372.3)" r="1474.99"/>
  <circle class="fil0" transform="matrix(-0.0136995 0.00943592 -0.00302728 -0.00439514 27931.5 9106.2)" r="1474.99"/>
  <circle class="fil0" transform="matrix(0.00322674 0.00222251 0.000713039 -0.00103522 10196.9 2038.34)" r="1474.99"/>
  <circle class="fil0" transform="matrix(0.00322674 0.00222251 0.000713039 -0.00103522 8115.01 9695.52)" r="1474.99"/>
  <circle class="fil0" transform="matrix(-0.00322674 0.00222251 -0.000713039 -0.00103522 24557.8 16408.1)" r="1474.99"/>
  <circle class="fil0" transform="matrix(0.00322674 -0.00222251 0.000713039 0.00103522 23910.7 5070.33)" r="1474.99"/>
  <circle class="fil0" transform="matrix(-0.00322674 -0.00222251 -0.000713039 0.00103522 11996.2 5797.42)" r="1474.99"/>
  <circle class="fil0" transform="matrix(0.00322674 -0.00222251 0.000713039 0.00103522 20676.6 12510)" r="1474.99"/>
  <circle class="fil0" transform="matrix(-0.00322674 0.00222251 -0.000713039 -0.00103522 27791.9 8968.42)" r="1474.99"/>
  <circle class="fil0" cx="9963.8" cy="3099.51" r="16.53"/>
  <circle class="fil0" cx="7881.88" cy="10756.69" r="16.53"/>
  <circle class="fil0" cx="24790.92" cy="17469.3" r="16.53"/>
  <circle class="fil0" cx="23677.52" cy="4009.16" r="16.53"/>
  <circle class="fil0" cx="12229.35" cy="4736.25" r="16.53"/>
  <circle class="fil0" cx="10147.43" cy="12393.43" r="16.53"/>
  <circle class="fil0" cx="25557.92" cy="17241.72" r="16.53"/>
  <ellipse class="fil0" cx="10432.52" cy="3345.48" rx="24.54" ry="7.87"/>
  <ellipse class="fil0" cx="8350.6" cy="11002.65" rx="24.54" ry="7.87"/>
  <ellipse class="fil0" cx="24322.19" cy="17715.26" rx="24.54" ry="7.87"/>
  <ellipse class="fil0" cx="24146.25" cy="3763.19" rx="24.54" ry="7.87"/>
  <ellipse class="fil0" cx="11760.62" cy="4490.29" rx="24.54" ry="7.87"/>
  <ellipse class="fil0" cx="9678.7" cy="12147.46" rx="24.54" ry="7.87"/>
  <ellipse class="fil0" cx="26026.64" cy="16995.75" rx="24.54" ry="7.87"/>
  <ellipse class="fil0" cx="10202.77" cy="2992.7" rx="24.54" ry="7.87"/>
  <ellipse class="fil0" cx="8120.85" cy="10649.88" rx="24.54" ry="7.87"/>
  <ellipse class="fil0" cx="24551.95" cy="17362.49" rx="24.54" ry="7.87"/>
  <ellipse class="fil0" cx="23916.49" cy="4115.97" rx="24.54" ry="7.87"/>
  <ellipse class="fil0" cx="11990.38" cy="4843.06" rx="24.54" ry="7.87"/>
  <ellipse class="fil0" cx="9908.45" cy="12500.24" rx="24.54" ry="7.87"/>
  <ellipse class="fil0" cx="25796.89" cy="17348.53" rx="24.54" ry="7.87"/>
  <circle class="fil0" transform="matrix(0.0136995 0.00943592 0.00302728 -0.00439514 10057.3 3329.73)" r="1474.99"/>
  <circle class="fil0" transform="matrix(0.0136995 0.00943592 0.00302728 -0.00439514 7975.35 10986.9)" r="1474.99"/>
  <circle class="fil0" transform="matrix(-0.0136995 0.00943592 -0.00302728 -0.00439514 24697.4 17699.5)" r="1474.99"/>
  <circle class="fil0" transform="matrix(0.0136995 -0.00943592 0.00302728 0.00439514 23771 3778.94)" r="1474.99"/>
  <circle class="fil0" transform="matrix(-0.0136995 -0.00943592 -0.00302728 0.00439514 12135.9 4506.03)" r="1474.99"/>
  <circle class="fil0" transform="matrix(-0.0136995 -0.00943592 -0.00302728 0.00439514 10054 12163.2)" r="1474.99"/>
  <circle class="fil0" transform="matrix(0.0136995 -0.00943592 0.00302728 0.00439514 25651.4 17011.5)" r="1474.99"/>
  <circle class="fil0" transform="matrix(0.00322674 0.00222251 0.000713039 -0.00103522 10196.9 3191.95)" r="1474.99"/>
  <circle class="fil0" transform="matrix(0.00322674 0.00222251 0.000713039 -0.00103522 8115.01 10849.1)" r="1474.99"/>
  <circle class="fil0" transform="matrix(-0.00322674 0.00222251 -0.000713039 -0.00103522 24557.8 17561.7)" r="1474.99"/>
  <circle class="fil0" transform="matrix(0.00322674 -0.00222251 0.000713039 0.00103522 23910.7 3916.72)" r="1474.99"/>
  <circle class="fil0" transform="matrix(-0.00322674 -0.00222251 -0.000713039 0.00103522 11996.2 4643.81)" r="1474.99"/>
  <circle class="fil0" transform="matrix(-0.00322674 -0.00222251 -0.000713039 0.00103522 9914.3 12301)" r="1474.99"/>
  <circle class="fil0" transform="matrix(0.00322674 -0.00222251 0.000713039 0.00103522 25791.1 17149.3)" r="1474.99"/>
  <circle class="fil0" cx="11368.22" cy="2887.96" r="16.53"/>
  <circle class="fil0" cx="9286.3" cy="10545.14" r="16.53"/>
  <circle class="fil0" cx="23386.5" cy="17257.75" r="16.53"/>
  <circle class="fil0" cx="25081.94" cy="4220.71" r="16.53"/>
  <circle class="fil0" cx="10824.93" cy="4947.8" r="16.53"/>
  <circle class="fil0" cx="8743.01" cy="12604.98" r="16.53"/>
  <circle class="fil0" cx="26962.34" cy="17453.27" r="16.53"/>
  <ellipse class="fil0" cx="11836.94" cy="3133.93" rx="24.54" ry="7.87"/>
  <ellipse class="fil0" cx="9755.02" cy="10791.11" rx="24.54" ry="7.87"/>
  <ellipse class="fil0" cx="22917.78" cy="17503.71" rx="24.54" ry="7.87"/>
  <ellipse class="fil0" cx="25550.66" cy="3974.74" rx="24.54" ry="7.87"/>
  <ellipse class="fil0" cx="10356.21" cy="4701.83" rx="24.54" ry="7.87"/>
  <ellipse class="fil0" cx="8274.28" cy="12359.01" rx="24.54" ry="7.87"/>
  <ellipse class="fil0" cx="27431.06" cy="17207.3" rx="24.54" ry="7.87"/>
  <circle class="fil0" transform="matrix(0.0136995 0.00943592 0.00302728 -0.00439514 11461.7 3118.18)" r="1474.99"/>
  <circle class="fil0" transform="matrix(0.0136995 0.00943592 0.00302728 -0.00439514 9379.77 10775.4)" r="1474.99"/>
  <circle class="fil0" transform="matrix(-0.0136995 0.00943592 -0.00302728 -0.00439514 23293 17488)" r="1474.99"/>
  <circle class="fil0" transform="matrix(0.0136995 -0.00943592 0.00302728 0.00439514 25175.4 3990.48)" r="1474.99"/>
  <circle class="fil0" transform="matrix(-0.0136995 -0.00943592 -0.00302728 0.00439514 10731.5 4717.58)" r="1474.99"/>
  <circle class="fil0" transform="matrix(-0.0136995 -0.00943592 -0.00302728 0.00439514 8649.54 12374.8)" r="1474.99"/>
  <circle class="fil0" transform="matrix(0.0136995 -0.00943592 0.00302728 0.00439514 27055.8 17223)" r="1474.99"/>
  <circle class="fil0" transform="matrix(0.00322674 0.00222251 0.000713039 -0.00103522 11601.3 2980.41)" r="1474.99"/>
  <circle class="fil0" transform="matrix(0.00322674 0.00222251 0.000713039 -0.00103522 9519.43 10637.6)" r="1474.99"/>
  <circle class="fil0" transform="matrix(-0.00322674 0.00222251 -0.000713039 -0.00103522 23153.4 17350.2)" r="1474.99"/>
  <circle class="fil0" transform="matrix(0.00322674 -0.00222251 0.000713039 0.00103522 25315.1 4128.26)" r="1474.99"/>
  <circle class="fil0" transform="matrix(-0.00322674 -0.00222251 -0.000713039 0.00103522 10591.8 4855.36)" r="1474.99"/>
  <circle class="fil0" transform="matrix(-0.00322674 -0.00222251 -0.000713039 0.00103522 8509.88 12512.5)" r="1474.99"/>
  <circle class="fil0" transform="matrix(0.00322674 -0.00222251 0.000713039 0.00103522 27195.5 17360.8)" r="1474.99"/>
  <circle class="fil0" cx="8459.5" cy="2501.63" r="16.53"/>
  <circle class="fil0" cx="6377.58" cy="10158.8" r="16.53"/>
  <circle class="fil0" cx="26295.21" cy="16871.41" r="16.53"/>
  <circle class="fil0" cx="22173.23" cy="4607.04" r="16.53"/>
  <circle class="fil0" cx="13333.23" cy="5033.84" r="16.53"/>
  <ellipse class="fil0" cx="8698.48" cy="2608.44" rx="24.54" ry="7.87"/>
  <ellipse class="fil0" cx="6616.56" cy="10265.61" rx="24.54" ry="7.87"/>
  <ellipse class="fil0" cx="26056.24" cy="16978.22" rx="24.54" ry="7.87"/>
  <ellipse class="fil0" cx="22412.2" cy="4500.23" rx="24.54" ry="7.87"/>
  <ellipse class="fil0" cx="13572.21" cy="5140.65" rx="24.54" ry="7.87"/>
  <circle class="fil0" transform="matrix(0.0136995 -0.00943592 0.00302728 0.00439514 8552.98 2271.4)" r="1474.99"/>
  <circle class="fil0" transform="matrix(0.0136995 -0.00943592 0.00302728 0.00439514 6471.06 9928.58)" r="1474.99"/>
  <circle class="fil0" transform="matrix(-0.0136995 -0.00943592 -0.00302728 0.00439514 26201.7 16641.2)" r="1474.99"/>
  <circle class="fil0" transform="matrix(0.0136995 0.00943592 0.00302728 -0.00439514 22266.7 4837.26)" r="1474.99"/>
  <circle class="fil0" transform="matrix(0.0136995 -0.00943592 0.00302728 0.00439514 13426.7 4803.61)" r="1474.99"/>
  <circle class="fil0" transform="matrix(0.00322674 -0.00222251 0.000713039 0.00103522 8692.63 2409.18)" r="1474.99"/>
  <circle class="fil0" transform="matrix(0.00322674 -0.00222251 0.000713039 0.00103522 6610.71 10066.4)" r="1474.99"/>
  <circle class="fil0" transform="matrix(-0.00322674 -0.00222251 -0.000713039 0.00103522 26062.1 16779)" r="1474.99"/>
  <circle class="fil0" transform="matrix(0.00322674 0.00222251 0.000713039 -0.00103522 22406.4 4699.49)" r="1474.99"/>
  <circle class="fil0" transform="matrix(0.00322674 -0.00222251 0.000713039 0.00103522 13566.4 4941.39)" r="1474.99"/>
  <circle class="fil0" cx="24609.48" cy="2569.4" r="16.53"/>
  <circle class="fil0" cx="23046.61" cy="4254.82" r="16.53"/>
  <ellipse class="fil0" cx="24848.45" cy="2676.21" rx="24.54" ry="7.87"/>
  <ellipse class="fil0" cx="22807.63" cy="4148.01" rx="24.54" ry="7.87"/>
  <circle class="fil0" transform="matrix(0.00322674 -0.00222251 0.000713039 0.00103522 24842.6 2476.96)" r="1474.99"/>
  <circle class="fil0" transform="matrix(-0.00322674 0.00222251 -0.000713039 -0.00103522 22813.5 4347.26)" r="1474.99"/>
  <ellipse class="fil0" cx="22169.49" cy="2054.61" rx="24.54" ry="7.87"/>
  <circle class="fil0" cx="25603.98" cy="2937.92" r="16.53"/>
  <ellipse class="fil0" cx="26072.71" cy="2691.96" rx="24.54" ry="7.87"/>
  <ellipse class="fil0" cx="25127.28" cy="1420.34" rx="24.54" ry="7.87"/>
  <ellipse class="fil0" cx="22528.81" cy="5403.88" rx="24.54" ry="7.87"/>
  <ellipse class="fil0" cx="24181.84" cy="148.73" rx="24.54" ry="7.87"/>
  <ellipse class="fil0" cx="22885.17" cy="3267.96" rx="24.54" ry="7.87"/>
  <ellipse class="fil0" cx="25842.95" cy="3044.73" rx="24.54" ry="7.87"/>
  <ellipse class="fil0" cx="24897.52" cy="1773.12" rx="24.54" ry="7.87"/>
  <ellipse class="fil0" cx="22758.56" cy="5051.1" rx="24.54" ry="7.87"/>
  <ellipse class="fil0" cx="23952.09" cy="501.51" rx="24.54" ry="7.87"/>
  <ellipse class="fil0" cx="26352.75" cy="202.87" rx="24.54" ry="7.87"/>
  <ellipse class="fil0" cx="22655.42" cy="3620.74" rx="24.54" ry="7.87"/>
  <circle class="fil0" transform="matrix(0.0136995 -0.00943592 0.00302728 0.00439514 25697.5 2707.7)" r="1474.99"/>
  <circle class="fil0" transform="matrix(0.00322674 -0.00222251 0.000713039 0.00103522 25837.1 2845.48)" r="1474.99"/>
  <circle class="fil0" transform="matrix(0.00322674 -0.00222251 0.000713039 0.00103522 24891.7 1573.87)" r="1474.99"/>
  <circle class="fil0" transform="matrix(-0.00322674 0.00222251 -0.000713039 -0.00103522 22764.4 5250.35)" r="1474.99"/>
  <circle class="fil0" transform="matrix(0.00322674 -0.00222251 0.000713039 0.00103522 23946.3 302.253)" r="1474.99"/>
  <circle class="fil0" transform="matrix(0.00322674 -0.00222251 0.000713039 0.00103522 26346.9 3.62012)" r="1474.99"/>
  <circle class="fil0" transform="matrix(0.00322674 -0.00222251 0.000713039 0.00103522 22649.6 3421.48)" r="1474.99"/>
  <circle class="fil0" cx="22695.27" cy="1440.12" r="16.53"/>
  <circle class="fil0" cx="24960.82" cy="5384.09" r="16.53"/>
  <ellipse class="fil0" cx="23163.99" cy="1686.09" rx="24.54" ry="7.87"/>
  <ellipse class="fil0" cx="24492.09" cy="5138.13" rx="24.54" ry="7.87"/>
  <ellipse class="fil0" cx="22934.24" cy="1333.31" rx="24.54" ry="7.87"/>
  <circle class="fil0" transform="matrix(0.0136995 0.00943592 0.00302728 -0.00439514 22788.7 1670.35)" r="1474.99"/>
  <circle class="fil0" transform="matrix(-0.0136995 -0.00943592 -0.00302728 0.00439514 24867.3 5153.87)" r="1474.99"/>
  <circle class="fil0" transform="matrix(0.00322674 0.00222251 0.000713039 -0.00103522 22928.4 1532.57)" r="1474.99"/>
  <circle class="fil0" transform="matrix(-0.00322674 -0.00222251 -0.000713039 0.00103522 24727.7 5291.65)" r="1474.99"/>
  <circle class="fil0" cx="22695.27" cy="2593.74" r="16.53"/>
  <circle class="fil0" cx="24960.82" cy="4230.48" r="16.53"/>
  <ellipse class="fil0" cx="23163.99" cy="2839.7" rx="24.54" ry="7.87"/>
  <ellipse class="fil0" cx="24492.09" cy="3984.51" rx="24.54" ry="7.87"/>
  <ellipse class="fil0" cx="22934.24" cy="2486.93" rx="24.54" ry="7.87"/>
  <ellipse class="fil0" cx="24721.84" cy="4337.29" rx="24.54" ry="7.87"/>
  <circle class="fil0" transform="matrix(0.0136995 0.00943592 0.00302728 -0.00439514 22788.7 2823.96)" r="1474.99"/>
  <circle class="fil0" transform="matrix(-0.0136995 -0.00943592 -0.00302728 0.00439514 24867.3 4000.26)" r="1474.99"/>
  <circle class="fil0" transform="matrix(0.00322674 0.00222251 0.000713039 -0.00103522 22928.4 2686.18)" r="1474.99"/>
  <circle class="fil0" transform="matrix(-0.00322674 -0.00222251 -0.000713039 0.00103522 24727.7 4138.04)" r="1474.99"/>
  <circle class="fil0" cx="24099.69" cy="2382.19" r="16.53"/>
  <circle class="fil0" cx="23556.4" cy="4442.03" r="16.53"/>
  <ellipse class="fil0" cx="24568.41" cy="2628.16" rx="24.54" ry="7.87"/>
  <ellipse class="fil0" cx="23087.67" cy="4196.06" rx="24.54" ry="7.87"/>
  <circle class="fil0" transform="matrix(0.0136995 0.00943592 0.00302728 -0.00439514 24193.2 2612.41)" r="1474.99"/>
  <circle class="fil0" transform="matrix(-0.0136995 -0.00943592 -0.00302728 0.00439514 23462.9 4211.81)" r="1474.99"/>
  <circle class="fil0" transform="matrix(0.00322674 0.00222251 0.000713039 -0.00103522 24332.8 2474.63)" r="1474.99"/>
  <circle class="fil0" transform="matrix(-0.00322674 -0.00222251 -0.000713039 0.00103522 23323.3 4349.58)" r="1474.99"/>
  <circle class="fil0" cx="21190.97" cy="1995.85" r="16.53"/>
  <circle class="fil0" cx="26064.7" cy="4528.07" r="16.53"/>
  <ellipse class="fil0" cx="21429.95" cy="2102.67" rx="24.54" ry="7.87"/>
  <ellipse class="fil0" cx="26303.68" cy="4634.88" rx="24.54" ry="7.87"/>
  <circle class="fil0" transform="matrix(0.0136995 -0.00943592 0.00302728 0.00439514 21284.4 1765.63)" r="1474.99"/>
  <circle class="fil0" transform="matrix(0.0136995 -0.00943592 0.00302728 0.00439514 26158.2 4297.84)" r="1474.99"/>
  <circle class="fil0" transform="matrix(0.00322674 -0.00222251 0.000713039 0.00103522 21424.1 1903.41)" r="1474.99"/>
  <circle class="fil0" transform="matrix(0.00322674 -0.00222251 0.000713039 0.00103522 26297.8 4435.62)" r="1474.99"/>
  <ellipse class="fil0" cx="10959.06" cy="13655.59" rx="60.25" ry="19.33"/>
  <ellipse class="fil0" cx="12440.25" cy="18730.7" rx="60.25" ry="19.33"/>
  <circle class="fil0" transform="matrix(-0.00792366 -0.00545765 -0.00175096 0.00254211 11537.6 14032.6)" r="1474.99"/>
  <circle class="fil0" transform="matrix(-0.00792366 -0.00545765 -0.00175096 0.00254211 13018.8 19107.7)" r="1474.99"/>
  <circle class="fil0" cx="12717.48" cy="12427.67" r="15.33"/>
  <circle class="fil0" cx="14198.67" cy="17502.77" r="15.33"/>
  <circle class="fil0" cx="11268.01" cy="13990.8" r="15.33"/>
  <circle class="fil0" cx="12749.19" cy="19065.9" r="15.33"/>
  <ellipse class="fil0" cx="12939.12" cy="12526.73" rx="22.76" ry="7.3"/>
  <ellipse class="fil0" cx="14420.3" cy="17601.83" rx="22.76" ry="7.3"/>
  <ellipse class="fil0" cx="11046.37" cy="13891.74" rx="22.76" ry="7.3"/>
  <ellipse class="fil0" cx="12527.56" cy="18966.84" rx="22.76" ry="7.3"/>
  <circle class="fil0" transform="matrix(0.00299262 -0.00206125 0.000661303 0.000960109 12933.7 12341.9)" r="1474.99"/>
  <circle class="fil0" transform="matrix(0.00299262 -0.00206125 0.000661303 0.000960109 14414.9 17417)" r="1474.99"/>
  <circle class="fil0" transform="matrix(-0.00299262 0.00206125 -0.000661303 -0.000960109 11051.8 14076.5)" r="1474.99"/>
  <circle class="fil0" transform="matrix(-0.00299262 0.00206125 -0.000661303 -0.000960109 12533 19151.6)" r="1474.99"/>
  <ellipse class="fil0" cx="10454.53" cy="11950.23" rx="22.76" ry="7.3"/>
  <ellipse class="fil0" cx="11935.72" cy="17025.34" rx="22.76" ry="7.3"/>
  <circle class="fil0" cx="13639.83" cy="12769.45" r="15.33"/>
  <circle class="fil0" cx="15121.01" cy="17844.55" r="15.33"/>
  <ellipse class="fil0" cx="14074.54" cy="12541.33" rx="22.76" ry="7.3"/>
  <ellipse class="fil0" cx="15555.73" cy="17616.44" rx="22.76" ry="7.3"/>
  <ellipse class="fil0" cx="13197.71" cy="11361.98" rx="22.76" ry="7.3"/>
  <ellipse class="fil0" cx="14678.9" cy="16437.09" rx="22.76" ry="7.3"/>
  <ellipse class="fil0" cx="12320.88" cy="10182.63" rx="22.76" ry="7.3"/>
  <ellipse class="fil0" cx="13802.06" cy="15257.74" rx="22.76" ry="7.3"/>
  <ellipse class="fil0" cx="11118.28" cy="13075.54" rx="22.76" ry="7.3"/>
  <ellipse class="fil0" cx="12599.47" cy="18150.65" rx="22.76" ry="7.3"/>
  <ellipse class="fil0" cx="13861.46" cy="12868.51" rx="22.76" ry="7.3"/>
  <ellipse class="fil0" cx="15342.65" cy="17943.62" rx="22.76" ry="7.3"/>
  <ellipse class="fil0" cx="12984.63" cy="11689.16" rx="22.76" ry="7.3"/>
  <ellipse class="fil0" cx="14465.81" cy="16764.27" rx="22.76" ry="7.3"/>
  <ellipse class="fil0" cx="12107.79" cy="10509.82" rx="22.76" ry="7.3"/>
  <ellipse class="fil0" cx="13588.98" cy="15584.92" rx="22.76" ry="7.3"/>
  <ellipse class="fil0" cx="10905.2" cy="13402.72" rx="22.76" ry="7.3"/>
  <ellipse class="fil0" cx="12386.39" cy="18477.83" rx="22.76" ry="7.3"/>
  <circle class="fil0" transform="matrix(0.0127055 -0.00875128 0.00280763 0.00407625 13726.5 12555.9)" r="1474.99"/>
  <circle class="fil0" transform="matrix(0.0127055 -0.00875128 0.00280763 0.00407625 15207.7 17631)" r="1474.99"/>
  <circle class="fil0" transform="matrix(0.00299262 -0.00206125 0.000661303 0.000960109 13856 12683.7)" r="1474.99"/>
  <circle class="fil0" transform="matrix(0.00299262 -0.00206125 0.000661303 0.000960109 15337.2 17758.8)" r="1474.99"/>
  <circle class="fil0" transform="matrix(0.00299262 -0.00206125 0.000661303 0.000960109 12979.2 11504.4)" r="1474.99"/>
  <circle class="fil0" transform="matrix(0.00299262 -0.00206125 0.000661303 0.000960109 14460.4 16579.5)" r="1474.99"/>
  <circle class="fil0" transform="matrix(0.00299262 -0.00206125 0.000661303 0.000960109 12102.4 10325)" r="1474.99"/>
  <circle class="fil0" transform="matrix(0.00299262 -0.00206125 0.000661303 0.000960109 13583.6 15400.1)" r="1474.99"/>
  <circle class="fil0" transform="matrix(0.00299262 -0.00206125 0.000661303 0.000960109 10899.8 13217.9)" r="1474.99"/>
  <circle class="fil0" transform="matrix(0.00299262 -0.00206125 0.000661303 0.000960109 12381 18293)" r="1474.99"/>
  <circle class="fil0" cx="10942.16" cy="11380.33" r="15.33"/>
  <circle class="fil0" cx="12423.35" cy="16455.43" r="15.33"/>
  <ellipse class="fil0" cx="11376.88" cy="11608.45" rx="22.76" ry="7.3"/>
  <ellipse class="fil0" cx="12858.06" cy="16683.55" rx="22.76" ry="7.3"/>
  <ellipse class="fil0" cx="11163.8" cy="11281.27" rx="22.76" ry="7.3"/>
  <ellipse class="fil0" cx="12644.98" cy="16356.37" rx="22.76" ry="7.3"/>
  <circle class="fil0" transform="matrix(0.0127055 0.00875128 0.00280763 -0.00407625 11028.9 11593.8)" r="1474.99"/>
  <circle class="fil0" transform="matrix(0.0127055 0.00875128 0.00280763 -0.00407625 12510 16669)" r="1474.99"/>
  <circle class="fil0" transform="matrix(0.00299262 0.00206125 0.000661303 -0.000960109 11158.4 11466.1)" r="1474.99"/>
  <circle class="fil0" transform="matrix(0.00299262 0.00206125 0.000661303 -0.000960109 12639.6 16541.2)" r="1474.99"/>
  <circle class="fil0" cx="10942.16" cy="12450.24" r="15.33"/>
  <circle class="fil0" cx="12423.35" cy="17525.34" r="15.33"/>
  <circle class="fil0" cx="13043.33" cy="13968.23" r="15.33"/>
  <circle class="fil0" cx="14524.51" cy="19043.33" r="15.33"/>
  <ellipse class="fil0" cx="11376.88" cy="12678.36" rx="22.76" ry="7.3"/>
  <ellipse class="fil0" cx="12858.06" cy="17753.46" rx="22.76" ry="7.3"/>
  <ellipse class="fil0" cx="12608.61" cy="13740.11" rx="22.76" ry="7.3"/>
  <ellipse class="fil0" cx="14089.8" cy="18815.21" rx="22.76" ry="7.3"/>
  <ellipse class="fil0" cx="11163.8" cy="12351.18" rx="22.76" ry="7.3"/>
  <ellipse class="fil0" cx="12644.98" cy="17426.28" rx="22.76" ry="7.3"/>
  <ellipse class="fil0" cx="12821.7" cy="14067.29" rx="22.76" ry="7.3"/>
  <ellipse class="fil0" cx="14302.88" cy="19142.39" rx="22.76" ry="7.3"/>
  <circle class="fil0" transform="matrix(0.0127055 0.00875128 0.00280763 -0.00407625 11028.9 12663.8)" r="1474.99"/>
  <circle class="fil0" transform="matrix(0.0127055 0.00875128 0.00280763 -0.00407625 12510 17738.9)" r="1474.99"/>
  <circle class="fil0" transform="matrix(-0.0127055 -0.00875128 -0.00280763 0.00407625 12956.6 13754.7)" r="1474.99"/>
  <circle class="fil0" transform="matrix(-0.0127055 -0.00875128 -0.00280763 0.00407625 14437.8 18829.8)" r="1474.99"/>
  <circle class="fil0" transform="matrix(0.00299262 0.00206125 0.000661303 -0.000960109 11158.4 12536)" r="1474.99"/>
  <circle class="fil0" transform="matrix(0.00299262 0.00206125 0.000661303 -0.000960109 12639.6 17611.1)" r="1474.99"/>
  <circle class="fil0" transform="matrix(-0.00299262 -0.00206125 -0.000661303 0.000960109 12827.1 13882.5)" r="1474.99"/>
  <circle class="fil0" transform="matrix(-0.00299262 -0.00206125 -0.000661303 0.000960109 14308.3 18957.6)" r="1474.99"/>
  <circle class="fil0" cx="12244.68" cy="12254.04" r="15.33"/>
  <circle class="fil0" cx="13725.86" cy="17329.15" r="15.33"/>
  <circle class="fil0" cx="11740.81" cy="14164.42" r="15.33"/>
  <circle class="fil0" cx="13222" cy="19239.53" r="15.33"/>
  <ellipse class="fil0" cx="12679.4" cy="12482.16" rx="22.76" ry="7.3"/>
  <ellipse class="fil0" cx="14160.58" cy="17557.27" rx="22.76" ry="7.3"/>
  <ellipse class="fil0" cx="11306.1" cy="13936.3" rx="22.76" ry="7.3"/>
  <ellipse class="fil0" cx="12787.28" cy="19011.41" rx="22.76" ry="7.3"/>
  <circle class="fil0" transform="matrix(0.0127055 0.00875128 0.00280763 -0.00407625 12331.4 12467.6)" r="1474.99"/>
  <circle class="fil0" transform="matrix(0.0127055 0.00875128 0.00280763 -0.00407625 13812.6 17542.7)" r="1474.99"/>
  <circle class="fil0" transform="matrix(-0.0127055 -0.00875128 -0.00280763 0.00407625 11654.1 13950.9)" r="1474.99"/>
  <circle class="fil0" transform="matrix(-0.0127055 -0.00875128 -0.00280763 0.00407625 13135.3 19026)" r="1474.99"/>
  <circle class="fil0" transform="matrix(0.00299262 0.00206125 0.000661303 -0.000960109 12460.9 12339.8)" r="1474.99"/>
  <circle class="fil0" transform="matrix(0.00299262 0.00206125 0.000661303 -0.000960109 13942.1 17414.9)" r="1474.99"/>
  <circle class="fil0" transform="matrix(-0.00299262 -0.00206125 -0.000661303 0.000960109 11524.6 14078.7)" r="1474.99"/>
  <circle class="fil0" transform="matrix(-0.00299262 -0.00206125 -0.000661303 0.000960109 13005.8 19153.8)" r="1474.99"/>
  <circle class="fil0" cx="14067.12" cy="14244.22" r="15.33"/>
  <circle class="fil0" cx="15548.31" cy="19319.32" r="15.33"/>
  <circle class="fil0" transform="matrix(-0.00299262 -0.00206125 -0.000661303 0.000960109 12051.3 14544.6)" r="1474.99"/>
  <circle class="fil0" transform="matrix(-0.00299262 -0.00206125 -0.000661303 0.000960109 13532.5 19619.7)" r="1474.99"/>
 </g>
</svg>
