<?xml version="1.0" encoding="UTF-8"?>
<!DOCTYPE svg PUBLIC "-//W3C//DTD SVG 1.1//EN" "http://www.w3.org/Graphics/SVG/1.1/DTD/svg11.dtd">
<!-- Creator: CorelDRAW 2018 (64 Bit Versão de avaliação) -->
<svg xmlns="http://www.w3.org/2000/svg" xml:space="preserve" width="419.713mm" height="244.474mm" version="1.1" style="shape-rendering:geometricPrecision; text-rendering:geometricPrecision; image-rendering:optimizeQuality; fill-rule:evenodd; clip-rule:evenodd"
viewBox="0 0 35667.73 20775.72"
 xmlns:xlink="http://www.w3.org/1999/xlink">
 <defs>
  <style type="text/css">
   <![CDATA[
    .fil0 {fill:white}
   ]]>
  </style>
 </defs>
 <g id="Conteúdo_x0020_do_x0020_PowerClip">
  <metadata id="CorelCorpID_0Corel-Layer"/>
  <ellipse class="fil0" cx="2675.94" cy="742.4" rx="18.88" ry="32.1"/>
  <ellipse class="fil0" cx="721.74" cy="2641.82" rx="18.88" ry="32.1"/>
  <ellipse class="fil0" cx="18483.48" cy="2493.92" rx="18.88" ry="32.1"/>
  <ellipse class="fil0" cx="29905.85" cy="3939.35" rx="18.88" ry="32.1"/>
  <ellipse class="fil0" cx="35648.85" cy="6898.39" rx="18.88" ry="32.1"/>
  <ellipse class="fil0" cx="26281.47" cy="12776.34" rx="18.88" ry="32.1"/>
  <ellipse class="fil0" cx="16914.09" cy="18654.29" rx="18.88" ry="32.1"/>
  <ellipse class="fil0" cx="28080.35" cy="12347.13" rx="18.88" ry="32.1"/>
  <ellipse class="fil0" cx="25163.33" cy="10574.23" rx="18.88" ry="32.1"/>
  <ellipse class="fil0" cx="22265.2" cy="16344.15" rx="18.88" ry="32.1"/>
  <ellipse class="fil0" cx="11945.14" cy="18543.89" rx="18.88" ry="32.1"/>
  <ellipse class="fil0" cx="1625.07" cy="20743.63" rx="18.88" ry="32.1"/>
  <ellipse class="fil0" cx="15726.28" cy="12659.33" rx="18.88" ry="32.1"/>
  <ellipse class="fil0" cx="11017.21" cy="7629.26" rx="18.88" ry="32.1"/>
  <ellipse class="fil0" cx="2729.58" cy="9804.5" rx="18.88" ry="32.1"/>
  <ellipse class="fil0" cx="22302.97" cy="4003.55" rx="18.88" ry="32.1"/>
  <ellipse class="fil0" cx="32252.06" cy="1576.27" rx="18.88" ry="32.1"/>
  <ellipse class="fil0" cx="26243.7" cy="32.1" rx="18.88" ry="32.1"/>
  <ellipse class="fil0" cx="19153.97" cy="5700.44" rx="18.88" ry="32.1"/>
  <ellipse class="fil0" cx="12064.23" cy="11368.77" rx="18.88" ry="32.1"/>
  <ellipse class="fil0" cx="26205.94" cy="11432.96" rx="18.88" ry="32.1"/>
  <ellipse class="fil0" cx="27391.53" cy="11561.35" rx="18.88" ry="32.1"/>
  <ellipse class="fil0" cx="28577.13" cy="11689.74" rx="18.88" ry="32.1"/>
  <ellipse class="fil0" cx="5721.25" cy="13562.13" rx="18.88" ry="32.1"/>
  <ellipse class="fil0" cx="26357" cy="5636.24" rx="18.88" ry="32.1"/>
  <ellipse class="fil0" cx="23797.13" cy="1447.88" rx="18.88" ry="32.1"/>
  <ellipse class="fil0" cx="17758.89" cy="8859.57" rx="18.88" ry="32.1"/>
  <ellipse class="fil0" cx="3687.61" cy="3569.49" rx="18.88" ry="32.1"/>
  <ellipse class="fil0" cx="6653.49" cy="4497.16" rx="18.88" ry="32.1"/>
  <ellipse class="fil0" cx="9619.36" cy="5424.83" rx="18.88" ry="32.1"/>
  <ellipse class="fil0" cx="12975.97" cy="5489.03" rx="18.88" ry="32.1"/>
  <ellipse class="fil0" cx="16332.59" cy="5553.22" rx="18.88" ry="32.1"/>
  <ellipse class="fil0" cx="13013.74" cy="1512.08" rx="18.88" ry="32.1"/>
  <ellipse class="fil0" cx="6615.72" cy="11003.43" rx="18.88" ry="32.1"/>
  <ellipse class="fil0" cx="217.7" cy="20494.79" rx="18.88" ry="32.1"/>
  <ellipse class="fil0" cx="21125.04" cy="10001.37" rx="18.88" ry="32.1"/>
  <ellipse class="fil0" cx="26305.08" cy="16520.31" rx="4.73" ry="8.04"/>
  <ellipse class="fil0" cx="31494.56" cy="15525.69" rx="0.01" ry="0.02"/>
  <ellipse class="fil0" cx="28103.92" cy="5593.3" rx="4.7" ry="7.98"/>
  <ellipse class="fil0" cx="13541.17" cy="11885.72" rx="18.81" ry="31.99"/>
  <ellipse class="fil0" cx="1166.29" cy="12763.45" rx="42.35" ry="72.02"/>
  <ellipse class="fil0" cx="48.74" cy="4492.96" rx="48.74" ry="82.87"/>
  <ellipse class="fil0" cx="26124.88" cy="18516.48" rx="62.17" ry="105.71"/>
  <ellipse class="fil0" cx="30599.43" cy="2763" rx="35.72" ry="60.74"/>
 </g>
</svg>
