<?xml version="1.0" encoding="UTF-8"?>
<!DOCTYPE svg PUBLIC "-//W3C//DTD SVG 1.1//EN" "http://www.w3.org/Graphics/SVG/1.1/DTD/svg11.dtd">
<!-- Creator: CorelDRAW 2018 (64 Bit Versão de avaliação) -->
<svg xmlns="http://www.w3.org/2000/svg" xml:space="preserve" width="394.099mm" height="237.794mm" version="1.1" style="shape-rendering:geometricPrecision; text-rendering:geometricPrecision; image-rendering:optimizeQuality; fill-rule:evenodd; clip-rule:evenodd"
viewBox="0 0 34525.67 20832.29"
 xmlns:xlink="http://www.w3.org/1999/xlink">
 <defs>
  <style type="text/css">
   <![CDATA[
    .fil0 {fill:#E6E6E6}
   ]]>
  </style>
 </defs>
 <g id="Conteúdo_x0020_do_x0020_PowerClip">
  <metadata id="CorelCorpID_0Corel-Layer"/>
  <ellipse class="fil0" cx="1779.37" cy="1584.74" rx="7.84" ry="13.53"/>
  <ellipse class="fil0" cx="688.21" cy="3165.48" rx="20.24" ry="34.93"/>
  <ellipse class="fil0" cx="1812.46" cy="4851.37" rx="25.24" ry="21.78"/>
  <ellipse class="fil0" cx="1338.13" cy="7282.52" rx="25.24" ry="21.78"/>
  <ellipse class="fil0" cx="33118.81" cy="18445.89" rx="7.84" ry="13.53"/>
  <ellipse class="fil0" cx="32027.65" cy="16865.15" rx="20.24" ry="34.93"/>
  <ellipse class="fil0" cx="14207.33" cy="18917.1" rx="20.24" ry="34.93"/>
  <ellipse class="fil0" cx="4691.5" cy="13084.34" rx="20.24" ry="34.93"/>
  <ellipse class="fil0" cx="23944.24" cy="8146.76" rx="20.24" ry="34.93"/>
  <ellipse class="fil0" cx="31886.33" cy="4716.01" rx="20.24" ry="34.93"/>
  <ellipse class="fil0" cx="2676.83" cy="11399.71" rx="20.24" ry="34.93"/>
  <ellipse class="fil0" cx="6826.25" cy="13014.5" rx="20.24" ry="34.93"/>
  <ellipse class="fil0" cx="33151.9" cy="15179.26" rx="25.24" ry="21.78"/>
  <ellipse class="fil0" cx="15331.57" cy="17231.21" rx="25.24" ry="21.78"/>
  <ellipse class="fil0" cx="22933.73" cy="6530.72" rx="25.24" ry="21.78"/>
  <ellipse class="fil0" cx="30875.82" cy="3099.97" rx="25.24" ry="21.78"/>
  <ellipse class="fil0" cx="1666.32" cy="9783.67" rx="25.24" ry="21.78"/>
  <ellipse class="fil0" cx="19157.9" cy="13170.85" rx="25.24" ry="21.78"/>
  <ellipse class="fil0" cx="24897.91" cy="19697.58" rx="25.24" ry="21.78"/>
  <ellipse class="fil0" cx="26389.42" cy="2942.35" rx="25.24" ry="21.78"/>
  <ellipse class="fil0" cx="12251.14" cy="12751.28" rx="25.24" ry="21.78"/>
  <ellipse class="fil0" cx="17991.15" cy="19278.01" rx="25.24" ry="21.78"/>
  <ellipse class="fil0" cx="19482.66" cy="2522.78" rx="25.24" ry="21.78"/>
  <ellipse class="fil0" cx="5815.74" cy="11398.45" rx="25.24" ry="21.78"/>
  <ellipse class="fil0" cx="25068.48" cy="6460.87" rx="25.24" ry="21.78"/>
  <ellipse class="fil0" cx="33010.57" cy="3030.12" rx="25.24" ry="21.78"/>
  <ellipse class="fil0" cx="3801.07" cy="9713.82" rx="25.24" ry="21.78"/>
  <ellipse class="fil0" cx="21292.65" cy="13101" rx="25.24" ry="21.78"/>
  <ellipse class="fil0" cx="29234.74" cy="9670.26" rx="25.24" ry="21.78"/>
  <ellipse class="fil0" cx="25.24" cy="16353.96" rx="25.24" ry="21.78"/>
  <ellipse class="fil0" cx="27032.66" cy="19627.73" rx="25.24" ry="21.78"/>
  <ellipse class="fil0" cx="28524.17" cy="2872.5" rx="25.24" ry="21.78"/>
  <ellipse class="fil0" cx="7950.49" cy="11328.61" rx="25.24" ry="21.78"/>
  <ellipse class="fil0" cx="32677.57" cy="12748.11" rx="25.24" ry="21.78"/>
  <ellipse class="fil0" cx="14857.25" cy="14800.06" rx="25.24" ry="21.78"/>
  <ellipse class="fil0" cx="22459.41" cy="4099.57" rx="25.24" ry="21.78"/>
  <ellipse class="fil0" cx="24423.59" cy="17266.43" rx="25.24" ry="21.78"/>
  <ellipse class="fil0" cx="32365.67" cy="13835.69" rx="25.24" ry="21.78"/>
  <ellipse class="fil0" cx="3156.17" cy="20519.39" rx="25.24" ry="21.78"/>
  <ellipse class="fil0" cx="25915.1" cy="511.2" rx="25.24" ry="21.78"/>
  <ellipse class="fil0" cx="15552.65" cy="3680" rx="25.24" ry="21.78"/>
  <ellipse class="fil0" cx="11776.82" cy="10320.14" rx="25.24" ry="21.78"/>
  <ellipse class="fil0" cx="17516.83" cy="16846.86" rx="25.24" ry="21.78"/>
  <ellipse class="fil0" cx="19008.34" cy="91.63" rx="25.24" ry="21.78"/>
  <ellipse class="fil0" cx="5341.41" cy="8967.31" rx="25.24" ry="21.78"/>
  <ellipse class="fil0" cx="24594.16" cy="4029.72" rx="25.24" ry="21.78"/>
  <ellipse class="fil0" cx="20818.33" cy="10669.86" rx="25.24" ry="21.78"/>
  <ellipse class="fil0" cx="26558.34" cy="17196.58" rx="25.24" ry="21.78"/>
  <ellipse class="fil0" cx="34500.42" cy="13765.84" rx="25.24" ry="21.78"/>
  <ellipse class="fil0" cx="5290.93" cy="20449.54" rx="25.24" ry="21.78"/>
  <ellipse class="fil0" cx="28049.85" cy="441.35" rx="25.24" ry="21.78"/>
  <ellipse class="fil0" cx="17687.4" cy="3610.15" rx="25.24" ry="21.78"/>
  <ellipse class="fil0" cx="19651.58" cy="16777.01" rx="25.24" ry="21.78"/>
  <ellipse class="fil0" cx="21143.09" cy="21.78" rx="25.24" ry="21.78"/>
  <ellipse class="fil0" cx="7476.17" cy="8897.46" rx="25.24" ry="21.78"/>
  <ellipse class="fil0" cx="29746.69" cy="20810.51" rx="25.24" ry="21.78"/>
 </g>
</svg>
