<?xml version="1.0" encoding="UTF-8"?>
<!DOCTYPE svg PUBLIC "-//W3C//DTD SVG 1.1//EN" "http://www.w3.org/Graphics/SVG/1.1/DTD/svg11.dtd">
<!-- Creator: CorelDRAW 2018 (64 Bit Versão de avaliação) -->
<svg xmlns="http://www.w3.org/2000/svg" xml:space="preserve" width="416.163mm" height="242.883mm" version="1.1" style="shape-rendering:geometricPrecision; text-rendering:geometricPrecision; image-rendering:optimizeQuality; fill-rule:evenodd; clip-rule:evenodd"
viewBox="0 0 35578.39 20764.41"
 xmlns:xlink="http://www.w3.org/1999/xlink">
 <defs>
  <style type="text/css">
   <![CDATA[
    .fil0 {fill:#E6E6E6}
   ]]>
  </style>
 </defs>
 <g id="Conteúdo_x0020_do_x0020_PowerClip">
  <metadata id="CorelCorpID_0Corel-Layer"/>
  <ellipse class="fil0" cx="5458.78" cy="3507.57" rx="12.6" ry="19.18"/>
  <ellipse class="fil0" cx="20896.01" cy="2031.15" rx="12.6" ry="19.18"/>
  <ellipse class="fil0" cx="12594.42" cy="8189.91" rx="12.6" ry="19.18"/>
  <ellipse class="fil0" cx="4734.1" cy="14353.41" rx="15.71" ry="23.93"/>
  <ellipse class="fil0" cx="35562.68" cy="17907.16" rx="15.71" ry="23.93"/>
  <ellipse class="fil0" cx="22019.06" cy="12586.84" rx="15.71" ry="23.93"/>
  <ellipse class="fil0" cx="3705.55" cy="5749.15" rx="32.52" ry="49.53"/>
  <ellipse class="fil0" cx="34534.13" cy="9302.91" rx="32.52" ry="49.53"/>
  <ellipse class="fil0" cx="23047.61" cy="3982.58" rx="32.52" ry="49.53"/>
  <ellipse class="fil0" cx="19142.78" cy="4272.73" rx="32.52" ry="49.53"/>
  <ellipse class="fil0" cx="10841.19" cy="10431.49" rx="32.52" ry="49.53"/>
  <ellipse class="fil0" cx="2547.64" cy="17148.89" rx="40.56" ry="61.77"/>
  <ellipse class="fil0" cx="33376.21" cy="20702.64" rx="40.56" ry="61.77"/>
  <ellipse class="fil0" cx="24205.53" cy="15382.32" rx="40.56" ry="61.77"/>
  <ellipse class="fil0" cx="13035.7" cy="15534.11" rx="15.71" ry="23.93"/>
  <ellipse class="fil0" cx="21592" cy="14444.58" rx="15.71" ry="23.93"/>
  <ellipse class="fil0" cx="27986.69" cy="5457.48" rx="15.71" ry="23.93"/>
  <ellipse class="fil0" cx="34381.38" cy="18627.32" rx="15.71" ry="23.93"/>
  <ellipse class="fil0" cx="10849.23" cy="12738.63" rx="40.56" ry="61.77"/>
  <ellipse class="fil0" cx="19324.42" cy="11618.22" rx="40.56" ry="30.88"/>
  <ellipse class="fil0" cx="14122.34" cy="2880.7" rx="40.56" ry="30.88"/>
  <ellipse class="fil0" cx="5511.94" cy="8139.84" rx="40.56" ry="30.88"/>
  <ellipse class="fil0" cx="4749.81" cy="11587.34" rx="40.56" ry="30.88"/>
  <ellipse class="fil0" cx="11043.74" cy="19056.26" rx="40.56" ry="30.88"/>
  <ellipse class="fil0" cx="33839.43" cy="1981.08" rx="40.56" ry="30.88"/>
  <ellipse class="fil0" cx="32113.8" cy="30.88" rx="40.56" ry="30.88"/>
  <ellipse class="fil0" cx="16077.18" cy="92.65" rx="40.56" ry="30.88"/>
  <ellipse class="fil0" cx="40.56" cy="154.41" rx="40.56" ry="30.88"/>
  <ellipse class="fil0" cx="24124.41" cy="18542.9" rx="40.56" ry="30.88"/>
  <ellipse class="fil0" cx="25800.23" cy="2662" rx="40.56" ry="61.77"/>
  <ellipse class="fil0" cx="32194.92" cy="15831.84" rx="40.56" ry="61.77"/>
 </g>
</svg>
