<?xml version="1.0" encoding="UTF-8"?>
<!DOCTYPE svg PUBLIC "-//W3C//DTD SVG 1.1//EN" "http://www.w3.org/Graphics/SVG/1.1/DTD/svg11.dtd">
<!-- Creator: CorelDRAW 2018 (64 Bit Versão de avaliação) -->
<svg xmlns="http://www.w3.org/2000/svg" xml:space="preserve" width="368.911mm" height="185.591mm" version="1.1" style="shape-rendering:geometricPrecision; text-rendering:geometricPrecision; image-rendering:optimizeQuality; fill-rule:evenodd; clip-rule:evenodd"
viewBox="0 0 33685.94 16946.7"
 xmlns:xlink="http://www.w3.org/1999/xlink">
 <defs>
  <style type="text/css">
   <![CDATA[
    .fil0 {fill:#E6E6E6}
   ]]>
  </style>
 </defs>
 <g id="Conteúdo_x0020_do_x0020_PowerClip">
  <metadata id="CorelCorpID_0Corel-Layer"/>
  <ellipse class="fil0" cx="1876.23" cy="2241.84" rx="13.05" ry="18.6"/>
  <ellipse class="fil0" cx="5434.08" cy="3926.98" rx="13.05" ry="18.6"/>
  <ellipse class="fil0" cx="2999.13" cy="11611.81" rx="13.05" ry="18.6"/>
  <ellipse class="fil0" cx="16431.88" cy="3964.18" rx="13.05" ry="18.6"/>
  <ellipse class="fil0" cx="29838.53" cy="11151.37" rx="13.05" ry="18.6"/>
  <ellipse class="fil0" cx="31950.59" cy="810.24" rx="13.05" ry="18.6"/>
  <ellipse class="fil0" cx="17301.63" cy="18.6" rx="13.05" ry="18.6"/>
  <ellipse class="fil0" cx="13.05" cy="11188.57" rx="13.05" ry="18.6"/>
  <ellipse class="fil0" cx="5407.97" cy="10297.5" rx="13.05" ry="18.6"/>
  <ellipse class="fil0" cx="14802.08" cy="11930.53" rx="13.05" ry="18.6"/>
  <ellipse class="fil0" cx="24216.84" cy="13592.98" rx="33.7" ry="48.02"/>
  <ellipse class="fil0" cx="16385.13" cy="5742.24" rx="33.7" ry="48.02"/>
  <ellipse class="fil0" cx="59.8" cy="4415.37" rx="33.7" ry="48.02"/>
  <ellipse class="fil0" cx="16119.53" cy="16898.68" rx="33.7" ry="48.02"/>
  <ellipse class="fil0" cx="24284.23" cy="2308.46" rx="33.7" ry="48.02"/>
  <ellipse class="fil0" cx="33631.6" cy="15255.44" rx="54.34" ry="77.45"/>
 </g>
</svg>
