<?xml version="1.0" encoding="UTF-8"?>
<!DOCTYPE svg PUBLIC "-//W3C//DTD SVG 1.1//EN" "http://www.w3.org/Graphics/SVG/1.1/DTD/svg11.dtd">
<!-- Creator: CorelDRAW 2018 (64 Bit Versão de avaliação) -->
<svg xmlns="http://www.w3.org/2000/svg" xml:space="preserve" width="408.57mm" height="243.618mm" version="1.1" style="shape-rendering:geometricPrecision; text-rendering:geometricPrecision; image-rendering:optimizeQuality; fill-rule:evenodd; clip-rule:evenodd"
viewBox="0 0 35396.18 21105.7"
 xmlns:xlink="http://www.w3.org/1999/xlink">
 <defs>
  <style type="text/css">
   <![CDATA[
    .fil0 {fill:#999999}
   ]]>
  </style>
 </defs>
 <g id="Conteúdo_x0020_do_x0020_PowerClip">
  <metadata id="CorelCorpID_0Corel-Layer"/>
  <g id="_2953648964128">
   <ellipse class="fil0" cx="19.88" cy="1560.74" rx="19.88" ry="24.72"/>
   <ellipse class="fil0" cx="384.58" cy="2222.13" rx="26.57" ry="12.36"/>
   <ellipse class="fil0" cx="1492.97" cy="449.37" rx="26.57" ry="12.36"/>
   <ellipse class="fil0" cx="1301.44" cy="1984.78" rx="19.88" ry="24.72"/>
   <ellipse class="fil0" cx="1666.14" cy="1323.4" rx="26.57" ry="12.36"/>
   <ellipse class="fil0" cx="2774.53" cy="3096.15" rx="26.57" ry="12.36"/>
   <ellipse class="fil0" cx="12948.42" cy="1123.73" rx="19.88" ry="24.72"/>
   <ellipse class="fil0" cx="13313.12" cy="1785.12" rx="26.57" ry="12.36"/>
   <ellipse class="fil0" cx="14421.51" cy="12.36" rx="26.57" ry="12.36"/>
   <ellipse class="fil0" cx="14229.98" cy="1547.77" rx="19.88" ry="24.72"/>
   <ellipse class="fil0" cx="14594.68" cy="886.39" rx="26.57" ry="12.36"/>
   <ellipse class="fil0" cx="15703.07" cy="2659.14" rx="26.57" ry="12.36"/>
   <ellipse class="fil0" cx="10575.05" cy="1748.04" rx="19.88" ry="24.72"/>
   <ellipse class="fil0" cx="11730.27" cy="1809.84" rx="19.88" ry="24.72"/>
   <ellipse class="fil0" cx="13753.24" cy="7171.67" rx="19.88" ry="24.72"/>
   <ellipse class="fil0" cx="22919.54" cy="10078.49" rx="19.88" ry="24.72"/>
   <ellipse class="fil0" cx="32046.07" cy="11163.71" rx="19.88" ry="24.72"/>
   <ellipse class="fil0" cx="35376.3" cy="486.45" rx="19.88" ry="24.72"/>
   <ellipse class="fil0" cx="21131.64" cy="13997.43" rx="19.88" ry="24.72"/>
   <ellipse class="fil0" cx="9764.27" cy="21080.98" rx="19.88" ry="24.72"/>
   <ellipse class="fil0" cx="4875.2" cy="15602.15" rx="19.88" ry="24.72"/>
   <ellipse class="fil0" cx="16267.17" cy="8588.33" rx="19.88" ry="24.72"/>
   <ellipse class="fil0" cx="27659.14" cy="1574.5" rx="19.88" ry="24.72"/>
   <ellipse class="fil0" cx="21091.87" cy="4375.64" rx="19.88" ry="24.72"/>
   <ellipse class="fil0" cx="33212.72" cy="5784.07" rx="19.88" ry="24.72"/>
  </g>
 </g>
</svg>
