<?xml version="1.0" encoding="UTF-8"?>
<!DOCTYPE svg PUBLIC "-//W3C//DTD SVG 1.1//EN" "http://www.w3.org/Graphics/SVG/1.1/DTD/svg11.dtd">
<!-- Creator: CorelDRAW 2018 (64 Bit Versão de avaliação) -->
<svg xmlns="http://www.w3.org/2000/svg" xml:space="preserve" width="13.5344mm" height="13.5344mm" version="1.1" shape-rendering="geometricPrecision" text-rendering="geometricPrecision" image-rendering="optimizeQuality" fill-rule="evenodd" clip-rule="evenodd"
viewBox="0 0 537.72 537.72"
 xmlns:xlink="http://www.w3.org/1999/xlink">
 <g id="Camada_x0020_1">
  <metadata id="CorelCorpID_0Corel-Layer"/>
  <g id="_2972838105008">
   <polygon fill="#45C153" points="33.29,0 504.43,0 504.43,33.29 537.72,33.29 537.72,504.43 504.43,504.43 504.43,537.72 33.29,537.72 33.29,504.43 -0,504.43 -0,33.29 33.29,33.29 "/>
   <g>
    <path fill="white" d="M218.48 80.17l101.26 -0 0.08 14.5 43.35 0.53 0.1 14.05 14.46 0.42 0 14.15 14.56 0.33 0 14.25 14.54 0.24 0.02 14.34 14.52 0.15 0.03 14.41 14.53 0.09 0.02 43.6 14.33 0.02c0.56,37.27 1.56,79.3 0.85,116.33l-14.47 0.01 0 43.58 -14.51 0.02 -0.02 14.5 -14.49 0.04 -0.04 14.49 -14.48 0.05 -0.05 14.47 -14.46 0.07 -0.06 14.42 -14.71 0.37 -0.02 14.27 -43.55 0.18 -0.04 14.37 -102.4 -0.02 -0.33 -14.51 -43.27 0 -0.23 -14.51 -13.53 -0.02 -0.08 14.49 -29.25 0.26 -0.01 14.32c-10.45,0 -35.58,1.26 -44.32,-0.48l0.1 -43.66 14.44 -0.18 0.04 -28.95 14.69 -0.41 -0.04 -13.46 -14.66 -0.06 0.66 -44.17 -14.47 -0.15c-1.01,-32.53 -0.09,-81.55 -0.09,-115.85l14.5 -0.21 0.36 -43.21 14.22 -0.56 0.22 -14.01 14.35 -0.45 0.11 -14.13 14.46 -0.34 0 -14.26 14.55 -0.23 0.02 -14.33 14.49 -0.15 -0.1 -14.41 43.77 0 0.04 -14.56zm-160.14 246.82l14.49 0.06 -0 43.52 14.52 0.09 0.02 29.38 -14.52 0.26 -0.01 43.36 -14.52 0.17 0.15 43.29 43.23 -0.18 0.04 -14.35 43.54 -0.1 0.06 -14.45 29.35 0.17 0.83 14.38 42.78 0 0.29 14.54 101.27 -0.24 0.03 -14.29 43.54 -0.15 0.05 -14.39 28.99 -0.09 0.07 -14.44 14.41 -0.06 0.41 -14.64 14.21 -0.15 0.25 -14.39 14.29 -0.09 0.19 -14.45 14.35 -0.03 0.08 -29.05 14.47 0 0 -43.6 14.43 -0.01 0.04 -116.32 -14.12 -0.05 -0.21 -43.63 -14.34 0 -0.07 -29.11 -14.49 -0.01 0 -14.53 -14.55 -0.03 0 -14.51 -14.53 -0.05 -0.02 -14.49 -14.51 -0.07 -0.04 -14.51 -29.03 -0.05 -0.08 -14.49 -43.46 -0.4 -0.04 -14.23 -102.15 0.04 -0.33 14.52 -43.34 0 -0.19 14.54 -28.92 0.02 -0.11 14.49 -14.45 0.06 -0.04 14.47 -14.51 0.08 0 14.45 -14.55 0.1 0.01 14.43 -14.54 0.13 -0.01 28.92 -14.39 0.56 -0.01 43.28 -14.58 0.27 0.28 116.03z"/>
    <path fill="white" d="M233.41 211.25l14.18 -0.02 -0.17 -58.86 -14.38 -0.13 -0.42 -14.45 -43.86 0 -0.02 14.53 -14.53 0.03 -0.03 29.07 -14.22 0.06c-0.86,6.13 -0.99,54.25 0.29,58.61l13.9 0.27 0.38 43.43 14.18 0.14 0.2 28.99 14.35 0.05 0.15 14.52 14.42 0 0.04 14.55 14.52 0.01 0 14.43 29.67 0.02 0.02 13.94 29.03 0.02 0.03 14.53 43.05 -0.37 0.11 -14.13 28.81 -0.3 0.67 -57.74 -14.49 -0.14 -0.07 -13.98c-4.31,-1.13 -39.44,-1.1 -44.03,-0.08l-0.27 14.07 -28.22 -0.26 -0.03 -14.29 -14.5 -0.2 -0.05 -14.37 -14.51 -0.13 -0.04 -29.01 -14.45 -0.06 -0.11 -14.51 -14.47 -0.01 0.39 -13.69 14.03 -0 0.43 -14.55z"/>
   </g>
  </g>
 </g>
</svg>
