<?xml version="1.0" encoding="UTF-8"?>
<!DOCTYPE svg PUBLIC "-//W3C//DTD SVG 1.1//EN" "http://www.w3.org/Graphics/SVG/1.1/DTD/svg11.dtd">
<!-- Creator: CorelDRAW 2018 (64 Bit Versão de avaliação) -->
<svg xmlns="http://www.w3.org/2000/svg" xml:space="preserve" width="113.623mm" height="11.3452mm" version="1.1" shape-rendering="geometricPrecision" text-rendering="geometricPrecision" image-rendering="optimizeQuality" fill-rule="evenodd" clip-rule="evenodd"
viewBox="0 0 11362.26 1134.52"
 xmlns:xlink="http://www.w3.org/1999/xlink">
 <g id="Camada_x0020_1">
  <metadata id="CorelCorpID_0Corel-Layer"/>
  <path fill="#6699FF" d="M339.59 1041.39c-1.25,11.46 -3.59,9.27 7.54,5.92l10668 0c11.13,3.35 8.79,5.54 7.54,-5.92l1.52 -90.21 113.85 -1.53 0.06 -95.5 114.09 0.12 1.73 -7.61 0.04 -558.8 -1.77 -7.7 -125.77 2.62c-19.37,74.54 -2.43,305.95 -8.16,406.47l-59.67 2.37 -4.17 95.8 -112.05 6.52 -4.07 94.07 -112.82 -0.25 -0.07 41.07 -10484.43 6.51 -1.39 106.05z"/>
  <g id="_1442191313392">
   <path fill="#4974F5" d="M339.59 1041.39l1.39 -106.05 10484.43 -6.51 0.07 -41.07 112.82 0.25 4.07 -94.07 112.05 -6.52 4.17 -95.8 59.67 -2.37c5.73,-100.52 -11.21,-331.93 8.16,-406.47l125.77 -2.62c0,-120.85 8.32,-93.9 -118.53,-93.9l0 -93.13c-126.29,0 -118.53,27.02 -118.53,-93.13l-10668 0c0,120.15 7.76,93.13 -118.53,93.13l0 93.13c-132.08,0 -118.53,-26.08 -118.53,101.6l-110.07 0 0 558.8 110.07 0c0,127.68 -13.55,101.6 118.53,101.6l0 93.13 110.99 0z"/>
   <polygon fill="#4974F5" points="11015.13,1047.31 347.13,1047.31 347.13,1134.52 11015.13,1134.52 "/>
   <polygon fill="#4974F5" points="11253.92,846.66 11362.26,846.66 11362.26,287.86 11253.96,287.86 "/>
   <path fill="#4974F5" d="M11138.04 949.65c121.36,-9.7 114.15,35.14 114.15,-95.38l-114.09 -0.12 -0.06 95.5z"/>
   <polygon fill="#4974F5" points="11022.67,1041.39 11133.66,1041.39 11138.04,949.65 11024.19,951.18 "/>
  </g>
 </g>
</svg>
