<?xml version="1.0" encoding="UTF-8"?>
<!DOCTYPE svg PUBLIC "-//W3C//DTD SVG 1.1//EN" "http://www.w3.org/Graphics/SVG/1.1/DTD/svg11.dtd">
<!-- Creator: CorelDRAW 2018 (64 Bit Versão de avaliação) -->
<svg xmlns="http://www.w3.org/2000/svg" xml:space="preserve" width="82.8038mm" height="25.2306mm" version="1.1" shape-rendering="geometricPrecision" text-rendering="geometricPrecision" image-rendering="optimizeQuality" fill-rule="evenodd" clip-rule="evenodd"
viewBox="0 0 9009.72 2745.29"
 xmlns:xlink="http://www.w3.org/1999/xlink">
 <g id="Camada_x0020_1">
  <metadata id="CorelCorpID_0Corel-Layer"/>
  <g id="_1476787951168">
   <path fill="#F1F1F0" d="M707.76 2284.32l7235.42 0.01 0.28 -111.19c147.49,-21.33 231.3,46.49 236.32,-53.48 0.92,-18.63 -0.74,-45.55 -0.81,-65.28 -0.13,-40.08 -0.01,-80.2 -0.01,-120.3l229.81 -0.47 6.45 -235.34 126.55 -0.4 3.47 -988.5 -3.32 -0.36c-22.47,-32.53 -10.42,-189.73 -10.42,-229.9 -40.84,0 -201.06,12.99 -229.39,-12.34l-0.18 -230.15 -7593.7 3.02 -0.55 232.31 -226.38 0.47c-8.56,73.55 13.45,167.95 -10.02,233.38 -68.1,9.51 -163.42,-12.75 -228.04,9.66l0 1317.42c71.26,13.88 166.35,-12.25 228.04,10.14 24.69,56.6 1.84,159.97 10.04,229.85 44.5,0.03 207.14,-19.48 226.43,11.46z"/>
   <path fill="#F79635" d="M8302.13 466.76l238.21 5.29 1.6 236.95 3.32 0.36 227.84 -1.44 0 1329.33 -228.96 0.63c-13.54,49.63 -10.57,190.91 -1.64,240.18l-240.44 -4.68 0.55 235.3 -7602.46 -0.01 7.62 -224.36c-19.29,-30.93 -181.93,-11.42 -226.43,-11.46 -8.2,-69.88 14.65,-173.24 -10.04,-229.85 -61.69,-22.39 -156.78,3.74 -228.04,-10.14l0 -1317.42c64.62,-22.41 159.94,-0.15 228.04,-9.66 23.47,-65.44 1.46,-159.83 10.02,-233.38l226.38 -0.47 0.55 -232.31 7593.7 -3.02 0.18 230.15zm-7601.98 -236.45l-230.31 0c0,70.59 -15.04,167.64 9.16,230.3l-248.68 0 0 239.52 -230.31 0 0 1345.02c70.61,0 167.64,-15.05 230.31,9.16l-9.22 230.36 257.95 0c-24.25,62.66 -9.22,159.71 -9.22,230.3l230.31 0 0 230.31 7609.43 0 0 -230.31 239.53 0 0 -230.3c26.88,0 216.9,4.41 225.11,-3.5 13.11,-12.65 5.19,-195.22 5.19,-236.02l230.31 0 0 -1345.02 -230.31 0 0 -239.52 -230.3 0 0 -230.3c-73.1,0 -174.57,-15.93 -239.53,9.16l0 -239.48 -7609.43 0 0 230.31z"/>
   <path fill="#FCC284" d="M707.76 2284.32l-7.62 224.36 7602.46 0.01 -0.55 -235.3 240.44 4.68c-8.92,-49.27 -11.89,-190.56 1.64,-240.18l228.96 -0.63 0 -1329.33 -227.84 1.44 -3.47 988.5 -126.55 0.4 -6.45 235.34 -229.81 0.47c0,40.1 -0.12,80.21 0.01,120.3 0.07,19.74 1.73,46.66 0.81,65.28 -5.02,99.97 -88.83,32.15 -236.32,53.48l-0.28 111.19 -7235.42 -0.01z"/>
   <path fill="#F4D8BB" d="M8541.94 709l-1.6 -236.95 -238.21 -5.29c28.33,25.33 188.55,12.34 229.39,12.34 0,40.17 -12.05,197.37 10.42,229.9z"/>
  </g>
 </g>
</svg>
