<?xml version="1.0" encoding="UTF-8"?>
<!DOCTYPE svg PUBLIC "-//W3C//DTD SVG 1.1//EN" "http://www.w3.org/Graphics/SVG/1.1/DTD/svg11.dtd">
<!-- Creator: CorelDRAW 2018 (64 Bit Versão de avaliação) -->
<svg xmlns="http://www.w3.org/2000/svg" xml:space="preserve" width="50mm" height="50mm" version="1.1" shape-rendering="geometricPrecision" text-rendering="geometricPrecision" image-rendering="optimizeQuality" fill-rule="evenodd" clip-rule="evenodd"
viewBox="0 0 5000 5000"
 xmlns:xlink="http://www.w3.org/1999/xlink">
 <g id="Camada_x0020_1">
  <metadata id="CorelCorpID_0Corel-Layer"/>
  <g id="_2506077760496">
   <path fill="black" d="M1023.68 2273.52c17.09,-26.97 -684.74,-202.15 -662.41,-228.68 44.21,-52.4 810.98,43.85 880.25,-1.09l-123.27 132.31c-18,30.37 -57.65,67.86 -95.25,98.66 -0.46,0.33 0.45,-0.87 0.68,-1.2z"/>
   <path fill="black" d="M1331.52 3604.13l8.66 13.15c0.33,0.33 -0.87,-0.88 -1.2,-1.09 -33.33,-20.28 -382.15,274.16 -404.51,244.13 -32.45,-43.74 252.13,-404.18 241.83,-466.78 -0.22,-1.86 -2.3,-5.92 -1.65,-4.71 83.43,135.38 91.32,117.4 156.87,215.3z"/>
   <path fill="black" d="M1705.01 3867.88l8.66 13.16c0.33,0.32 -0.88,-0.88 -1.2,-1.1 -33.33,-20.28 -382.15,274.17 -404.51,244.13 -32.45,-43.74 252.13,-404.18 241.82,-466.78 -0.21,-1.86 -2.3,-5.92 -1.64,-4.71 83.42,135.39 91.32,117.41 156.87,215.3z"/>
   <path fill="black" d="M2178.58 4202.72l12.6 9.45c0.42,0.2 -1.12,-0.53 -1.5,-0.62 -38.23,-7.82 -266.91,387.26 -298.11,366.55 -45.33,-30.19 100.58,-465.63 69.71,-521.06 -0.84,-1.68 -4.17,-4.79 -3.14,-3.88 124.29,99.2 125.64,79.61 220.44,149.56z"/>
   <path fill="black" d="M3387.55 4224.07l15.52 2.69c0.46,-0.02 -1.24,0.04 -1.63,0.13 -37.59,10.43 -61.47,466.29 -98.67,462.05 -54.1,-6.26 -122.31,-460.41 -175.01,-495.72 -1.51,-1.11 -5.89,-2.37 -4.56,-2.02 155.81,31.77 148.1,13.72 264.35,32.87z"/>
   <path fill="white" d="M2775.15 692.42c410.98,592.19 374.7,1142.28 374.7,1142.28 0,0 163.12,-785.79 555.9,-948.9 392.78,-163.12 894.31,-60.41 930.59,187.34 36.29,247.75 -278,694.9 -489.47,839.94 -211.46,145.03 -368.55,284.03 -368.55,284.03l-918.54 -78.49 -598.21 -356.6c-1575.4,-1598.97 43.52,-1746.96 513.58,-1069.6z"/>
   <ellipse fill="#EBB22D" transform="matrix(10.8062 6.27825 -6.27825 10.8062 2682.63 2965.09)" rx="148.56" ry="111.07"/>
   <path fill="black" fill-rule="nonzero" d="M3414.26 1721.56c450.11,263.32 779.2,638.67 947.04,1032.99 168.6,396.39 175.5,812.85 -18.53,1157.51l-7.45 13.15c-201.6,347.18 -571.03,552.18 -1004.37,602.49 -423.59,49.23 -910.1,-49.44 -1359.99,-307.49l-13.05 -7.45c-453.73,-263.65 -785.12,-640.86 -953.83,-1037.15 -170.9,-401.44 -175.84,-823.49 25.87,-1170.67 201.6,-347.18 571.03,-552.17 1004.26,-602.49 427.75,-49.66 919.41,51.52 1373.03,314.95l7.02 4.16zm846.4 1075.74c-159.83,-375.46 -475.22,-733.6 -907.9,-984.97l-7.02 -4.05c-430.82,-248.41 -895.4,-344 -1299.03,-297.08 -399.58,46.48 -738.86,233.17 -922.05,548.55 -183.4,315.72 -177.59,702.8 -19.95,1073.11 158.3,371.73 469.19,726.69 895.3,977.73l12.82 7.45c432.69,251.48 900.12,348.06 1305.62,300.92 398.04,-46.26 736.12,-231.64 919.85,-544.61l2.3 -4.06c183.4,-315.71 177.59,-702.79 20.06,-1072.99z"/>
   <circle fill="black" cx="2764.96" cy="3300.8" r="80.68"/>
   <circle fill="black" cx="3870.73" cy="3625.28" r="80.68"/>
   <path fill="black" d="M3216.72 3863.17c123.65,24.22 263.09,12.49 260.9,23.9 -2.19,11.4 -145.36,41.87 -269.01,17.64 -123.66,-24.22 -222.21,-103.15 -220.02,-114.55 2.19,-11.4 104.47,48.78 228.13,73.01z"/>
   <path fill="black" d="M1102.74 3258.39c-70.12,-110.96 -118.46,-366.36 -156.51,-481.08 -8.18,-312.62 331.28,-1029.36 1006.54,-1291.48 138.71,10.99 371.32,-46.42 513.56,-8.35 -760.1,252.55 -1157.41,981 -1363.59,1780.91z"/>
   <path fill="black" d="M3279.75 1699.64c100.31,58.32 -242.38,-102.83 -166.19,-45.82 -981.46,241.94 -1427.84,1156.63 -1587.13,2168.02 -139.44,-106.55 -156.87,-173.75 -262.11,-299.27 131,-951.75 568.4,-1733.92 1372.93,-2039.66 118.61,45.83 542.2,158.41 642.5,216.73z"/>
  </g>
 </g>
</svg>
