<?xml version="1.0" encoding="UTF-8"?>
<!DOCTYPE svg PUBLIC "-//W3C//DTD SVG 1.1//EN" "http://www.w3.org/Graphics/SVG/1.1/DTD/svg11.dtd">
<!-- Creator: CorelDRAW 2018 (64 Bit Versão de avaliação) -->
<svg xmlns="http://www.w3.org/2000/svg" xml:space="preserve" width="51.2713mm" height="56.6953mm" version="1.1" shape-rendering="geometricPrecision" text-rendering="geometricPrecision" image-rendering="optimizeQuality" fill-rule="evenodd" clip-rule="evenodd"
viewBox="0 0 5313.13 5875.21"
 xmlns:xlink="http://www.w3.org/1999/xlink">
 <g id="Camada_x0020_1">
  <metadata id="CorelCorpID_0Corel-Layer"/>
  <path fill="#748B25" d="M2795.14 3504.39l150.92 2.42 0.99 -152.06 -150.85 -1.38c17.8,13.3 -20.06,10.67 32.09,12.73l104.7 2.18 -2.47 123.8c-47.89,4.62 -101.33,-4.77 -135.39,12.31z"/>
  <path fill="#748B25" d="M749.02 4698.55c-20.5,-34.54 -8.15,-28.53 -110.03,-27.09 -23.45,-83.05 14.93,-91.35 -23.99,-113.42l10 135.25 124.02 5.25z"/>
  <path fill="#748B25" d="M2356.73 3952l150.93 -5.67 3.33 -149.31c-17.05,15.94 -11.24,-22.76 -16.82,32.11l-0.97 102.22 -104.02 4.44c-59.18,3.27 -13.59,-1.94 -32.45,16.21z"/>
  <path fill="#748B25" d="M915.48 4994c41.08,14.27 98.47,10.26 144.27,6.41 -17.99,-13.89 23.04,-4.97 -27.94,-10.97l-108.73 0.34c0,-88.64 14.51,-126.78 -19.71,-141.16l12.1 145.38z"/>
  <path fill="#748B25" d="M4940.4 1742.53l-5.24 -146.51 -72.16 -6.35 -0.02 -63.69c-1.02,-49.46 2.61,-4.44 -14.33,-24.47l4.3 96.65 71.69 6.13 1.18 104.47c5.41,37.77 2.07,18.99 14.58,33.76z"/>
  <path fill="#748B25" d="M4393.66 1031.96c20.86,-15.7 14.6,20.89 18.96,-30.89l1.67 -120.5 31.57 3.39 -1.48 -14.09 -42.14 -1.08 -8.58 163.17z"/>
  <polygon fill="#748B25" points="1917.59,4377.45 1916.97,4382.39 2067.66,4384.07 2071.43,4239.05 2058.81,4268.37 2054.45,4371.9 "/>
  <polygon fill="#748B25" points="776.31,4845.59 887.23,4850.52 879.12,4831.11 782.49,4818.63 "/>
  <polygon fill="#346A46" points="2354.41,4234.26 2365.3,4233.24 2364.76,4097.61 2503.52,4093.65 2504.47,4082.56 2353.57,4085.15 "/>
  <path fill="#586914" d="M312.96 4122.33l-1.68 -173.68c-45.43,-4.49 -55.66,-0.26 -86.35,-15.66l3.29 34.02 61.99 6.52c8.44,54.69 -0.29,109.62 0.4,113.79 6.68,39.81 -8.74,19.42 22.35,35.01z"/>
  <path fill="#586914" d="M5093.75 2180.57l-7.43 -146.75 -71.85 -10.42 0.47 -100.11c-11.5,-60.27 2.77,-10.97 -18.36,-33.94l8.66 145.48 71.08 4.6 -0.03 108.49c9.26,53.12 -3.85,12.85 17.46,32.65z"/>
  <path fill="#586914" d="M451.66 4411.48c5.32,-66.12 13.16,-119.17 -6.96,-175.2l-73.49 -1.39 6.63 28.81 63.2 0c0.74,27.04 1.37,53.01 0.61,79.91 -1.96,69.21 -8.08,51.54 10.01,67.88z"/>
  <path fill="#586914" d="M3962.48 2043.6c15.1,-14.59 11.75,21.7 12.48,-24.85l0.52 -116.73 39.62 -3.43 0.34 -17.74 -50.5 13.91 -2.46 148.84z"/>
  <polygon fill="#586914" points="4402.24,868.78 4444.38,869.86 4441.1,834.52 4406.02,833.77 "/>
  <path fill="#67B4B5" d="M1329.33 5425.29c5.5,-37.03 4.95,-9.89 -11.21,-22.16l-107.1 0.62c0,19.32 31.33,9.97 53.38,10.98 36.5,1.68 36.17,4 64.93,10.55z"/>
  <path fill="#8E9491" d="M3086.94 3505.83l587.28 0.84 0.25 -148.01c-9.7,11.84 -7.76,-21.1 -13.95,31.29l-3.43 103.38 -553.79 0.22 -0.97 -103.61c-4.63,-67.06 1.19,-16.49 -17.05,-34.11l1.66 150.01z"/>
  <path fill="#8E9491" d="M611.26 4557.75c-7.11,-12.05 -9.87,-16.48 -10.8,-29.89l-82.97 -6.6 0.78 32.7 93 3.78z"/>
  <path fill="#AFB229" d="M782.49 4818.63l96.62 12.48 8.11 19.41 17.95 -1.18 -8.6 -30.06 -112.19 -7.76c-8.01,-46.14 10.12,-104.95 -25.53,-114.84l0.89 12.6c25.14,-17.82 13.26,22.92 14.53,51.49 1.54,34.82 -3.76,23.03 8.22,57.87z"/>
  <path fill="#AFB229" d="M4527.77 1022.09l-7.24 -93.93 -74.55 -3.17c26.81,14.55 26.63,9.12 64.64,9.12l0 66.95c1.82,43.21 -3.04,4.51 17.15,21.03z"/>
  <polygon fill="#2D6E90" points="1764.41,577.76 1752.28,451.44 1646.26,440.35 1648.19,576.85 "/>
  <path fill="#2D6E90" d="M3232.25 5714.7c14.69,-21.29 11.06,-11.88 11.31,-64.04 0.1,-22.57 0,-44.11 0.6,-66.6l283.38 1.88 -2.1 -144.7c-22.36,23.35 -13.1,79.25 -14.49,127.59l-277.11 9.13 -1.59 136.75z"/>
  <path fill="#2D6E90" d="M1796.14 591.11l113.07 7.87 -0.83 -22.35 -126.72 -3.47c12.45,20.7 -5.76,13.77 14.48,17.96z"/>
  <path fill="#2D6E90" d="M1643.98 436.26l-3.61 -6.94 -5.77 -91.58 130.26 -0.21c20.45,0.75 17.18,6.62 15.81,-11.42l-147.6 2.7c-3.48,19.78 -5.84,30.15 -5.89,51.16 -0.11,50.72 6.84,45.13 16.79,56.28z"/>
  <path fill="#2D6E90" d="M2055.08 860.4l12.72 2.74c0,-53.39 8.41,-83.82 -13.93,-129.88l-116.84 -9.89 2.88 0.23c29.21,11.29 71,10.75 114.72,11.99l0.46 124.81z"/>
  <polygon fill="#CED435" points="4390.35,3058.27 4259.94,3049.32 4259.53,2937.03 4128.53,2927.87 4129.02,3055.05 "/>
  <path fill="#CED435" d="M451.66 4411.48l61.11 -0.75 4.72 110.53 82.97 6.6 -4.05 -139.4 -112.06 -3.97 -12.41 -8.96 0 -117.89c-21.52,-25.77 27.88,-21.37 -27.23,-21.37 20.12,56.03 12.28,109.08 6.96,175.2z"/>
  <path fill="#CED435" d="M1624.16 4670.05c56.8,-19.08 71.99,-5.52 125.8,-15.32l11.86 -119.94 -126.79 7.27c-3.05,52.47 3.46,75.78 -10.87,127.98z"/>
  <path fill="#CED435" d="M224.92 3933c30.69,15.4 40.92,11.17 86.35,15.66 -21.21,-57.45 -12.53,-77.54 -15.11,-137.23l-81.22 -2.42c-6.33,-25.02 -8.78,-9.24 -23.29,-22.64l0.79 32.1c42.23,21.51 18.46,-6.42 34.76,32.11l-2.28 82.43z"/>
  <path fill="#CED435" d="M1917.59 4377.45l136.86 -5.54 4.36 -103.53 12.61 -29.32 136.86 -4.49 2.74 -139.76c-26.73,12.63 -20.64,-21.43 -20.64,124.62 -57.99,0 -97.88,-9.41 -139.39,16.79l-6.05 128.22c-67.11,0.8 -76.4,-5.65 -127.35,13.02z"/>
  <path fill="#CED435" d="M2649.11 3654.14l142.48 -8.1 3.55 -141.65 -14.55 -2.25 -8.34 131.98 -93.9 0.02c-57.43,7.39 -13.42,-1.1 -29.24,20z"/>
  <path fill="#CED435" d="M1776.94 4525.35l139.27 -2.08 0.77 -140.88c-23.72,-7.96 -21.91,-23.82 -20.99,68.56 0.19,19.25 0.59,38.29 0.51,57.62 -29.82,4.85 -35.25,3.4 -64.79,4.08 -7.66,0.19 -25.25,-0.15 -31.92,1.26 -23.56,4.97 -14.91,2.06 -22.84,11.44z"/>
  <path fill="#B09012" d="M5145.95 2766.2l5.31 292.81 -606.59 -3.4 -154.32 2.66 -261.33 -3.22 -0.49 -127.18 -0.68 -15.95c-2.64,-76.31 -0.78,-152.66 -1.13,-229.01 -0.17,-35.83 -1.32,-71.26 -1.06,-107.13 0.6,-84.38 9.6,-81.95 -16.59,-94.62l6.42 587.4 1048.24 -0.93 -1.67 -277.59c0.53,-43.66 3.98,-10.24 -16.11,-23.84z"/>
  <path fill="#B09012" d="M4112.51 1752.97c15.36,-16.38 10.87,30.17 15.71,-34.17l-0.01 -108.01c36.17,-1.34 68.3,6.25 89.98,-11.98l-100.9 4.04 -4.78 150.12z"/>
  <path fill="#B09012" d="M4305.15 1322.82c16.2,-8.15 11.95,17.93 13.17,-22.49l-0.15 -115.72 75.52 -0.08 2.29 -11.04 -88.6 1.54 -2.24 147.78z"/>
  <path fill="#D1CEB1" d="M3813.72 3207.6l142.58 -5.84c11.83,-111.82 7.46,-460.64 11.15,-625.96 2.8,-125.81 -0.35,-71.96 -21.06,-88.82 15.76,82.07 2.53,262.18 2.52,356.62 0,285.93 22.1,223.03 -126.9,232.9l-8.29 131.1z"/>
  <path fill="#D1CEB1" d="M3674.47 3358.66l135.69 0.31 6.54 -145.74c-32.48,38.39 -7.69,50.09 -20.23,128.42l-89.91 0.85c-66.82,5.94 -17.16,-0.29 -32.09,16.17z"/>
  <path fill="#2B91B1" d="M1915.06 729.05l21.97 -5.68 116.84 9.89c22.34,46.05 13.93,76.49 13.93,129.88l-3.08 12.66 24.66 1.09 107.91 12.42 7.97 133.13 4.81 -0.89 28.32 0.78 2.89 144.43 121.87 -2.44c-9.76,-53.96 2.04,-105.66 -17.42,-141.82l-121.96 -13.51c-25.8,-89.04 33.02,-143.21 -69.45,-145.83 -29.23,-0.75 -48.22,-0.16 -78.23,-3.13 -4.57,-47.69 2.87,-107.92 -14.22,-142.07l-132.2 -6.75c-1.89,-110.85 8.84,-109.59 -21.3,-134.58l0.83 22.35 5.85 130.07z"/>
  <path fill="#2B91B1" d="M4099.38 1298.55l-7.9 141.69c-21.11,9.67 -21.95,15.6 -23.7,17.03l42.75 1.05 5.15 -135.89 44.18 -16.69 2.86 -135.7 -38.45 -1.18c-32.03,50.6 0.16,108.71 -24.89,129.7z"/>
  <polygon fill="#2B91B1" points="1646.26,440.35 1752.28,451.44 1764.41,577.76 1783.34,577.34 1775.38,444.02 1765.63,433.26 1640.38,429.32 1643.98,436.26 "/>
  <path fill="#2B91B1" d="M2065.72 4521.21c13.22,-11.34 9.29,28.67 12.52,-27.9l1.03 -94.54 95.7 -0.13c58,-5.95 14.21,0.05 31.65,-16.56l-138.94 1.99 -1.95 137.14z"/>
  <path fill="#2B91B1" d="M3407.02 226.21l-4.31 -45.09 -150.61 -6.22c17.62,21.13 -25.22,8.56 36.09,17.12 74.1,10.33 35.93,-25.81 110.51,28.78 1.89,1.38 5.54,3.61 8.32,5.41z"/>
  <path fill="#2B91B1" d="M3709.55 356.28l-4 -59.7 -149.32 -4.05c26.35,14.9 14.83,9.52 53.37,11.01 26.98,1.03 48.33,1.68 75.53,4.41 2.58,6.15 5.26,18.16 6.04,19.91l12.29 22.26c1.08,1.62 4.02,4.15 6.08,6.17z"/>
  <polygon fill="#2B91B1" points="4145.77,588.07 4144.41,549.79 4103.86,549.25 4111.43,584.66 "/>
  <path fill="#2B91B1" d="M3375.7 5735.95c-27.63,-14.21 -27.63,-10.64 -65.34,-10.95 -9.35,-0.08 -34.78,-0.19 -43.04,1.02 -17.54,2.55 -18.01,6.34 -24.87,9.94l133.24 0z"/>
  <path fill="#2B91B1" d="M2221.32 133.37c-41.74,0 -16.54,-3.98 -24.94,13.55 44.12,-0.98 13.96,3.21 24.94,-13.55z"/>
  <path fill="#975E26" d="M3830.01 2476.99c5.51,17.01 -8.57,5.91 16.57,10.28 5.95,1.04 23.84,1.12 30.64,1.21 22.9,0.35 46.53,-0.48 69.17,-1.51 20.7,16.86 23.86,-37 21.06,88.82 -3.69,165.33 0.68,514.14 -11.15,625.96l-142.58 5.84 2.97 5.63 -6.54 145.74 13.96 1.99 0.92 -145.79 143.13 -0.57 0.05 145.97c13.01,-31.84 7.39,-94.8 8.72,-141.24l1153.71 4.11 6.51 127.61 25.19 -2.94 -2.95 -136.34 -1187.51 -0.58 5.41 -730.31 -0.38 -119.33c-9.27,-47.14 -2.72,-17.48 -18.1,-29.24l0.28 15.08c12.39,35.23 7.39,86.5 6.99,128.8l-136.06 0.82z"/>
  <path fill="#975E26" d="M3674.2 5570.41c20.46,15.96 -12.11,7.95 33.6,13.1l110.23 -4.74 4.28 -32.12 7.06 -93.11c25.46,-2.34 44.66,-2.36 70.18,-1.96 33.41,0.53 63.12,11.93 63.46,-14.67 -44.24,12.35 -102.86,14.2 -143.9,3.07l-9.51 59.74c-0.65,23.33 0.66,48.97 0.89,72.72l-136.28 -2.02z"/>
  <polygon fill="#975E26" points="2647.44,1738.37 2647.33,1602.29 2502.5,1599.54 2527.64,1614.59 2633.13,1614.76 "/>
  <polygon fill="#253C53" points="1915.06,729.05 1909.21,598.98 1796.14,591.11 1795.28,727.71 "/>
  <polygon fill="#253C53" points="2089.68,1012.01 2205.26,1022.44 2197.29,889.31 2089.38,876.89 "/>
  <path fill="#253C53" d="M1942.36 856.43l112.73 3.97 -0.46 -124.81c-43.72,-1.24 -85.5,-0.7 -114.72,-11.99l2.45 132.83z"/>
  <path fill="#253C53" d="M1917.21 4677.86l13.39 -23.32 -0.54 -118.04 105.66 -0.31c53.69,-5.21 13.82,0.13 30,-14.98l-149.51 2.06 -139.27 2.08 1.61 11.6 141.58 -0.55 -2.91 141.46z"/>
  <path fill="#253C53" d="M2207.14 291.88c38.12,-15.1 12.03,-3.11 22.68,-101.75 35.11,-0.15 115.16,10.18 139.11,-10.76l14.99 -17.98c1.13,-1.33 3.34,-4.38 5.24,-6.36l136.13 2c-11.87,-13.46 20.31,-10.45 -29.03,-13.56l-117.81 -0.06 -27.84 38.01 -127.47 -1.9 -16 112.36z"/>
  <polygon fill="#253C53" points="2646.66,1465.9 2648.27,1448.48 2541.82,1450.31 2536.13,1312.2 2520.53,1311.63 2530.74,1457.75 "/>
  <path fill="#253C53" d="M2796.96 3796.46l8.9 -137.15 135.44 -4.27 1.94 -7.23 -151.65 -1.76c-3.15,49.48 -7.53,105.3 5.37,150.42z"/>
  <path fill="#253C53" d="M3998.25 455.99c-36.21,-19.93 -97.56,-10.49 -138.99,-11.38 -1.47,-79.65 4.12,-72.92 -19.97,-85.16l11.52 90.18 147.43 6.36z"/>
  <path fill="#253C53" d="M332.75 4414.2l32.48 -0.62 -2.97 87.08c26.26,-16.55 15.37,-72.53 2.63,-97.83 -30,-2.81 9.19,-12.85 -21.34,-0.68 -19.37,7.72 -13.38,5.84 -24.77,16.19l13.97 -4.12z"/>
  <path fill="#4C2C29" d="M2944.77 2036.64l-143.81 -0.99c11.22,12.27 -20.04,8.75 27.34,11.96l105.84 1.94 7.19 281.39 -113.02 1.01 -31.06 10.17 138.19 0.01 -0.45 140.7c14.8,-14.67 11.17,20.92 12.37,-24.85l0.73 -116.71 147.92 -5.06c0,-24.39 -101.7,-13.91 -141.75,-12.01l-2.69 -278.61 865.46 -0.83 -1.72 280.5 -142.58 -5.36c16.98,32.1 -6.75,10.63 23.48,19.59l116.76 3.1 1.54 104.67c2.49,57.75 -2.18,13.22 15.51,29.75l5.53 -131.87 123.53 2.25 -0.28 -15.08 -132.05 -2.69 2.77 -284.51c-4.28,-178.21 -10.03,-120.35 37.89,-156.93l-49.21 8.42 -3.96 143.3 -869.46 -3.24z"/>
  <path fill="#4C2C29" d="M1917.26 869.19c33.78,35.38 21.45,57.41 17.32,144.36l14.2 -0.18 1.88 -136.89 114.07 -0.68 3.08 -12.66 -12.72 -2.74 -112.73 -3.97 -25.1 12.76z"/>
  <path fill="#4C2C29" d="M2096.86 1164.49l0.24 -140.99 112.98 -1.95 -4.81 0.89 -115.59 -10.44 -140.9 1.37 134.34 12.7c12.07,54.39 -3.63,97.62 13.74,138.41z"/>
  <path fill="#D0411C" d="M2774.8 2480.99l22.81 2.12 -0.36 -141.02 31.06 -10.17 113.02 -1.01 -7.19 -281.39 -105.84 -1.94c-47.38,-3.21 -16.11,0.31 -27.34,-11.96l-9.66 -27.62 -3.69 -104.61 -138.62 -5.49c12.03,10.44 -18.41,8.8 29.37,10.94l98.74 0c0.16,105.2 11.52,175.92 13.17,281.28 1.67,106.24 -15.46,183.6 -15.46,290.85z"/>
  <path fill="#D0411C" d="M2648.99 1897.92l-0.63 -9.64 -0.91 -149.92 -14.31 -123.61 -105.49 -0.17 -25.14 -15.06 -7.05 -128.1c-71.6,-10.63 -66.69,5.91 -133.37,-24.88l-11.22 -135.67 -111.22 -1.79 -2.01 -140.09 -140.77 -4.51c-17.37,-40.79 -1.67,-84.01 -13.74,-138.41l-134.34 -12.7 -14.2 0.18c36.56,27.61 31.03,18.44 118.24,16.13l1.03 134.23c72.07,20.91 69.75,15.99 141.14,19.26l4.99 133.12c35.16,16.1 92.8,10.36 140.19,10.36 0,135.48 -11.87,143.65 69.99,145.92 25.58,0.7 48.9,0.1 74.9,1.52 0,159.59 17.9,118.43 17.42,213.08 -0.49,96.76 22.49,61.9 133.47,71.98 1.02,62.39 -5.1,91.8 13.04,138.76z"/>
  <path fill="#D0411C" d="M3819.1 5439.97c41.04,11.13 99.66,9.29 143.9,-3.07l5.7 -38.65 135.01 -7.51c-0.04,-45.07 -7.83,-63.99 14.87,-90.57l-4.16 -47.43 139.57 4.89 4.9 -119.13c-48.93,21.94 -85.63,9.99 -149.02,15.23l-11.95 130.84c-60.76,7.9 -87.59,-4.28 -143.23,14.86l-3.39 126.21 -105.5 0.98c-58.67,1.99 -16.2,-2.02 -26.69,13.35z"/>
  <path fill="#D0411C" d="M1189.9 584.05l-0.67 20.61c71.06,-14.84 374.76,-20.49 439.55,0l-1.1 86.57c7.67,35.75 5.19,22.64 24.34,41.98l-4 -144.24c-43.52,-13.63 -102.51,-14.26 -144.18,-2.87l-7.35 -147.28 -156.6 -3.17 -5.1 142.79 -144.89 5.61z"/>
  <path fill="#D0411C" d="M3674.2 5570.41l136.28 2.02c-0.23,-23.74 -1.54,-49.39 -0.89,-72.72l9.51 -59.74 -125.37 -5.34 2.06 -124.33c62.54,-11.7 126.67,22.54 123.85,-43.67l-146.83 4.41 1.39 299.36z"/>
  <path fill="#D0411C" d="M4840.88 4376.94l138.22 -3.41 6.1 -435.48c-17.31,18.51 -13.16,7.59 -12.57,73.05 0.23,25.45 0.04,49.72 -0.91,75.14 -2.03,54.38 3.07,106.62 -10.81,157.79l-116.42 4.64 -3.62 128.26z"/>
  <polygon fill="#D0411C" points="501.45,1469.63 585.93,1467.31 603.39,1444.94 606.28,1345.88 505.12,1355.95 "/>
  <path fill="#D0411C" d="M751.73 2770.41c-18.21,-13.76 26.94,-10.55 -33.4,-13.91l-104.97 -0.67 -1.04 -115.72 -35.21 -10.92 4.66 143.71 169.96 -2.49z"/>
  <path fill="#D0411C" d="M887.77 1024.16c19.69,-16.83 9.72,31.83 20.45,-33.8l0.96 -96.49 98.31 -4.9c71.97,-3.56 14.12,2.05 35,-15.91l-151.79 0.54 -2.92 150.56z"/>
  <path fill="#6F2810" d="M22.15 2186.38l142.23 3.71 1.95 433.71c74.67,33.29 307.1,3.52 404.71,16.26l1.56 126.72c-69.77,0 -138.62,1.09 -207.71,1.38l-150.72 0.08c-4.26,0.25 -17.04,0.64 -20.68,1.4 -23.43,4.81 -12.3,-1.27 -23.62,11.32l405.46 1.61 2038.75 -3.75c61.49,-2.98 13.2,1.65 31.48,-16.35l-1893.84 7.95 -169.96 2.49 -4.66 -143.71 -399.44 -8.35 0.1 -430.65 -11.21 -439.25c-1.63,5.32 -16.08,189.78 -16.25,203.16 -0.92,74.67 0.37,150.51 0.37,225.34 -40.92,0 -99.05,-5.19 -128.53,6.94z"/>
  <path fill="#6F2810" d="M2495.45 1471.43c-12.5,-24.37 6.91,-14 -41.29,-17.94 -20.24,-1.66 -39.76,0.55 -63.98,-1.9l-0.02 -141.87 -39.31 1.15 11.22 135.67c66.67,30.79 61.77,14.25 133.37,24.88z"/>
  <polygon fill="#6F2810" points="2800.96,2035.64 2798.72,1891.7 2648.35,1888.28 2648.99,1897.92 2787.61,1903.41 2791.3,2008.03 "/>
  <path fill="#28AED5" d="M3519.39 5280.02c51.44,-13.33 99.5,-9.07 153.42,-8.97l0.44 -1033.68 -148.47 -2.34c-11.3,38.36 2.99,232.74 6.74,294.28l119.3 1.21 1.36 618.08c-23.45,-0.01 -44.38,-0.87 -63.87,-0.58 -57.62,0.88 -60.05,6.46 -62.02,62.09 -1.18,33.32 -0.77,36.96 -6.89,69.91z"/>
  <path fill="#28AED5" d="M4099.38 1298.55c25.05,-20.99 -7.14,-79.1 24.89,-129.7l38.45 1.18 82.3 4.86c7.98,-107.33 24.3,-431.37 2.8,-531.97l-107.15 -3.14 36.4 41.27c35.54,50.01 10.25,12.13 54.66,41.06l3.3 293.21 -73.51 11.04c-4.26,63.94 -9.11,98.76 -55.55,135.4l-6.58 136.79z"/>
  <path fill="#28AED5" d="M2939.14 1894.08l5.63 142.56 869.46 3.24 3.96 -143.3 49.21 -8.42 -0.33 -135.79 96.77 -3.23 -2.56 -149.66c-18.29,18.89 -5.43,-43.9 -18.86,33.63l0.08 98.46 -127.66 20.32c-9.79,32.94 -22.27,218.47 -22.51,273.13l-835.29 6.16 -0.9 -108.83c-7.34,-51.52 0.2,-15.65 -16.99,-28.26z"/>
  <path fill="#28AED5" d="M2798.72 1891.7l144.86 2.73 -12.09 -147.33 -123.92 -2.67 -2.52 -111.32c-4.25,-50.55 -1.39,-16.01 -11.72,-28.8l5.39 287.39z"/>
  <polygon fill="#28AED5" points="2943.24,3647.8 2941.3,3655.04 3092.64,3653.27 3086.94,3505.83 2946.07,3506.82 "/>
  <path fill="#28AED5" d="M2365.3 4233.24l125.74 -0.81c2.78,-58.2 -5.21,-97.53 12.48,-138.78l-138.77 3.96 0.55 135.63z"/>
  <path fill="#28AED5" d="M2390.16 1309.73l127.47 1.09c-20.48,-49.91 -11.09,-81.76 -14.1,-135.85l-123.87 -17.2 10.5 151.96z"/>
  <polygon fill="#28AED5" points="3961.28,1599.47 4069.11,1600.57 4067.78,1457.27 3964.47,1459.85 "/>
  <polygon fill="#28AED5" points="2648.27,1448.48 2643.38,1316.18 2536.13,1312.2 2541.82,1450.31 "/>
  <polygon fill="#28AED5" points="1640.38,429.32 1765.63,433.26 1764.86,337.54 1634.6,337.74 "/>
  <path fill="#28AED5" d="M2504.47 4082.56l-0.94 11.09c38.56,-16.23 9.92,-58.95 23.55,-126.06l87.72 0.11c55.96,-13.64 18.45,-2.92 37.48,-23.75l-144.61 2.38 -3.2 136.23z"/>
  <path fill="#28AED5" d="M2647.33 1602.29l146 2.02c-12.83,-16.52 24.69,-9.18 -29.3,-17.17l-94.38 0 -2.39 -114.1c-12.08,-48.64 2.39,-12 -18.98,-24.56l-1.61 17.42 0.66 136.39z"/>
  <path fill="#28AED5" d="M2652.95 3938.78c27.5,-30.93 17.32,-50.74 17.32,-117.57 103.85,0 115.85,11.63 126.68,-24.76l-139.99 3.98 -4.01 138.34z"/>
  <path fill="#28AED5" d="M2214.01 4376.18c24.83,-29.38 15.25,-57.63 15.25,-118.1l115.34 -2.21c33.52,-12.38 13.63,-6.16 20.7,-22.63l-10.89 1.03 -136.84 4.73 -3.56 137.19z"/>
  <path fill="#F4F537" d="M2646.45 3078.52l-4.61 -156.03 -2063.09 -2.47c49.59,16.26 491.22,8.1 578.72,9.78 204.47,3.92 411,-1.03 614.91,5.19l0.33 117.14 627.19 12.36c58.52,0.1 187.29,-31.13 227.82,0.53 12.67,9.9 0.5,2.27 18.75,13.49z"/>
  <path fill="#F4F537" d="M905.18 4849.33l-1.8 -0.72c34.22,14.38 19.71,52.52 19.71,141.16l108.73 -0.34c50.97,6 9.95,-2.91 27.94,10.97l125.41 -2.81 3.88 -176.65c-90.73,-17.73 -216.4,30.36 -292.46,-1.68l8.6 30.06z"/>
  <path fill="#F4F537" d="M4128.53 2927.87l131 9.16 0.41 112.29 130.41 8.95 154.32 -2.66 5.98 -103.98c-5.54,-27.77 1.58,-3.68 -12.1,-19.67 -24.07,-21.93 -374.58,-19.74 -410.7,-20.04l0.68 15.95z"/>
  <path fill="#F4F537" d="M191.66 3786.35c14.51,13.4 16.95,-2.37 23.29,22.64l81.22 2.42c2.58,59.69 -6.1,79.78 15.11,137.23l1.68 173.68 58.41 -3.06 -0.17 115.61 73.49 1.39c55.11,0 5.71,-4.4 27.23,21.37l0 117.89 12.41 8.96 112.06 3.97 4.05 139.4c0.93,13.41 3.69,17.83 10.8,29.89l3.74 0.29c38.92,22.07 0.54,30.37 23.99,113.42 101.89,-1.44 89.53,-7.45 110.03,27.09l9.83 -1.88c-9.18,-56.1 -7.09,-103.7 -14.49,-165.34l-131.67 -4.84c-21.18,-160.97 39.35,-151 -142.2,-151 -11.31,-99.63 -13.15,-178.89 -19.5,-278.98l-122.35 -3.47c-41.71,-97.04 25.05,-218.56 -30.12,-303.78l-97.99 -1.41c-1.19,-32.79 5.91,-85.22 -10.47,-104.66l1.6 103.16z"/>
  <path fill="#F4F537" d="M2780.59 3502.14l14.55 2.25c34.06,-17.08 87.5,-7.69 135.39,-12.31l2.47 -123.8 -104.7 -2.18c-52.16,-2.05 -14.29,0.57 -32.09,-12.73l-3.13 -113.41c-7.13,-39.54 4.02,-12.9 -24.2,-26.03l11.71 288.21z"/>
  <path fill="#F4F537" d="M3958.8 2332.3l-4.82 -154.83 -116.31 -0.37 -0.24 -115.37 94.05 0c31.46,-9.49 7.4,6.69 31,-18.12l-132.96 1.49 -2.77 284.51 132.05 2.69z"/>
  <path fill="#F4F537" d="M1624.16 4670.05c14.33,-52.2 7.82,-75.51 10.87,-127.98l126.79 -7.27c2.83,-24.92 -4.28,-4.52 15.12,-9.44 7.93,-9.38 -0.73,-6.47 22.84,-11.44 6.66,-1.41 24.26,-1.08 31.92,-1.26 29.53,-0.68 34.96,0.77 64.79,-4.08 0.08,-19.33 -0.32,-38.36 -0.51,-57.62 -0.91,-92.38 -2.73,-76.52 20.99,-68.56l0.62 -4.94c-154.9,31.23 -147.2,-45.11 -150.47,135.24l-146.05 12.82c-7.73,52.69 -5.91,123.09 3.09,144.54z"/>
  <polygon fill="#F4F537" points="452.84,2914.2 570.76,2918.61 575.87,2782.98 451.59,2785.7 "/>
  <path fill="#F4F537" d="M4015.43 1880.85l-0.34 17.74c127.17,-1.45 101.69,-4.63 97.42,-145.63l-93.03 0.63 -4.05 127.25z"/>
  <polygon fill="#F4F537" points="4318.33,1300.33 4389.89,1299.73 4393.7,1184.53 4318.18,1184.61 "/>
  <path fill="#F4F537" d="M4218.19 1598.81c37.29,3.51 41.64,-3.25 43.72,-40.01 1.8,-31.69 -1.25,-62.61 1.35,-96.66l-40.81 3.64 -4.26 133.04z"/>
  <path fill="black" d="M2217.8 39.72l3.52 93.65c-10.98,16.77 19.18,12.57 -24.94,13.55l-261.42 -2.85c-23.29,23.94 -76.36,12.19 -145.58,13.79 -8.35,23.98 -8.81,16.85 -26.73,29.66l-133.94 -4.69 0 100.51c-366.03,0 -299.89,-24.28 -299.89,139.27l-139.24 0c-16.73,33.07 -1.69,-1.75 -10.17,32.13l-2 4.35c10.19,18.5 2.06,-18.99 12.01,27.22 1.51,7.02 1.73,24.54 1.92,32.37 0.48,20.56 -0.92,44.54 -1.45,65.36l144.89 -5.61 5.1 -142.79 156.6 3.17 7.35 147.28c41.67,-11.39 100.65,-10.76 144.18,2.87l4 144.24 142.07 -2.85 1.69 140.92 121.48 -2.09 25.1 -12.76 -2.45 -132.83 -2.88 -0.23 -21.97 5.68 -119.78 -1.35 0.86 -136.59c-20.24,-4.19 -2.03,2.75 -14.48,-17.96l1.68 4.19 -18.93 0.41 -116.22 -0.9 -1.93 -136.51 -2.28 -4.08c-9.95,-11.15 -16.9,-5.56 -16.79,-56.28 0.04,-21.02 2.4,-31.38 5.89,-51.16l147.6 -2.7c7.61,-26.4 -6.16,-14.11 19.4,-24.34l407.06 -9.9 16 -112.36 127.47 1.9 27.84 -38.01 117.81 0.06c49.34,3.12 17.16,0.1 29.03,13.56l726.8 17.88 150.61 6.22 4.31 45.09 10.35 11.29 135.38 5.07 3.48 49.97 149.32 4.05 4 59.7 129.74 3.17c24.09,12.24 18.5,5.51 19.97,85.16 41.43,0.89 102.78,-8.55 138.99,11.38l3.72 89.54 101.89 3.71 40.55 0.54 1.37 38.28 -5.11 51.71 107.15 3.14c21.5,100.6 5.18,424.65 -2.8,531.97l-82.3 -4.86 -2.86 135.7 -44.18 16.69 -5.15 135.89 -42.75 -1.05 1.33 143.31 -107.84 -1.1 2.56 149.66 -96.77 3.23 0.33 135.79c-47.92,36.58 -42.17,-21.27 -37.89,156.93l132.96 -1.49 2.46 -148.84 50.5 -13.91 4.05 -127.25 93.03 -0.63 4.78 -150.12 100.9 -4.04 4.26 -133.04 40.81 -3.64 2.44 -137.16 39.46 -2.16 2.24 -147.78 88.6 -1.54 -2.33 -141.53 8.58 -163.17 3.77 -35.02 35.09 0.76 3.27 35.34 1.48 14.09 0.11 41.04 74.55 3.17 7.24 93.93 64.39 4.33 3.84 91.86 71.95 3.52c1.33,96.2 -4.1,69.86 22.18,96.57 29.7,30.19 7.66,38.35 14.95,71.93 14.54,66.89 32.47,-56.34 44.39,113.64l70.26 2.89c0.8,107.62 -2.95,90.4 28.91,94.68 16.94,20.03 13.32,-25 14.33,24.47l0.02 63.69 72.16 6.35 5.24 146.51 28.16 0.33 4.49 145.7 23.53 0.78c21.13,22.96 6.86,-26.33 18.36,33.94l-0.47 100.11 71.85 10.42 7.43 146.75 24.38 1.58 3.15 565.05c12.58,25.27 -13.01,13.66 24.66,19.01 20.09,13.61 16.64,-19.81 16.11,23.84l1.67 277.59 -1048.24 0.93 -6.42 -587.4 -131.78 -0.29 -5.41 730.31 1187.51 0.58 2.95 136.34 -25.19 2.94c-11.92,62.62 -6.22,215.21 -3.51,285.28 3.46,89.68 8.53,200.7 3.46,289.24l15.38 0.05c44.3,17.12 77.93,10.66 128.53,10.66l-2.54 -278.52 -8.93 -306.44 23.76 6.49 19.83 0 0 -318.8c-9.03,-6.32 -4.07,-232.48 -14.58,-273.68l-26.06 -0.01 -2.73 -100.62 -1.65 -184.02 -3.14 -144.85 1.76 -147.68c-45.13,-23.12 -19.67,9.61 -37.19,-30.13l-4 -122.89 -70.09 -6.05 1.92 -139.79c-66.17,-6.54 -19.8,10.26 -42.05,-20.5l2.86 -125.32 -36.24 -1.49 1.66 -140.99c-15.31,-13.38 27.74,-5.84 -26.66,-11.31 -8.85,-0.89 -33.1,0.59 -43.69,0.59 0,-54.69 7.33,-107.66 -10.72,-143.87l-30.81 2.13 -2.37 -95.02 -72.49 -1.77 0.41 -50.72 -2.22 -42.84 -31.76 -4.81c-17.87,-19.18 -11.04,-58.53 -12.75,-91.25l-33.14 1.98 -3.76 -93.02 -73.24 -0.83 0.03 -47.75 6.01 -53.49 -43.8 0.08 -31.8 -0.8 -2.12 -93.58c-23.78,-1.46 -72.24,5.61 -72.24,-12.9l-1.09 -85.7 -42.69 1.76 -32.37 -0.36 -2.81 -65.67 3.05 -23.33 -75.31 -2 -1.23 -81.8 1.82 -21.4 -37.65 -0.02 -104.32 6.83 -7.5 -17.54 -0.73 -79.34 -147.66 1.52 1.33 -72.16 -10.41 -23.4 -46.76 -3.39 -92.93 2.45 2.86 -93.49 -27.74 5.1 -122.95 -9.29c-7.49,-40.91 -12.31,-26.88 5.14,-61.41l0 -30.82 -85.69 1.7 -68.34 -0.22 2.21 -44.33c3.71,-38.95 4.01,-10.69 -8.84,-21.43l-42.84 -0.84 -96.88 2.92 -2.41 -44.93c-11.71,-14.49 27.3,-8.27 -29.22,-12.29l-116.47 0.89 1.41 -52.87c-12.34,-6.74 -4.58,-7.24 -24.53,-10.25 -9.43,-1.42 -31.74,-0.83 -42.28,-0.84 -38.54,-0.05 -49.76,-1.88 -85.9,7.64 -150.83,-10.79 -299.95,-10.27 -449.85,-20.33 -108.76,-7.3 -336.11,-20.68 -439.25,-7.78l-0.53 32.4 -149.3 1.93z"/>
  <path fill="black" d="M0.73 2757.76l18.18 11.2c9.95,230.5 -5.02,462.07 -0.76,674.77 1.78,89.01 14.74,68.79 -17.42,66.34 0,103.4 10.7,175.99 10.7,286.92 43.6,15.78 5.25,27.22 64.27,32.13l0 139.12c24.23,0 59.24,-6.42 70.63,10.86 4.81,30.6 4.39,43.97 4.17,75.2 -0.04,5.37 -0.81,28.68 -0.41,32.35 4.57,43.39 3.27,19.78 11.3,34.57l63.81 -2.89 -1.01 107.15 1.75 42.84 63.97 0.01 0 139.26c13.48,7.58 11.03,5.69 28.87,10.72 11.39,-10.34 5.4,-8.47 24.77,-16.19 30.53,-12.17 -8.66,-2.12 21.34,0.68 12.74,25.31 23.63,81.29 -2.63,97.83l3.16 56.91 74.45 1.53 37.72 -0.97 -0.22 117.3 -6.46 31.97 118.89 1.31 30.43 -1.03 -1.9 128.44 3.61 0.88 147.03 11.48 -9.21 -139.2 -0.89 -12.6 -9.83 1.88 -124.02 -5.25 -10 -135.25 -3.74 -0.29 -93 -3.78 -0.78 -32.7 -4.72 -110.53 -61.11 0.75c-18.09,-16.33 -11.97,1.34 -10.01,-67.88 0.76,-26.9 0.12,-52.87 -0.61,-79.91l-63.2 0 -6.63 -28.81 0.17 -115.61 -58.41 3.06c-31.09,-15.59 -15.67,4.81 -22.35,-35.01 -0.69,-4.18 8.03,-59.1 -0.4,-113.79l-61.99 -6.52 -3.29 -34.02 2.28 -82.43c-16.3,-38.54 7.47,-10.6 -34.76,-32.11l-0.79 -32.1 -1.6 -103.16 -21.14 -11.72 0.94 -890.52c11.32,-12.59 0.19,-6.51 23.62,-11.32 3.65,-0.76 16.43,-1.15 20.68,-1.4l150.72 -0.08c69.09,-0.29 137.94,-1.38 207.71,-1.38l-1.56 -126.72c-97.61,-12.74 -330.03,17.03 -404.71,-16.26l-1.95 -433.71 -142.23 -3.71c-6.7,12.93 -7.35,5.91 -10.25,25.49 -0.93,6.37 -0.96,24.3 -1.05,31.46l-1.56 223.19c-12.95,80.99 -8.56,193.14 -8.56,291.24z"/>
  <path fill="black" d="M2645.57 2762.46c-18.28,18 30.01,13.37 -31.48,16.35l-2038.75 3.75 3.41 137.46 2063.09 2.47 4.61 156.03 2.08 134.44 120.35 0.97c28.22,13.13 17.07,-13.51 24.2,26.03l3.13 113.41 150.85 1.38 -3.91 -141.9 -145.85 -2.33 0.3 -727.4 -22.81 -2.12 -128.03 0.61 -1.2 280.85z"/>
  <path fill="black" d="M3525.44 5441.24l2.1 144.7 -283.38 -1.88c-0.6,22.49 -0.5,44.03 -0.6,66.6 -0.25,52.17 3.39,42.76 -11.31,64.04 -1.08,1.99 -4.07,1.91 -5.08,4.51 -6.88,17.9 -764.28,0.88 -849.54,10.41l-7.37 -4.86 8.13 32.61c-16.89,43.74 -10.65,68.29 -10.65,117.84l878.26 0 -3.55 -139.26c6.86,-3.6 7.33,-7.39 24.87,-9.94 8.26,-1.2 33.69,-1.1 43.04,-1.02 37.71,0.31 37.71,-3.25 65.34,10.95 44.07,22.55 257.12,17.8 303.28,0 33.68,-17.65 98.25,-10.48 145.4,-9.88 10.18,-14.25 10.72,19.88 10.72,-32.97l120.91 0 8.82 -139.27c-42.83,-15.51 -95.78,-10.54 -142.52,-7.19l-4.28 32.12 -110.23 4.74c-45.71,-5.15 -13.14,2.86 -33.6,-13.1l-1.39 -299.36c-53.92,-0.09 -101.98,-4.35 -153.42,8.97l6.05 161.21z"/>
  <path fill="black" d="M1189.04 4820.95l-3.88 176.65 -125.41 2.81c-45.8,3.84 -103.19,7.85 -144.27,-6.41l-2.59 24.09 -2.81 127.91 152.13 -1.54 -0.64 140.91 128.07 -1.17c29.23,15.54 6.68,-7.08 21.32,23.25 -15.89,41.16 -10.65,40.54 -10.65,87.03l139.19 -3.72c35.01,45.88 -5.67,25.8 32.18,41.64l120.45 -5.18c0.42,-52.11 7.04,-95.16 -12.5,-139.42 -64.18,-0.26 -105.44,8.89 -125.37,-14.92l-142.98 -22.03 -20.25 -135.6c-0.87,-5.91 -0.82,-25.46 -0.87,-32.38 -0.22,-24.62 0.78,-49.17 2.3,-73.71l291.17 -2.49 2.22 -180.54 289.82 -2.55 1.72 -147 -157.16 -0.31 -140.67 5.36 -5.58 137.93 -284.93 1.4z"/>
  <polygon fill="black" points="3092.64,3653.27 3521.11,3655.21 3524.77,4235.03 3673.24,4237.37 3674.22,3506.67 3086.94,3505.83 "/>
  <path fill="black" d="M3096 2336.2l-1.95 -143.86 575.03 -0.18 3.63 127.72 142.58 5.36 1.72 -280.5 -865.46 0.83 2.69 278.61c40.05,-1.9 141.75,-12.38 141.75,12.01z"/>
  <polygon fill="black" points="3672.81,5271.05 3819.64,5266.63 3820.97,4237.36 3673.24,4237.37 "/>
  <path fill="black" d="M279.25 1740.22c-17.52,0 -36.03,-0.79 -53.31,-0.58 -41.96,0.51 -28.45,-3.49 -59.39,11.3l11.21 439.25 138.09 -2.13 3.1 -436.18 138.98 -1.17 3.1 -235.43c13.84,-29.81 -13.41,-12.04 24.54,-21.66l10.57 -148.44 104.53 -2.62c2.88,-43.38 9.63,-104.93 -5.27,-137.43l-137.95 -1.19 2.81 149.97 -97.47 4.58 -7.54 92.51c-60.01,28.45 -50.39,-55.45 -37.91,304.2 -71.44,-0.65 -16.13,3.19 -38.08,-14.96z"/>
  <polygon fill="black" points="1920.12,5436.04 1505.14,5432.07 1495.36,5581.7 1927.36,5577.3 "/>
  <path fill="black" d="M735.3 893.95c-2.44,2.41 -5.98,4.67 -8.55,5.73 -2.55,1.05 -5.81,3.67 -9.04,4.73 -23.62,7.72 3.1,0.93 -20.27,4.5 -3.46,0.53 -32.82,-0.55 -42.4,-0.54l0.01 105.54 -23.55 40.94c-37.16,21.15 -26.27,10.65 -21.77,143.02l137.45 -0.37 2.37 -144.56 50.29 -8.95 4.82 -21.49 83.11 1.68 2.92 -150.56 -150.94 -1.98 -4.45 22.32z"/>
  <path fill="black" d="M2370.27 5724.76c-20.33,-47.45 -13.18,-77.94 -13.16,-134l-421.6 -3.14 -3.33 134.77c124.51,14.87 333.4,-31.24 438.09,2.37z"/>
  <polygon fill="black" points="1040.75,616.7 1038.81,728.25 892.65,725.55 890.69,873.6 1042.49,873.06 1040.76,731.34 1184.43,729.34 1189.22,604.66 1189.9,584.05 1041.55,581.75 "/>
  <path fill="black" d="M2510.99 3797.03l-3.33 149.31 144.61 -2.38 0.67 -5.17 4.01 -138.34 139.99 -3.98c-12.9,-45.12 -8.52,-100.93 -5.37,-150.42l-142.48 8.1 -3.48 139.76 -134.63 3.12z"/>
  <polygon fill="black" points="2647.44,1738.37 2648.35,1888.28 2798.72,1891.7 2793.33,1604.31 2647.33,1602.29 "/>
  <polygon fill="black" points="2211.02,4094.8 2208.29,4234.56 2071.43,4239.05 2067.66,4384.07 2206.61,4382.08 2214.01,4376.18 2217.57,4238.99 2354.41,4234.26 2353.57,4085.15 "/>
  <polygon fill="black" points="2096.86,1164.49 2237.62,1168.99 2239.63,1309.09 2350.86,1310.88 2390.16,1309.73 2379.67,1157.77 2363.15,1164.32 2241.28,1166.76 2238.39,1022.33 2210.07,1021.55 2097.09,1023.5 "/>
  <path fill="black" d="M5002.53 4364.94c44.15,16.86 75.81,10.54 126,10.54l5.43 -286.28c-57.61,-17.27 -75.36,-10.6 -146.41,-9.95l3.13 232.64c-1.04,44.1 -12.12,43.45 11.84,53.05z"/>
  <polygon fill="black" points="4258.88,5138.5 4253.98,5257.63 4114.42,5252.74 4118.57,5300.17 4122.88,5392.15 4263.51,5393.36 4258.7,5307.45 4258.28,5252.77 4409.53,5252.32 4401.29,5102.3 4258.51,5110.1 "/>
  <path fill="black" d="M2495.45 1471.43l7.05 128.1 144.83 2.76 -0.66 -136.39 -115.93 -8.15 -10.21 -146.13 -2.89 -0.81 -127.47 -1.09 0.02 141.87c24.22,2.45 43.74,0.24 63.98,1.9 48.2,3.94 28.79,-6.44 41.29,17.94z"/>
  <path fill="black" d="M4831.16 4807.81c31.76,11.1 12.08,7.35 21.42,-3.83l0 -117.9c-19.56,-25.12 -13.91,36.82 -19.03,-42.8l2.09 -117.04 -137.21 3.26 0.33 274.47 132.39 3.83z"/>
  <polygon fill="black" points="3674.22,3506.67 3820.74,3506.69 3824.11,3360.96 3810.16,3358.97 3674.47,3358.66 "/>
  <polygon fill="black" points="2791.59,3646.04 2943.24,3647.8 2946.07,3506.82 2795.14,3504.39 "/>
  <polygon fill="black" points="2946.07,3506.82 3086.94,3505.83 3085.28,3355.82 2947.06,3354.75 "/>
  <path fill="black" d="M4979.1 4373.53l-138.22 3.41 4.69 143.19 142.85 2.4c-0.01,-53.83 5.02,-97.47 -9.33,-149.01z"/>
  <polygon fill="black" points="3824.11,3360.96 3968.22,3360.57 3968.17,3214.6 3825.04,3215.17 "/>
  <path fill="black" d="M3975.06 5545.68l117.08 2.5 31.99 -6.07 0.15 -80.09 -8.82 -17.06c-21.67,-56.17 12.69,38.51 -5.64,-18.5 -9.6,-29.86 4.57,4.91 -6.96,-23.63l-129.8 0.01 2.01 142.84z"/>
  <polygon fill="black" points="1916.2,4523.27 2065.72,4521.21 2067.66,4384.07 1916.97,4382.39 "/>
  <path fill="black" d="M4689.14 4810.55l-131.45 3.79 -4.13 144.28 145.08 1.66c0,-55.22 4.65,-95.9 -9.49,-149.73z"/>
  <path fill="black" d="M915.48 4994l-12.1 -145.38 1.8 0.72 -17.95 1.18 -110.92 -4.92c-11.97,46.91 -9.41,100.99 -4.59,151.61l143.76 -3.2z"/>
  <polygon fill="black" points="4986.13,4082.83 5128.71,4083.38 5128.51,3938.83 4986.35,3938.93 "/>
  <polygon fill="black" points="2800.96,2035.64 2944.77,2036.64 2939.14,1894.08 2943.58,1894.43 2798.72,1891.7 "/>
  <polygon fill="black" points="2353.57,4085.15 2504.47,4082.56 2507.67,3946.33 2356.73,3952 "/>
  <polygon fill="black" points="4401.29,5102.3 4554.68,5104.26 4548.9,4964.31 4405.07,4974.12 "/>
  <polygon fill="black" points="1777.38,4676.58 1917.21,4677.86 1920.12,4536.4 1778.54,4536.95 "/>
  <polygon fill="black" points="2797.61,2483.12 2934.99,2482.81 2935.43,2342.11 2797.25,2342.1 "/>
  <polygon fill="black" points="1948.77,1013.38 2089.68,1012.01 2089.38,876.89 2064.72,875.8 1950.65,876.48 "/>
  <path fill="black" d="M3830.01 2476.99l136.06 -0.82c0.39,-42.3 5.4,-93.57 -6.99,-128.8l-123.53 -2.25 -5.53 131.87z"/>
  <path fill="#03BBFB" d="M2796.96 3796.46c-10.84,36.38 -22.84,24.76 -126.68,24.76 0,66.83 10.19,86.63 -17.32,117.57l-0.67 5.17c-19.04,20.83 18.48,10.11 -37.48,23.75l-87.72 -0.11c-13.64,67.11 15.01,109.84 -23.55,126.06 -17.69,41.24 -9.7,80.58 -12.48,138.78l-125.74 0.81c-7.08,16.48 12.82,10.25 -20.7,22.63l-115.34 2.21c0,60.48 9.58,88.73 -15.25,118.1l-7.4 5.9c-17.44,16.61 26.35,10.61 -31.65,16.56l-95.7 0.13 -1.03 94.54c-3.23,56.57 0.7,16.56 -12.52,27.9 -16.18,15.12 23.69,9.77 -30,14.98l-105.66 0.31 0.54 118.04 -13.39 23.32 -139.82 -1.28 -1.72 147 -289.82 2.55 -2.22 180.54 -291.17 2.49c-1.52,24.54 -2.52,49.09 -2.3,73.71 0.05,6.92 0,26.48 0.87,32.38l20.25 135.6 142.98 22.03c19.93,23.81 61.19,14.66 125.37,14.92 25.05,14.8 17.45,-24.65 22.67,30.37l2.85 113.9 414.98 3.98c25.68,14.16 9.34,-5.16 16.26,21.99 1.69,6.63 1.54,33.68 1.52,41.92 -0.08,25.77 -0.08,50.03 0.65,75.87l432.48 2.64 6.6 151.16c85.26,-9.53 842.66,7.48 849.54,-10.41 1.01,-2.6 4,-2.52 5.08,-4.51l1.59 -136.75 277.11 -9.13c1.39,-48.33 -7.88,-104.24 14.49,-127.59l-6.05 -161.21c6.12,-32.94 5.71,-36.59 6.89,-69.91 1.97,-55.64 4.4,-61.21 62.02,-62.09 19.48,-0.29 40.41,0.57 63.87,0.58l-1.36 -618.08 -119.3 -1.21c-3.74,-61.54 -18.03,-255.92 -6.74,-294.28l-3.67 -579.82 -428.47 -1.94 -151.34 1.76 -135.44 4.27 -8.9 137.15z"/>
  <path fill="#03BBFB" d="M2207.14 291.88l-407.06 9.9c-25.55,10.23 -11.79,-2.06 -19.4,24.34 1.37,18.04 4.63,12.17 -15.81,11.42l0.77 95.72 9.75 10.77 7.96 133.32 -1.68 -4.19 126.72 3.47c30.13,25 19.41,23.73 21.3,134.58l132.2 6.75c17.09,34.16 9.65,94.38 14.22,142.07 30.01,2.97 49,2.38 78.23,3.13 102.47,2.61 43.65,56.79 69.45,145.83l121.96 13.51c19.46,36.17 7.66,87.87 17.42,141.82l16.52 -6.55 123.87 17.2c3.02,54.08 -6.37,85.94 14.1,135.85l2.89 0.81 15.61 0.57 107.24 3.98 4.89 132.3c21.38,12.56 6.9,-24.08 18.98,24.56l2.39 114.1 94.38 0c53.99,7.99 16.47,0.65 29.3,17.17 10.33,12.79 7.47,-21.75 11.72,28.8l2.52 111.32 123.92 2.67 12.09 147.33 -4.44 -0.35c17.19,12.61 9.66,-23.26 16.99,28.26l0.9 108.83 835.29 -6.16c0.24,-54.66 12.72,-240.19 22.51,-273.13l127.66 -20.32 -0.08 -98.46c13.43,-77.52 0.57,-14.74 18.86,-33.63l3.19 -139.63 103.32 -2.58c1.75,-1.43 2.59,-7.36 23.7,-17.03l7.9 -141.69 6.58 -136.79c46.45,-36.64 51.3,-71.46 55.55,-135.4l73.51 -11.04 -3.3 -293.21c-44.41,-28.92 -19.12,8.95 -54.66,-41.06l-36.4 -41.27 5.11 -51.71 -34.34 -3.41 -7.58 -35.41 -101.89 -3.71 -3.72 -89.54 -147.43 -6.36 -11.52 -90.18 -129.74 -3.17c-2.06,-2.02 -5.01,-4.55 -6.08,-6.17l-12.29 -22.26c-0.78,-1.75 -3.46,-13.76 -6.04,-19.91 -27.2,-2.74 -48.55,-3.39 -75.53,-4.41 -38.54,-1.48 -27.02,3.9 -53.37,-11.01l-3.48 -49.97 -135.38 -5.07 -10.35 -11.29c-2.78,-1.8 -6.44,-4.03 -8.32,-5.41 -74.58,-54.59 -36.4,-18.45 -110.51,-28.78 -61.32,-8.56 -18.48,4.01 -36.09,-17.12l-726.8 -17.88 -136.13 -2c-1.91,1.98 -4.11,5.04 -5.24,6.36l-14.99 17.98c-23.95,20.93 -104,10.61 -139.11,10.76 -10.65,98.64 15.44,86.65 -22.68,101.75z"/>
  <path fill="#F9F904" d="M451.59 2785.7l124.28 -2.73 -5.11 135.64 -117.92 -4.41 -1.25 -128.5zm-261.53 897.49c16.37,19.44 9.27,71.88 10.47,104.66l97.99 1.41c55.17,85.22 -11.59,206.75 30.12,303.78l122.35 3.47c6.35,100.08 8.2,179.35 19.5,278.98 181.55,0 121.02,-9.97 142.2,151l131.67 4.84c7.4,61.64 5.31,109.23 14.49,165.34 35.66,9.89 17.52,68.71 25.53,114.84l112.19 7.76c76.06,32.04 201.73,-16.05 292.46,1.68l284.93 -1.4 5.58 -137.93 140.67 -5.36 3.94 -6.22c-8.99,-21.45 -10.82,-91.85 -3.09,-144.54l146.05 -12.82c3.26,-180.35 -4.44,-104.01 150.47,-135.24 50.94,-18.66 60.24,-12.22 127.35,-13.02l6.05 -128.22c41.51,-26.2 81.4,-16.79 139.39,-16.79 0,-146.05 -6.08,-111.99 20.64,-124.62l142.55 -9.65 3.16 -133.15c18.86,-18.15 -26.74,-12.93 32.45,-16.21l104.02 -4.44 0.97 -102.22c5.58,-54.87 -0.23,-16.18 16.82,-32.11l134.63 -3.12 3.48 -139.76c15.82,-21.1 -28.19,-12.61 29.24,-20l93.9 -0.02 8.34 -131.98 -11.71 -288.21 -120.35 -0.97 -2.08 -134.44c-18.25,-11.22 -6.07,-3.6 -18.75,-13.49 -40.53,-31.66 -169.3,-0.42 -227.82,-0.53l-627.19 -12.36 -0.33 -117.14c-203.91,-6.22 -410.44,-1.27 -614.91,-5.19 -87.5,-1.68 -529.13,6.48 -578.72,-9.78l-3.41 -137.46 -405.46 -1.61 -0.94 890.52 21.14 11.72z"/>
  <path fill="#F9F904" d="M4393.66 1031.96l2.33 141.53 -2.29 11.04 -3.81 115.2 -71.57 0.6c-1.22,40.41 3.03,14.34 -13.17,22.49l-39.46 2.16 -2.44 137.16c-2.6,34.05 0.46,64.97 -1.35,96.66 -2.08,36.76 -6.44,43.52 -43.72,40.01 -21.68,18.23 -53.81,10.64 -89.98,11.98l0.01 108.01c-4.84,64.33 -0.35,17.78 -15.71,34.17 4.27,141 29.75,144.18 -97.42,145.63l-39.62 3.43 -0.52 116.73c-0.73,46.55 2.62,10.26 -12.48,24.85 -23.6,24.82 0.47,8.63 -31,18.12l-94.05 0 0.24 115.37 116.31 0.37 4.82 154.83c15.39,11.76 8.83,-17.9 18.1,29.24l0.38 119.33 131.78 0.29c26.19,12.67 17.19,10.24 16.59,94.62 -0.26,35.87 0.89,71.3 1.06,107.13 0.35,76.34 -1.51,152.7 1.13,229.01 36.11,0.3 386.62,-1.89 410.7,20.04 13.68,15.99 6.56,-8.1 12.1,19.67l-5.98 103.98 606.59 3.4 -5.31 -292.81c-37.67,-5.35 -12.08,6.27 -24.66,-19.01l-3.15 -565.05 -24.38 -1.58c-21.32,-19.8 -8.2,20.47 -17.46,-32.65l0.03 -108.49 -71.08 -4.6 -8.66 -145.48 -23.53 -0.78 -4.49 -145.7 -28.16 -0.33c-12.51,-14.77 -9.17,4.01 -14.58,-33.76l-1.18 -104.47 -71.69 -6.13 -4.3 -96.65c-31.87,-4.28 -28.11,12.93 -28.91,-94.68l-70.26 -2.89c-11.93,-169.98 -29.86,-46.75 -44.39,-113.64 -7.3,-33.58 14.75,-41.74 -14.95,-71.93 -26.28,-26.72 -20.85,-0.37 -22.18,-96.57l-71.95 -3.52 -3.84 -91.86 -64.39 -4.33c-20.19,-16.52 -15.33,22.19 -17.15,-21.03l0 -66.95c-38.01,0 -37.83,5.43 -64.64,-9.12l-0.11 -41.04 -31.57 -3.39 -1.67 120.5c-4.36,51.78 1.9,15.19 -18.96,30.89z"/>
  <path fill="#FD3902" d="M1042.49 873.06c-20.87,17.96 36.97,12.34 -35,15.91l-98.31 4.9 -0.96 96.49c-10.73,65.64 -0.76,16.97 -20.45,33.8l-83.11 -1.68 -4.82 21.49c-51.4,63.75 -35.41,-25.43 -44.24,155.89 -41.88,16.85 -92.94,9.09 -138.39,10.84l-10.92 135.17 -2.89 99.07 -17.46 22.36 -84.48 2.32c0.23,37.83 5.2,15.12 -15.89,23.98 -37.95,9.62 -10.69,-8.16 -24.54,21.66l-3.1 235.43 -138.98 1.17 -3.1 436.18 -138.09 2.13 -0.1 430.65 399.44 8.35 35.21 10.92 1.04 115.72 104.97 0.67c60.34,3.36 15.19,0.15 33.4,13.91l1893.84 -7.95 1.2 -280.85 128.03 -0.61c0,-107.25 17.13,-184.61 15.46,-290.85 -1.65,-105.36 -13.02,-176.07 -13.17,-281.28l-98.74 0c-47.78,-2.15 -17.34,-0.51 -29.37,-10.94 -18.13,-46.95 -12.02,-76.36 -13.04,-138.76 -110.99,-10.08 -133.96,24.78 -133.47,-71.98 0.48,-94.65 -17.42,-53.49 -17.42,-213.08 -26,-1.42 -49.33,-0.82 -74.9,-1.52 -81.86,-2.27 -69.99,-10.44 -69.99,-145.92 -47.39,0 -105.03,5.74 -140.19,-10.36l-4.99 -133.12c-71.39,-3.27 -69.07,1.65 -141.14,-19.26l-1.03 -134.23c-87.21,2.3 -81.68,11.47 -118.24,-16.13 4.13,-86.95 16.47,-108.99 -17.32,-144.36l-121.48 2.09 -1.69 -140.92 -142.07 2.85c-19.15,-19.34 -16.67,-6.23 -24.34,-41.98l1.1 -86.57c-64.79,-20.49 -368.49,-14.84 -439.55,0l-4.79 124.68 -143.67 2 1.72 141.72z"/>
  <path fill="#FD3902" d="M3968.22 3360.57l-144.1 0.39 -3.38 145.73 -146.52 -0.02 -0.97 730.7 147.73 -0.01 -1.34 1029.27c2.83,66.21 -61.31,31.97 -123.85,43.67l-2.06 124.33 125.37 5.34c10.5,-15.37 -31.98,-11.36 26.69,-13.35l105.5 -0.98 3.39 -126.21c55.65,-19.14 82.48,-6.96 143.23,-14.86l11.95 -130.84c63.39,-5.24 100.08,6.7 149.02,-15.23l-0.37 -28.39 142.78 -7.8 3.78 -128.18c12.2,-28.02 20.09,-18.33 61.53,-18.18 28.52,0.1 46.77,0.28 75.46,-2.55 0,-24.87 -0.5,-49.94 -0.45,-74.74 0.17,-71.73 3.85,-51.58 16.06,-64.32l131.45 -3.79 1.67 -290.95 142.98 -2.68 7.1 -139.98 3.62 -128.26 116.42 -4.64c13.88,-51.17 8.78,-103.41 10.81,-157.79 0.95,-25.42 1.14,-49.69 0.91,-75.14 -0.59,-65.46 -4.74,-54.54 12.57,-73.05l27.86 -7.84 110.9 0.91 -1.69 -551.9c1.9,-55.65 -1.71,-13.65 14.88,-28.18l-6.51 -127.61 -1153.71 -4.11c-1.33,46.45 4.29,109.4 -8.72,141.24z"/>
  <path fill="#FBFBFA" d="M3096 2336.2l-147.92 5.06 -0.73 116.71c-1.2,45.77 2.42,10.18 -12.37,24.85l-137.38 0.31 -0.3 727.4 145.85 2.33 3.91 141.9 138.22 1.07c18.24,17.63 12.41,-32.94 17.05,34.11l0.97 103.61 553.79 -0.22 3.43 -103.38c6.19,-52.38 4.25,-19.44 13.95,-31.29 14.93,-16.46 -34.73,-10.23 32.09,-16.17l89.91 -0.85c12.54,-78.32 -12.25,-90.02 20.23,-128.42l-2.97 -5.63 8.29 -131.1c149.01,-9.88 126.9,53.03 126.9,-232.9 0.01,-94.45 13.24,-274.55 -2.52,-356.62 -22.64,1.04 -46.27,1.87 -69.17,1.51 -6.8,-0.09 -24.69,-0.18 -30.64,-1.21 -25.14,-4.37 -11.06,6.73 -16.57,-10.28 -17.69,-16.53 -13.03,28 -15.51,-29.75l-1.54 -104.67 -116.76 -3.1c-30.23,-8.95 -6.5,12.52 -23.48,-19.59l-3.63 -127.72 -575.03 0.18 1.95 143.86z"/>
  <path fill="#A8C75B" d="M1761.82 4534.79l-11.86 119.94c-53.81,9.79 -69.01,-3.76 -125.8,15.32l-3.94 6.22 157.16 0.31 1.16 -139.63 -1.61 -11.6c-19.4,4.92 -12.29,-15.48 -15.12,9.44z"/>
 </g>
</svg>
