<?xml version="1.0" encoding="UTF-8"?>
<!DOCTYPE svg PUBLIC "-//W3C//DTD SVG 1.1//EN" "http://www.w3.org/Graphics/SVG/1.1/DTD/svg11.dtd">
<!-- Creator: CorelDRAW 2018 (64 Bit Versão de avaliação) -->
<svg xmlns="http://www.w3.org/2000/svg" xml:space="preserve" width="113.623mm" height="11.3452mm" version="1.1" shape-rendering="geometricPrecision" text-rendering="geometricPrecision" image-rendering="optimizeQuality" fill-rule="evenodd" clip-rule="evenodd"
viewBox="0 0 11362.26 1134.52"
 xmlns:xlink="http://www.w3.org/1999/xlink">
 <g id="Camada_x0020_1">
  <metadata id="CorelCorpID_0Corel-Layer"/>
  <g id="_1442235156352">
   <path fill="#FCC183" d="M352.3 1036.23l10657.58 -0.08 3.92 -96.15 113.21 0 2.97 -85.8 54.32 -11.2c18.12,-0.38 37.19,0.54 59.47,0.1l-3.6 -552.11 -102.11 1.95c-18.94,51.26 -6.36,326.93 -8.88,406.79l-61.96 3.84 -2.65 93.85c-127.79,10.98 -112.52,-35.72 -115.65,101.06 -171.94,-0.39 -88.71,-1.51 -120.06,44.13 -213.93,-6.86 -444.2,1.62 -660.4,1.62l-9169.39 0c-143.88,0 -534.84,-20.34 -650.61,4.55l3.84 87.45z"/>
   <g>
    <path fill="#F79635" d="M352.3 1036.23l-3.84 -87.45c115.77,-24.89 506.73,-4.55 650.61,-4.55l9169.39 0c216.2,0 446.47,-8.48 660.4,-1.62 31.35,-45.64 -51.88,-44.52 120.06,-44.13 3.13,-136.78 -12.14,-90.08 115.65,-101.06l2.65 -93.85 61.96 -3.84c2.52,-79.86 -10.06,-355.53 8.88,-406.79l102.11 -1.95 3.6 552.11c-22.28,0.44 -41.35,-0.48 -59.47,-0.1l-54.32 11.2 -2.97 85.8 -113.21 0 -3.92 96.15 123.77 5.86 0.01 -93.75c132.08,0 118.53,26.08 118.53,-101.6l110.07 0 0 -558.8 -110.07 0c0,-127.68 13.55,-101.6 -118.53,-101.6l0 -93.13c-126.29,0 -118.53,27.02 -118.53,-93.13l-10668 0c0,120.15 7.76,93.13 -118.53,93.13l0 93.13c-132.08,0 -118.53,-26.08 -118.53,101.6l-110.07 0 0 558.8 110.07 0c0,127.68 -13.55,101.6 118.53,101.6l0 93.13 123.7 -5.16z"/>
    <polygon fill="#F79635" points="11009.88,1036.15 352.3,1036.23 346.4,1134.51 11015.13,1134.52 "/>
   </g>
  </g>
 </g>
</svg>
